M48
; DRILL file {KiCad (7.0.0)} date Thu Apr 13 18:09:35 2023
; FORMAT={-:-/ absolute / inch / decimal}
; #@! TF.CreationDate,2023-04-13T18:09:35+05:30
; #@! TF.GenerationSoftware,Kicad,Pcbnew,(7.0.0)
; #@! TF.FileFunction,Plated,1,2,PTH
FMAT,2
INCH
; #@! TA.AperFunction,Plated,PTH,ViaDrill
T1C0.0157
; #@! TA.AperFunction,Plated,PTH,ComponentDrill
T2C0.0236
; #@! TA.AperFunction,Plated,PTH,ComponentDrill
T3C0.0295
%
G90
G05
T1
X3.9961Y-3.6516
X3.9961Y-3.6909
X3.9961Y-3.7303
X3.9961Y-3.7697
X4.0069Y-3.3632
X4.0069Y-3.4222
X4.0069Y-3.4813
X4.0266Y-3.3927
X4.0266Y-3.4518
X4.0354Y-3.6516
X4.0354Y-3.6909
X4.0354Y-3.7303
X4.0354Y-3.7697
X4.0463Y-3.3632
X4.0463Y-3.4222
X4.0463Y-3.4813
X4.0659Y-3.3927
X4.0659Y-3.4518
X4.0748Y-3.6516
X4.0748Y-3.6909
X4.0748Y-3.7303
X4.0748Y-3.7697
X4.0856Y-3.3632
X4.0856Y-3.4222
X4.0856Y-3.4813
X4.1053Y-3.3927
X4.1053Y-3.4518
X4.1142Y-3.6516
X4.1142Y-3.6909
X4.1142Y-3.7303
X4.1142Y-3.7697
X4.125Y-3.3632
X4.125Y-3.4222
X4.125Y-3.4813
X4.1447Y-3.3927
X4.1447Y-3.4518
X4.1535Y-3.6516
X4.1535Y-3.6909
X4.1535Y-3.7303
X4.1535Y-3.7697
X4.1644Y-3.3632
X4.1644Y-3.4222
X4.1644Y-3.4813
X4.2126Y-4.6949
X4.2126Y-4.7343
X4.2126Y-4.7736
X4.2126Y-4.813
X4.252Y-4.6949
X4.252Y-4.7343
X4.252Y-4.7736
X4.252Y-4.813
X4.2677Y-4.0591
X4.2913Y-4.6949
X4.2913Y-4.7343
X4.2913Y-4.7736
X4.2913Y-4.813
X4.3307Y-4.6949
X4.3307Y-4.7343
X4.3307Y-4.7736
X4.3307Y-4.813
X4.339Y-3.4274
X4.3701Y-4.6949
X4.3701Y-4.7343
X4.3701Y-4.7736
X4.3701Y-4.813
X4.3862Y-3.4274
X4.4055Y-4.0787
X4.437Y-3.9724
X4.437Y-4.1673
X4.4394Y-3.827
X4.4886Y-3.4392
X4.4984Y-3.827
X4.5398Y-3.6301
X4.7116Y-4.0138
X4.7146Y-3.189
X4.7146Y-3.2283
X4.7146Y-3.2677
X4.7146Y-3.3071
X4.75Y-3.7047
X4.75Y-3.7441
X4.75Y-3.7835
X4.75Y-3.8228
X4.7539Y-3.189
X4.7539Y-3.2283
X4.7539Y-3.2677
X4.7539Y-3.3071
X4.7549Y-4.2884
X4.7746Y-4.0128
X4.7894Y-3.7047
X4.7894Y-3.7441
X4.7894Y-3.7835
X4.7894Y-3.8228
X4.7933Y-3.189
X4.7933Y-3.2283
X4.7933Y-3.2677
X4.7933Y-3.3071
X4.7943Y-4.0423
X4.7943Y-4.2884
X4.814Y-4.0128
X4.8287Y-3.7047
X4.8287Y-3.7441
X4.8287Y-3.7835
X4.8287Y-3.8228
X4.8327Y-3.189
X4.8327Y-3.2283
X4.8327Y-3.2677
X4.8327Y-3.3071
X4.8337Y-4.2884
X4.8681Y-3.7047
X4.8681Y-3.7441
X4.8681Y-3.7835
X4.8681Y-3.8228
X4.872Y-3.189
X4.872Y-3.2283
X4.872Y-3.2677
X4.872Y-3.3071
X4.9508Y-3.4222
X4.9518Y-3.56
X4.9911Y-3.4222
X4.9911Y-3.56
X5.0246Y-4.0325
X5.0305Y-3.4222
X5.0305Y-3.56
X5.0403Y-3.9341
X5.06Y-4.2392
X5.1191Y-4.1309
X5.1585Y-3.8061
X5.1585Y-3.8455
X5.1585Y-4.2392
X5.1781Y-4.6339
X5.187Y-3.9537
X5.2372Y-4.377
X5.2667Y-4.0915
X5.2667Y-4.1309
X5.2766Y-4.377
X5.3061Y-3.9931
X5.3061Y-4.0915
X5.3061Y-4.1309
X5.3159Y-4.377
X5.3455Y-4.0915
X5.3455Y-4.1309
X5.3553Y-3.7569
X5.3553Y-4.377
X5.3583Y-4.44
X5.3642Y-3.56
X5.3734Y-3.6569
X5.375Y-3.5994
X5.375Y-3.7077
X5.3848Y-4.0915
X5.3848Y-4.1309
X5.4242Y-3.8563
X5.4636Y-3.9045
X5.4931Y-3.7667
X5.503Y-4.1506
X5.5226Y-3.314
X5.5226Y-3.3533
X5.5226Y-3.3927
X5.5226Y-3.4321
X5.5522Y-4.3376
X5.562Y-3.314
X5.562Y-3.3533
X5.562Y-3.3927
X5.562Y-3.4321
X5.5719Y-4.3671
X5.5915Y-4.3376
X5.6014Y-3.314
X5.6014Y-3.3533
X5.6014Y-3.3927
X5.6014Y-3.4321
X5.6014Y-4.1506
X5.6112Y-4.3671
X5.6309Y-4.3376
X5.6407Y-3.314
X5.6407Y-3.3533
X5.6407Y-3.3927
X5.6407Y-3.4321
X5.6506Y-4.3671
X5.6703Y-4.3376
X5.6703Y-4.4163
X5.6801Y-3.314
X5.6801Y-3.3533
X5.6801Y-3.3927
X5.6801Y-3.4321
X5.69Y-4.3671
X5.6998Y-4.1506
X5.7096Y-4.3376
X5.7195Y-4.5049
X5.8081Y-4.1506
X5.811Y-3.9333
X5.8146Y-4.4493
X5.8967Y-4.2687
X5.9065Y-4.4951
X5.9459Y-4.4163
X6.0049Y-4.0128
X6.0354Y-3.5059
X6.0394Y-3.4606
X6.0443Y-4.0128
X6.0837Y-4.0128
X6.1102Y-4.4163
X6.1112Y-4.0571
X6.1407Y-4.0896
X6.1476Y-4.3671
X6.2795Y-4.685
X6.2795Y-4.7244
X6.2795Y-4.7638
X6.2795Y-4.8031
X6.31Y-4.3868
X6.31Y-4.436
X6.31Y-4.4754
X6.3189Y-4.685
X6.3189Y-4.7244
X6.3189Y-4.7638
X6.3189Y-4.8031
X6.3199Y-3.8701
X6.3219Y-3.9213
X6.3583Y-4.685
X6.3583Y-4.7244
X6.3583Y-4.7638
X6.3583Y-4.8031
X6.3593Y-4.3868
X6.3593Y-4.436
X6.3593Y-4.4754
X6.3976Y-4.685
X6.3976Y-4.7244
X6.3976Y-4.7638
X6.3976Y-4.8031
X6.4075Y-3.5236
X6.4075Y-3.563
X6.4075Y-3.6024
X6.4075Y-3.6417
X6.437Y-4.685
X6.437Y-4.7244
X6.437Y-4.7638
X6.437Y-4.8031
X6.4469Y-3.5236
X6.4469Y-3.563
X6.4469Y-3.6024
X6.4469Y-3.6417
X6.4862Y-3.5236
X6.4862Y-3.563
X6.4862Y-3.6024
X6.4862Y-3.6417
X6.5256Y-3.5236
X6.5256Y-3.563
X6.5256Y-3.6024
X6.5256Y-3.6417
X6.565Y-3.5236
X6.565Y-3.563
X6.565Y-3.6024
X6.565Y-3.6417
X6.5748Y-3.1398
X6.5748Y-3.1791
X6.5748Y-3.2185
X6.5748Y-3.2579
X6.6142Y-3.1398
X6.6142Y-3.1791
X6.6142Y-3.2185
X6.6142Y-3.2579
X6.6535Y-3.1398
X6.6535Y-3.1791
X6.6535Y-3.2185
X6.6535Y-3.2579
X6.6929Y-3.1398
X6.6929Y-3.1791
X6.6929Y-3.2185
X6.6929Y-3.2579
X6.7161Y-4.3335
X6.7211Y-4.2646
X6.7323Y-3.1398
X6.7323Y-3.1791
X6.7323Y-3.2185
X6.7323Y-3.2579
X6.7382Y-3.8273
X6.7608Y-3.752
X6.8317Y-3.8947
X6.8317Y-3.9537
X6.8514Y-3.8652
X6.8514Y-3.9242
X6.8514Y-3.9833
X6.8701Y-4.2815
X6.8701Y-4.3209
X6.8701Y-4.3602
X6.8701Y-4.3996
X6.8711Y-3.8947
X6.8711Y-3.9537
X6.8907Y-3.8652
X6.8907Y-3.9242
X6.8907Y-3.9833
X6.9094Y-4.2815
X6.9094Y-4.3209
X6.9094Y-4.3602
X6.9094Y-4.3996
X6.9104Y-3.8947
X6.9104Y-3.9537
X6.9301Y-3.8652
X6.9301Y-3.9242
X6.9301Y-3.9833
X6.9488Y-4.2815
X6.9488Y-4.3209
X6.9488Y-4.3602
X6.9488Y-4.3996
X6.9498Y-3.8947
X6.9498Y-3.9537
X6.9882Y-4.2815
X6.9882Y-4.3209
X6.9882Y-4.3602
X6.9882Y-4.3996
X7.0276Y-4.2815
X7.0276Y-4.3209
X7.0276Y-4.3602
X7.0276Y-4.3996
X7.1063Y-3.3071
X7.1063Y-3.3465
X7.1063Y-3.3858
X7.1063Y-3.4252
X7.1457Y-3.3071
X7.1457Y-3.3465
X7.1457Y-3.3858
X7.1457Y-3.4252
X7.1654Y-4.8228
X7.1654Y-4.8622
X7.1654Y-4.9016
X7.1654Y-4.9409
X7.185Y-3.3071
X7.185Y-3.3465
X7.185Y-3.3858
X7.185Y-3.4252
X7.2047Y-4.8228
X7.2047Y-4.8622
X7.2047Y-4.9016
X7.2047Y-4.9409
X7.2244Y-3.3071
X7.2244Y-3.3465
X7.2244Y-3.3858
X7.2244Y-3.4252
X7.2441Y-4.8228
X7.2441Y-4.8622
X7.2441Y-4.9016
X7.2441Y-4.9409
X7.2638Y-3.3071
X7.2638Y-3.3465
X7.2638Y-3.3858
X7.2638Y-3.4252
X7.2835Y-4.8228
X7.2835Y-4.8622
X7.2835Y-4.9016
X7.2835Y-4.9409
X7.3228Y-4.8228
X7.3228Y-4.8622
X7.3228Y-4.9016
X7.3228Y-4.9409
T3
X4.2898Y-4.4531
X4.2898Y-4.5319
X7.1516Y-3.8762
X7.1516Y-3.9549
X7.1516Y-4.0337
X7.1516Y-4.1124
X7.1516Y-4.3661
X7.1516Y-4.4449
X7.1516Y-4.5236
X7.1516Y-4.6024
T2
G00X4.1516Y-3.8992
M15
G01X4.128Y-3.8992
M16
G05
G00X4.1516Y-4.2394
M15
G01X4.128Y-4.2394
M16
G05
G00X4.326Y-3.8992
M15
G01X4.2827Y-3.8992
M16
G05
G00X4.326Y-4.2394
M15
G01X4.2827Y-4.2394
M16
G05
T0
M30
