%TF.GenerationSoftware,KiCad,Pcbnew,(7.0.0)*%
%TF.CreationDate,2023-04-13T18:09:36+05:30*%
%TF.ProjectId,smart_toilet,736d6172-745f-4746-9f69-6c65742e6b69,rev?*%
%TF.SameCoordinates,Original*%
%TF.FileFunction,Drillmap*%
%TF.FilePolarity,Positive*%
%FSLAX45Y45*%
G04 Gerber Fmt 4.5, Leading zero omitted, Abs format (unit mm)*
G04 Created by KiCad (PCBNEW (7.0.0)) date 2023-04-13 18:09:36*
%MOMM*%
%LPD*%
G01*
G04 APERTURE LIST*
%ADD10C,0.250000*%
%ADD11C,0.200000*%
%ADD12C,0.040000*%
%ADD13C,0.060000*%
%ADD14C,0.075000*%
G04 APERTURE END LIST*
D10*
X18764243Y-13093796D02*
X18798098Y-13104333D01*
X18833483Y-13107139D01*
X18869334Y-13102907D01*
X18904589Y-13092328D01*
X18938184Y-13076093D01*
X18969055Y-13054895D01*
X18996139Y-13029424D01*
X19018373Y-13000373D01*
X19034692Y-12968432D01*
X19044033Y-12934294D01*
X19045859Y-12910656D01*
X10033392Y-8395193D02*
X10033783Y-8537076D01*
X10034173Y-8678958D01*
X10034564Y-8820841D01*
X10034955Y-8962724D01*
X10035345Y-9104606D01*
X10035736Y-9246489D01*
X10036127Y-9388371D01*
X10036517Y-9530254D01*
X10036908Y-9672137D01*
X10037299Y-9814019D01*
X10037689Y-9955902D01*
X10038080Y-10097785D01*
X10038471Y-10239667D01*
X10038861Y-10381550D01*
X10039252Y-10523433D01*
X10039643Y-10665315D01*
X10040033Y-10807198D01*
X10040424Y-10949081D01*
X10040815Y-11090963D01*
X10041205Y-11232846D01*
X10041596Y-11374729D01*
X10041987Y-11516611D01*
X10042377Y-11658494D01*
X10042768Y-11800377D01*
X10043159Y-11942259D01*
X10043549Y-12084142D01*
X10043940Y-12226024D01*
X10044331Y-12367907D01*
X10044722Y-12509790D01*
X10045112Y-12651672D01*
X10045503Y-12793555D01*
X10045894Y-12935438D01*
X10171845Y-8204347D02*
X10144417Y-8216268D01*
X10118634Y-8233318D01*
X10095119Y-8254638D01*
X10074495Y-8279367D01*
X10057387Y-8306647D01*
X10044418Y-8335618D01*
X10036212Y-8365420D01*
X10033392Y-8395193D01*
X10045894Y-12935438D02*
X10050187Y-12970633D01*
X10062156Y-13004050D01*
X10080736Y-13035003D01*
X10104858Y-13062805D01*
X10133455Y-13086772D01*
X10165459Y-13106216D01*
X10199805Y-13120454D01*
X10235423Y-13128798D01*
X10271248Y-13130563D01*
X10306211Y-13125064D01*
X10328514Y-13117024D01*
X18893856Y-8180331D02*
X18632874Y-8100487D01*
X18369623Y-8025846D01*
X18104253Y-7956409D01*
X17836918Y-7892175D01*
X17567770Y-7833144D01*
X17296961Y-7779315D01*
X17024643Y-7730687D01*
X16750968Y-7687261D01*
X16476090Y-7649036D01*
X16200159Y-7616011D01*
X15923329Y-7588187D01*
X15645752Y-7565562D01*
X15367580Y-7548136D01*
X15088966Y-7535910D01*
X14810061Y-7528881D01*
X14531018Y-7527051D01*
X14251990Y-7530418D01*
X13973128Y-7538982D01*
X13694585Y-7552743D01*
X13416513Y-7571700D01*
X13139065Y-7595853D01*
X12862393Y-7625202D01*
X12586648Y-7659746D01*
X12311985Y-7699484D01*
X12038553Y-7744417D01*
X11766507Y-7794543D01*
X11495999Y-7849863D01*
X11227179Y-7910375D01*
X10960202Y-7976081D01*
X10695219Y-8046978D01*
X10432383Y-8123067D01*
X10171845Y-8204347D01*
X10328514Y-13117024D02*
X10570729Y-13011498D01*
X10817049Y-12912726D01*
X11067202Y-12820709D01*
X11320915Y-12735447D01*
X11577915Y-12656941D01*
X11837931Y-12585192D01*
X12100689Y-12520200D01*
X12365918Y-12461967D01*
X12633345Y-12410492D01*
X12902698Y-12365778D01*
X13173703Y-12327824D01*
X13446090Y-12296631D01*
X13719584Y-12272200D01*
X13993915Y-12254532D01*
X14268809Y-12243627D01*
X14543994Y-12239487D01*
X14819198Y-12242112D01*
X15094148Y-12251502D01*
X15368572Y-12267660D01*
X15642197Y-12290584D01*
X15914751Y-12320276D01*
X16185961Y-12356737D01*
X16455556Y-12399968D01*
X16723262Y-12449969D01*
X16988808Y-12506741D01*
X17251920Y-12570284D01*
X17512327Y-12640601D01*
X17769756Y-12717690D01*
X18023935Y-12801554D01*
X18274590Y-12892192D01*
X18521450Y-12989606D01*
X18764243Y-13093796D01*
X19033358Y-8370411D02*
X19030374Y-8340654D01*
X19022004Y-8310898D01*
X19008875Y-8281999D01*
X18991617Y-8254814D01*
X18970858Y-8230198D01*
X18947225Y-8209008D01*
X18921349Y-8192100D01*
X18893856Y-8180331D01*
X19045859Y-12910656D02*
X19045469Y-12768773D01*
X19045078Y-12626891D01*
X19044687Y-12485008D01*
X19044297Y-12343126D01*
X19043906Y-12201243D01*
X19043515Y-12059360D01*
X19043125Y-11917478D01*
X19042734Y-11775595D01*
X19042343Y-11633712D01*
X19041953Y-11491830D01*
X19041562Y-11349947D01*
X19041171Y-11208064D01*
X19040781Y-11066182D01*
X19040390Y-10924299D01*
X19039999Y-10782416D01*
X19039609Y-10640534D01*
X19039218Y-10498651D01*
X19038827Y-10356768D01*
X19038437Y-10214886D01*
X19038046Y-10073003D01*
X19037655Y-9931120D01*
X19037265Y-9789238D01*
X19036874Y-9647355D01*
X19036483Y-9505472D01*
X19036093Y-9363590D01*
X19035702Y-9221707D01*
X19035311Y-9079824D01*
X19034921Y-8937942D01*
X19034530Y-8796059D01*
X19034139Y-8654177D01*
X19033748Y-8512294D01*
X19033358Y-8370411D01*
D11*
D12*
X10130000Y-9255000D02*
X10170000Y-9295000D01*
X10170000Y-9255000D02*
X10130000Y-9295000D01*
X10130000Y-9355000D02*
X10170000Y-9395000D01*
X10170000Y-9355000D02*
X10130000Y-9395000D01*
X10130000Y-9455000D02*
X10170000Y-9495000D01*
X10170000Y-9455000D02*
X10130000Y-9495000D01*
X10130000Y-9555000D02*
X10170000Y-9595000D01*
X10170000Y-9555000D02*
X10130000Y-9595000D01*
X10157500Y-8522500D02*
X10197500Y-8562500D01*
X10197500Y-8522500D02*
X10157500Y-8562500D01*
X10157500Y-8672500D02*
X10197500Y-8712500D01*
X10197500Y-8672500D02*
X10157500Y-8712500D01*
X10157500Y-8822500D02*
X10197500Y-8862500D01*
X10197500Y-8822500D02*
X10157500Y-8862500D01*
X10207500Y-8597500D02*
X10247500Y-8637500D01*
X10247500Y-8597500D02*
X10207500Y-8637500D01*
X10207500Y-8747500D02*
X10247500Y-8787500D01*
X10247500Y-8747500D02*
X10207500Y-8787500D01*
X10230000Y-9255000D02*
X10270000Y-9295000D01*
X10270000Y-9255000D02*
X10230000Y-9295000D01*
X10230000Y-9355000D02*
X10270000Y-9395000D01*
X10270000Y-9355000D02*
X10230000Y-9395000D01*
X10230000Y-9455000D02*
X10270000Y-9495000D01*
X10270000Y-9455000D02*
X10230000Y-9495000D01*
X10230000Y-9555000D02*
X10270000Y-9595000D01*
X10270000Y-9555000D02*
X10230000Y-9595000D01*
X10257500Y-8522500D02*
X10297500Y-8562500D01*
X10297500Y-8522500D02*
X10257500Y-8562500D01*
X10257500Y-8672500D02*
X10297500Y-8712500D01*
X10297500Y-8672500D02*
X10257500Y-8712500D01*
X10257500Y-8822500D02*
X10297500Y-8862500D01*
X10297500Y-8822500D02*
X10257500Y-8862500D01*
X10307500Y-8597500D02*
X10347500Y-8637500D01*
X10347500Y-8597500D02*
X10307500Y-8637500D01*
X10307500Y-8747500D02*
X10347500Y-8787500D01*
X10347500Y-8747500D02*
X10307500Y-8787500D01*
X10330000Y-9255000D02*
X10370000Y-9295000D01*
X10370000Y-9255000D02*
X10330000Y-9295000D01*
X10330000Y-9355000D02*
X10370000Y-9395000D01*
X10370000Y-9355000D02*
X10330000Y-9395000D01*
X10330000Y-9455000D02*
X10370000Y-9495000D01*
X10370000Y-9455000D02*
X10330000Y-9495000D01*
X10330000Y-9555000D02*
X10370000Y-9595000D01*
X10370000Y-9555000D02*
X10330000Y-9595000D01*
X10357500Y-8522500D02*
X10397500Y-8562500D01*
X10397500Y-8522500D02*
X10357500Y-8562500D01*
X10357500Y-8672500D02*
X10397500Y-8712500D01*
X10397500Y-8672500D02*
X10357500Y-8712500D01*
X10357500Y-8822500D02*
X10397500Y-8862500D01*
X10397500Y-8822500D02*
X10357500Y-8862500D01*
X10407500Y-8597500D02*
X10447500Y-8637500D01*
X10447500Y-8597500D02*
X10407500Y-8637500D01*
X10407500Y-8747500D02*
X10447500Y-8787500D01*
X10447500Y-8747500D02*
X10407500Y-8787500D01*
X10430000Y-9255000D02*
X10470000Y-9295000D01*
X10470000Y-9255000D02*
X10430000Y-9295000D01*
X10430000Y-9355000D02*
X10470000Y-9395000D01*
X10470000Y-9355000D02*
X10430000Y-9395000D01*
X10430000Y-9455000D02*
X10470000Y-9495000D01*
X10470000Y-9455000D02*
X10430000Y-9495000D01*
X10430000Y-9555000D02*
X10470000Y-9595000D01*
X10470000Y-9555000D02*
X10430000Y-9595000D01*
X10457500Y-8522500D02*
X10497500Y-8562500D01*
X10497500Y-8522500D02*
X10457500Y-8562500D01*
X10457500Y-8672500D02*
X10497500Y-8712500D01*
X10497500Y-8672500D02*
X10457500Y-8712500D01*
X10457500Y-8822500D02*
X10497500Y-8862500D01*
X10497500Y-8822500D02*
X10457500Y-8862500D01*
X10507500Y-8597500D02*
X10547500Y-8637500D01*
X10547500Y-8597500D02*
X10507500Y-8637500D01*
X10507500Y-8747500D02*
X10547500Y-8787500D01*
X10547500Y-8747500D02*
X10507500Y-8787500D01*
X10530000Y-9255000D02*
X10570000Y-9295000D01*
X10570000Y-9255000D02*
X10530000Y-9295000D01*
X10530000Y-9355000D02*
X10570000Y-9395000D01*
X10570000Y-9355000D02*
X10530000Y-9395000D01*
X10530000Y-9455000D02*
X10570000Y-9495000D01*
X10570000Y-9455000D02*
X10530000Y-9495000D01*
X10530000Y-9555000D02*
X10570000Y-9595000D01*
X10570000Y-9555000D02*
X10530000Y-9595000D01*
X10557500Y-8522500D02*
X10597500Y-8562500D01*
X10597500Y-8522500D02*
X10557500Y-8562500D01*
X10557500Y-8672500D02*
X10597500Y-8712500D01*
X10597500Y-8672500D02*
X10557500Y-8712500D01*
X10557500Y-8822500D02*
X10597500Y-8862500D01*
X10597500Y-8822500D02*
X10557500Y-8862500D01*
X10680000Y-11905000D02*
X10720000Y-11945000D01*
X10720000Y-11905000D02*
X10680000Y-11945000D01*
X10680000Y-12005000D02*
X10720000Y-12045000D01*
X10720000Y-12005000D02*
X10680000Y-12045000D01*
X10680000Y-12105000D02*
X10720000Y-12145000D01*
X10720000Y-12105000D02*
X10680000Y-12145000D01*
X10680000Y-12205000D02*
X10720000Y-12245000D01*
X10720000Y-12205000D02*
X10680000Y-12245000D01*
X10780000Y-11905000D02*
X10820000Y-11945000D01*
X10820000Y-11905000D02*
X10780000Y-11945000D01*
X10780000Y-12005000D02*
X10820000Y-12045000D01*
X10820000Y-12005000D02*
X10780000Y-12045000D01*
X10780000Y-12105000D02*
X10820000Y-12145000D01*
X10820000Y-12105000D02*
X10780000Y-12145000D01*
X10780000Y-12205000D02*
X10820000Y-12245000D01*
X10820000Y-12205000D02*
X10780000Y-12245000D01*
X10820000Y-10290000D02*
X10860000Y-10330000D01*
X10860000Y-10290000D02*
X10820000Y-10330000D01*
X10880000Y-11905000D02*
X10920000Y-11945000D01*
X10920000Y-11905000D02*
X10880000Y-11945000D01*
X10880000Y-12005000D02*
X10920000Y-12045000D01*
X10920000Y-12005000D02*
X10880000Y-12045000D01*
X10880000Y-12105000D02*
X10920000Y-12145000D01*
X10920000Y-12105000D02*
X10880000Y-12145000D01*
X10880000Y-12205000D02*
X10920000Y-12245000D01*
X10920000Y-12205000D02*
X10880000Y-12245000D01*
X10980000Y-11905000D02*
X11020000Y-11945000D01*
X11020000Y-11905000D02*
X10980000Y-11945000D01*
X10980000Y-12005000D02*
X11020000Y-12045000D01*
X11020000Y-12005000D02*
X10980000Y-12045000D01*
X10980000Y-12105000D02*
X11020000Y-12145000D01*
X11020000Y-12105000D02*
X10980000Y-12145000D01*
X10980000Y-12205000D02*
X11020000Y-12245000D01*
X11020000Y-12205000D02*
X10980000Y-12245000D01*
X11001000Y-8685500D02*
X11041000Y-8725500D01*
X11041000Y-8685500D02*
X11001000Y-8725500D01*
X11080000Y-11905000D02*
X11120000Y-11945000D01*
X11120000Y-11905000D02*
X11080000Y-11945000D01*
X11080000Y-12005000D02*
X11120000Y-12045000D01*
X11120000Y-12005000D02*
X11080000Y-12045000D01*
X11080000Y-12105000D02*
X11120000Y-12145000D01*
X11120000Y-12105000D02*
X11080000Y-12145000D01*
X11080000Y-12205000D02*
X11120000Y-12245000D01*
X11120000Y-12205000D02*
X11080000Y-12245000D01*
X11121000Y-8685500D02*
X11161000Y-8725500D01*
X11161000Y-8685500D02*
X11121000Y-8725500D01*
X11170000Y-10340000D02*
X11210000Y-10380000D01*
X11210000Y-10340000D02*
X11170000Y-10380000D01*
X11250000Y-10070000D02*
X11290000Y-10110000D01*
X11290000Y-10070000D02*
X11250000Y-10110000D01*
X11250000Y-10565000D02*
X11290000Y-10605000D01*
X11290000Y-10565000D02*
X11250000Y-10605000D01*
X11256000Y-9700500D02*
X11296000Y-9740500D01*
X11296000Y-9700500D02*
X11256000Y-9740500D01*
X11381000Y-8715500D02*
X11421000Y-8755500D01*
X11421000Y-8715500D02*
X11381000Y-8755500D01*
X11406000Y-9700500D02*
X11446000Y-9740500D01*
X11446000Y-9700500D02*
X11406000Y-9740500D01*
X11511000Y-9200550D02*
X11551000Y-9240550D01*
X11551000Y-9200550D02*
X11511000Y-9240550D01*
X11947500Y-10175000D02*
X11987500Y-10215000D01*
X11987500Y-10175000D02*
X11947500Y-10215000D01*
X11955000Y-8080000D02*
X11995000Y-8120000D01*
X11995000Y-8080000D02*
X11955000Y-8120000D01*
X11955000Y-8180000D02*
X11995000Y-8220000D01*
X11995000Y-8180000D02*
X11955000Y-8220000D01*
X11955000Y-8280000D02*
X11995000Y-8320000D01*
X11995000Y-8280000D02*
X11955000Y-8320000D01*
X11955000Y-8380000D02*
X11995000Y-8420000D01*
X11995000Y-8380000D02*
X11955000Y-8420000D01*
X12045000Y-9390000D02*
X12085000Y-9430000D01*
X12085000Y-9390000D02*
X12045000Y-9430000D01*
X12045000Y-9490000D02*
X12085000Y-9530000D01*
X12085000Y-9490000D02*
X12045000Y-9530000D01*
X12045000Y-9590000D02*
X12085000Y-9630000D01*
X12085000Y-9590000D02*
X12045000Y-9630000D01*
X12045000Y-9690000D02*
X12085000Y-9730000D01*
X12085000Y-9690000D02*
X12045000Y-9730000D01*
X12055000Y-8080000D02*
X12095000Y-8120000D01*
X12095000Y-8080000D02*
X12055000Y-8120000D01*
X12055000Y-8180000D02*
X12095000Y-8220000D01*
X12095000Y-8180000D02*
X12055000Y-8220000D01*
X12055000Y-8280000D02*
X12095000Y-8320000D01*
X12095000Y-8280000D02*
X12055000Y-8320000D01*
X12055000Y-8380000D02*
X12095000Y-8420000D01*
X12095000Y-8380000D02*
X12055000Y-8420000D01*
X12057500Y-10872500D02*
X12097500Y-10912500D01*
X12097500Y-10872500D02*
X12057500Y-10912500D01*
X12107500Y-10172500D02*
X12147500Y-10212500D01*
X12147500Y-10172500D02*
X12107500Y-10212500D01*
X12145000Y-9390000D02*
X12185000Y-9430000D01*
X12185000Y-9390000D02*
X12145000Y-9430000D01*
X12145000Y-9490000D02*
X12185000Y-9530000D01*
X12185000Y-9490000D02*
X12145000Y-9530000D01*
X12145000Y-9590000D02*
X12185000Y-9630000D01*
X12185000Y-9590000D02*
X12145000Y-9630000D01*
X12145000Y-9690000D02*
X12185000Y-9730000D01*
X12185000Y-9690000D02*
X12145000Y-9730000D01*
X12155000Y-8080000D02*
X12195000Y-8120000D01*
X12195000Y-8080000D02*
X12155000Y-8120000D01*
X12155000Y-8180000D02*
X12195000Y-8220000D01*
X12195000Y-8180000D02*
X12155000Y-8220000D01*
X12155000Y-8280000D02*
X12195000Y-8320000D01*
X12195000Y-8280000D02*
X12155000Y-8320000D01*
X12155000Y-8380000D02*
X12195000Y-8420000D01*
X12195000Y-8380000D02*
X12155000Y-8420000D01*
X12157500Y-10247500D02*
X12197500Y-10287500D01*
X12197500Y-10247500D02*
X12157500Y-10287500D01*
X12157500Y-10872500D02*
X12197500Y-10912500D01*
X12197500Y-10872500D02*
X12157500Y-10912500D01*
X12207500Y-10172500D02*
X12247500Y-10212500D01*
X12247500Y-10172500D02*
X12207500Y-10212500D01*
X12245000Y-9390000D02*
X12285000Y-9430000D01*
X12285000Y-9390000D02*
X12245000Y-9430000D01*
X12245000Y-9490000D02*
X12285000Y-9530000D01*
X12285000Y-9490000D02*
X12245000Y-9530000D01*
X12245000Y-9590000D02*
X12285000Y-9630000D01*
X12285000Y-9590000D02*
X12245000Y-9630000D01*
X12245000Y-9690000D02*
X12285000Y-9730000D01*
X12285000Y-9690000D02*
X12245000Y-9730000D01*
X12255000Y-8080000D02*
X12295000Y-8120000D01*
X12295000Y-8080000D02*
X12255000Y-8120000D01*
X12255000Y-8180000D02*
X12295000Y-8220000D01*
X12295000Y-8180000D02*
X12255000Y-8220000D01*
X12255000Y-8280000D02*
X12295000Y-8320000D01*
X12295000Y-8280000D02*
X12255000Y-8320000D01*
X12255000Y-8380000D02*
X12295000Y-8420000D01*
X12295000Y-8380000D02*
X12255000Y-8420000D01*
X12257500Y-10872500D02*
X12297500Y-10912500D01*
X12297500Y-10872500D02*
X12257500Y-10912500D01*
X12345000Y-9390000D02*
X12385000Y-9430000D01*
X12385000Y-9390000D02*
X12345000Y-9430000D01*
X12345000Y-9490000D02*
X12385000Y-9530000D01*
X12385000Y-9490000D02*
X12345000Y-9530000D01*
X12345000Y-9590000D02*
X12385000Y-9630000D01*
X12385000Y-9590000D02*
X12345000Y-9630000D01*
X12345000Y-9690000D02*
X12385000Y-9730000D01*
X12385000Y-9690000D02*
X12345000Y-9730000D01*
X12355000Y-8080000D02*
X12395000Y-8120000D01*
X12395000Y-8080000D02*
X12355000Y-8120000D01*
X12355000Y-8180000D02*
X12395000Y-8220000D01*
X12395000Y-8180000D02*
X12355000Y-8220000D01*
X12355000Y-8280000D02*
X12395000Y-8320000D01*
X12395000Y-8280000D02*
X12355000Y-8320000D01*
X12355000Y-8380000D02*
X12395000Y-8420000D01*
X12395000Y-8380000D02*
X12355000Y-8420000D01*
X12555000Y-8672500D02*
X12595000Y-8712500D01*
X12595000Y-8672500D02*
X12555000Y-8712500D01*
X12557500Y-9022500D02*
X12597500Y-9062500D01*
X12597500Y-9022500D02*
X12557500Y-9062500D01*
X12657500Y-8672500D02*
X12697500Y-8712500D01*
X12697500Y-8672500D02*
X12657500Y-8712500D01*
X12657500Y-9022500D02*
X12697500Y-9062500D01*
X12697500Y-9022500D02*
X12657500Y-9062500D01*
X12742450Y-10222500D02*
X12782450Y-10262500D01*
X12782450Y-10222500D02*
X12742450Y-10262500D01*
X12757500Y-8672500D02*
X12797500Y-8712500D01*
X12797500Y-8672500D02*
X12757500Y-8712500D01*
X12757500Y-9022500D02*
X12797500Y-9062500D01*
X12797500Y-9022500D02*
X12757500Y-9062500D01*
X12782450Y-9972500D02*
X12822450Y-10012500D01*
X12822450Y-9972500D02*
X12782450Y-10012500D01*
X12832500Y-10747500D02*
X12872500Y-10787500D01*
X12872500Y-10747500D02*
X12832500Y-10787500D01*
X12982450Y-10472500D02*
X13022450Y-10512500D01*
X13022450Y-10472500D02*
X12982450Y-10512500D01*
X13082500Y-9647500D02*
X13122500Y-9687500D01*
X13122500Y-9647500D02*
X13082500Y-9687500D01*
X13082500Y-9747500D02*
X13122500Y-9787500D01*
X13122500Y-9747500D02*
X13082500Y-9787500D01*
X13082500Y-10747500D02*
X13122500Y-10787500D01*
X13122500Y-10747500D02*
X13082500Y-10787500D01*
X13132500Y-11750000D02*
X13172500Y-11790000D01*
X13172500Y-11750000D02*
X13132500Y-11790000D01*
X13155050Y-10022500D02*
X13195050Y-10062500D01*
X13195050Y-10022500D02*
X13155050Y-10062500D01*
X13282500Y-11097500D02*
X13322500Y-11137500D01*
X13322500Y-11097500D02*
X13282500Y-11137500D01*
X13357500Y-10372500D02*
X13397500Y-10412500D01*
X13397500Y-10372500D02*
X13357500Y-10412500D01*
X13357500Y-10472500D02*
X13397500Y-10512500D01*
X13397500Y-10472500D02*
X13357500Y-10512500D01*
X13382500Y-11097500D02*
X13422500Y-11137500D01*
X13422500Y-11097500D02*
X13382500Y-11137500D01*
X13457500Y-10122500D02*
X13497500Y-10162500D01*
X13497500Y-10122500D02*
X13457500Y-10162500D01*
X13457500Y-10372500D02*
X13497500Y-10412500D01*
X13497500Y-10372500D02*
X13457500Y-10412500D01*
X13457500Y-10472500D02*
X13497500Y-10512500D01*
X13497500Y-10472500D02*
X13457500Y-10512500D01*
X13482500Y-11097500D02*
X13522500Y-11137500D01*
X13522500Y-11097500D02*
X13482500Y-11137500D01*
X13557500Y-10372500D02*
X13597500Y-10412500D01*
X13597500Y-10372500D02*
X13557500Y-10412500D01*
X13557500Y-10472500D02*
X13597500Y-10512500D01*
X13597500Y-10472500D02*
X13557500Y-10512500D01*
X13582500Y-9522500D02*
X13622500Y-9562500D01*
X13622500Y-9522500D02*
X13582500Y-9562500D01*
X13582500Y-11097500D02*
X13622500Y-11137500D01*
X13622500Y-11097500D02*
X13582500Y-11137500D01*
X13590000Y-11257500D02*
X13630000Y-11297500D01*
X13630000Y-11257500D02*
X13590000Y-11297500D01*
X13605000Y-9022500D02*
X13645000Y-9062500D01*
X13645000Y-9022500D02*
X13605000Y-9062500D01*
X13628500Y-9268500D02*
X13668500Y-9308500D01*
X13668500Y-9268500D02*
X13628500Y-9308500D01*
X13632500Y-9122500D02*
X13672500Y-9162500D01*
X13672500Y-9122500D02*
X13632500Y-9162500D01*
X13632500Y-9397500D02*
X13672500Y-9437500D01*
X13672500Y-9397500D02*
X13632500Y-9437500D01*
X13657500Y-10372500D02*
X13697500Y-10412500D01*
X13697500Y-10372500D02*
X13657500Y-10412500D01*
X13657500Y-10472500D02*
X13697500Y-10512500D01*
X13697500Y-10472500D02*
X13657500Y-10512500D01*
X13757500Y-9775000D02*
X13797500Y-9815000D01*
X13797500Y-9775000D02*
X13757500Y-9815000D01*
X13857500Y-9897500D02*
X13897500Y-9937500D01*
X13897500Y-9897500D02*
X13857500Y-9937500D01*
X13932500Y-9547500D02*
X13972500Y-9587500D01*
X13972500Y-9547500D02*
X13932500Y-9587500D01*
X13957500Y-10522500D02*
X13997500Y-10562500D01*
X13997500Y-10522500D02*
X13957500Y-10562500D01*
X14007500Y-8397500D02*
X14047500Y-8437500D01*
X14047500Y-8397500D02*
X14007500Y-8437500D01*
X14007500Y-8497500D02*
X14047500Y-8537500D01*
X14047500Y-8497500D02*
X14007500Y-8537500D01*
X14007500Y-8597500D02*
X14047500Y-8637500D01*
X14047500Y-8597500D02*
X14007500Y-8637500D01*
X14007500Y-8697500D02*
X14047500Y-8737500D01*
X14047500Y-8697500D02*
X14007500Y-8737500D01*
X14082500Y-10997500D02*
X14122500Y-11037500D01*
X14122500Y-10997500D02*
X14082500Y-11037500D01*
X14107500Y-8397500D02*
X14147500Y-8437500D01*
X14147500Y-8397500D02*
X14107500Y-8437500D01*
X14107500Y-8497500D02*
X14147500Y-8537500D01*
X14147500Y-8497500D02*
X14107500Y-8537500D01*
X14107500Y-8597500D02*
X14147500Y-8637500D01*
X14147500Y-8597500D02*
X14107500Y-8637500D01*
X14107500Y-8697500D02*
X14147500Y-8737500D01*
X14147500Y-8697500D02*
X14107500Y-8737500D01*
X14132500Y-11072500D02*
X14172500Y-11112500D01*
X14172500Y-11072500D02*
X14132500Y-11112500D01*
X14182500Y-10997500D02*
X14222500Y-11037500D01*
X14222500Y-10997500D02*
X14182500Y-11037500D01*
X14207500Y-8397500D02*
X14247500Y-8437500D01*
X14247500Y-8397500D02*
X14207500Y-8437500D01*
X14207500Y-8497500D02*
X14247500Y-8537500D01*
X14247500Y-8497500D02*
X14207500Y-8537500D01*
X14207500Y-8597500D02*
X14247500Y-8637500D01*
X14247500Y-8597500D02*
X14207500Y-8637500D01*
X14207500Y-8697500D02*
X14247500Y-8737500D01*
X14247500Y-8697500D02*
X14207500Y-8737500D01*
X14207500Y-10522500D02*
X14247500Y-10562500D01*
X14247500Y-10522500D02*
X14207500Y-10562500D01*
X14232500Y-11072500D02*
X14272500Y-11112500D01*
X14272500Y-11072500D02*
X14232500Y-11112500D01*
X14282500Y-10997500D02*
X14322500Y-11037500D01*
X14322500Y-10997500D02*
X14282500Y-11037500D01*
X14307500Y-8397500D02*
X14347500Y-8437500D01*
X14347500Y-8397500D02*
X14307500Y-8437500D01*
X14307500Y-8497500D02*
X14347500Y-8537500D01*
X14347500Y-8497500D02*
X14307500Y-8537500D01*
X14307500Y-8597500D02*
X14347500Y-8637500D01*
X14347500Y-8597500D02*
X14307500Y-8637500D01*
X14307500Y-8697500D02*
X14347500Y-8737500D01*
X14347500Y-8697500D02*
X14307500Y-8737500D01*
X14332500Y-11072500D02*
X14372500Y-11112500D01*
X14372500Y-11072500D02*
X14332500Y-11112500D01*
X14382500Y-10997500D02*
X14422500Y-11037500D01*
X14422500Y-10997500D02*
X14382500Y-11037500D01*
X14382500Y-11197500D02*
X14422500Y-11237500D01*
X14422500Y-11197500D02*
X14382500Y-11237500D01*
X14407500Y-8397500D02*
X14447500Y-8437500D01*
X14447500Y-8397500D02*
X14407500Y-8437500D01*
X14407500Y-8497500D02*
X14447500Y-8537500D01*
X14447500Y-8497500D02*
X14407500Y-8537500D01*
X14407500Y-8597500D02*
X14447500Y-8637500D01*
X14447500Y-8597500D02*
X14407500Y-8637500D01*
X14407500Y-8697500D02*
X14447500Y-8737500D01*
X14447500Y-8697500D02*
X14407500Y-8737500D01*
X14432500Y-11072500D02*
X14472500Y-11112500D01*
X14472500Y-11072500D02*
X14432500Y-11112500D01*
X14457500Y-10522500D02*
X14497500Y-10562500D01*
X14497500Y-10522500D02*
X14457500Y-10562500D01*
X14482500Y-10997500D02*
X14522500Y-11037500D01*
X14522500Y-10997500D02*
X14482500Y-11037500D01*
X14507500Y-11422500D02*
X14547500Y-11462500D01*
X14547500Y-11422500D02*
X14507500Y-11462500D01*
X14732500Y-10522500D02*
X14772500Y-10562500D01*
X14772500Y-10522500D02*
X14732500Y-10562500D01*
X14740000Y-9970550D02*
X14780000Y-10010550D01*
X14780000Y-9970550D02*
X14740000Y-10010550D01*
X14749050Y-11281161D02*
X14789050Y-11321161D01*
X14789050Y-11281161D02*
X14749050Y-11321161D01*
X14957500Y-10822500D02*
X14997500Y-10862500D01*
X14997500Y-10822500D02*
X14957500Y-10862500D01*
X14982500Y-11397500D02*
X15022500Y-11437500D01*
X15022500Y-11397500D02*
X14982500Y-11437500D01*
X15082500Y-11197500D02*
X15122500Y-11237500D01*
X15122500Y-11197500D02*
X15082500Y-11237500D01*
X15232500Y-10172500D02*
X15272500Y-10212500D01*
X15272500Y-10172500D02*
X15232500Y-10212500D01*
X15310000Y-8885000D02*
X15350000Y-8925000D01*
X15350000Y-8885000D02*
X15310000Y-8925000D01*
X15320000Y-8770000D02*
X15360000Y-8810000D01*
X15360000Y-8770000D02*
X15320000Y-8810000D01*
X15332500Y-10172500D02*
X15372500Y-10212500D01*
X15372500Y-10172500D02*
X15332500Y-10212500D01*
X15432500Y-10172500D02*
X15472500Y-10212500D01*
X15472500Y-10172500D02*
X15432500Y-10212500D01*
X15500000Y-11197500D02*
X15540000Y-11237500D01*
X15540000Y-11197500D02*
X15500000Y-11237500D01*
X15502500Y-10285000D02*
X15542500Y-10325000D01*
X15542500Y-10285000D02*
X15502500Y-10325000D01*
X15577500Y-10367500D02*
X15617500Y-10407500D01*
X15617500Y-10367500D02*
X15577500Y-10407500D01*
X15595000Y-11072500D02*
X15635000Y-11112500D01*
X15635000Y-11072500D02*
X15595000Y-11112500D01*
X15930000Y-11880000D02*
X15970000Y-11920000D01*
X15970000Y-11880000D02*
X15930000Y-11920000D01*
X15930000Y-11980000D02*
X15970000Y-12020000D01*
X15970000Y-11980000D02*
X15930000Y-12020000D01*
X15930000Y-12080000D02*
X15970000Y-12120000D01*
X15970000Y-12080000D02*
X15930000Y-12120000D01*
X15930000Y-12180000D02*
X15970000Y-12220000D01*
X15970000Y-12180000D02*
X15930000Y-12220000D01*
X16007500Y-11122500D02*
X16047500Y-11162500D01*
X16047500Y-11122500D02*
X16007500Y-11162500D01*
X16007500Y-11247500D02*
X16047500Y-11287500D01*
X16047500Y-11247500D02*
X16007500Y-11287500D01*
X16007500Y-11347500D02*
X16047500Y-11387500D01*
X16047500Y-11347500D02*
X16007500Y-11387500D01*
X16030000Y-11880000D02*
X16070000Y-11920000D01*
X16070000Y-11880000D02*
X16030000Y-11920000D01*
X16030000Y-11980000D02*
X16070000Y-12020000D01*
X16070000Y-11980000D02*
X16030000Y-12020000D01*
X16030000Y-12080000D02*
X16070000Y-12120000D01*
X16070000Y-12080000D02*
X16030000Y-12120000D01*
X16030000Y-12180000D02*
X16070000Y-12220000D01*
X16070000Y-12180000D02*
X16030000Y-12220000D01*
X16032500Y-9810000D02*
X16072500Y-9850000D01*
X16072500Y-9810000D02*
X16032500Y-9850000D01*
X16037500Y-9940000D02*
X16077500Y-9980000D01*
X16077500Y-9940000D02*
X16037500Y-9980000D01*
X16130000Y-11880000D02*
X16170000Y-11920000D01*
X16170000Y-11880000D02*
X16130000Y-11920000D01*
X16130000Y-11980000D02*
X16170000Y-12020000D01*
X16170000Y-11980000D02*
X16130000Y-12020000D01*
X16130000Y-12080000D02*
X16170000Y-12120000D01*
X16170000Y-12080000D02*
X16130000Y-12120000D01*
X16130000Y-12180000D02*
X16170000Y-12220000D01*
X16170000Y-12180000D02*
X16130000Y-12220000D01*
X16132500Y-11122500D02*
X16172500Y-11162500D01*
X16172500Y-11122500D02*
X16132500Y-11162500D01*
X16132500Y-11247500D02*
X16172500Y-11287500D01*
X16172500Y-11247500D02*
X16132500Y-11287500D01*
X16132500Y-11347500D02*
X16172500Y-11387500D01*
X16172500Y-11347500D02*
X16132500Y-11387500D01*
X16230000Y-11880000D02*
X16270000Y-11920000D01*
X16270000Y-11880000D02*
X16230000Y-11920000D01*
X16230000Y-11980000D02*
X16270000Y-12020000D01*
X16270000Y-11980000D02*
X16230000Y-12020000D01*
X16230000Y-12080000D02*
X16270000Y-12120000D01*
X16270000Y-12080000D02*
X16230000Y-12120000D01*
X16230000Y-12180000D02*
X16270000Y-12220000D01*
X16270000Y-12180000D02*
X16230000Y-12220000D01*
X16255000Y-8930000D02*
X16295000Y-8970000D01*
X16295000Y-8930000D02*
X16255000Y-8970000D01*
X16255000Y-9030000D02*
X16295000Y-9070000D01*
X16295000Y-9030000D02*
X16255000Y-9070000D01*
X16255000Y-9130000D02*
X16295000Y-9170000D01*
X16295000Y-9130000D02*
X16255000Y-9170000D01*
X16255000Y-9230000D02*
X16295000Y-9270000D01*
X16295000Y-9230000D02*
X16255000Y-9270000D01*
X16330000Y-11880000D02*
X16370000Y-11920000D01*
X16370000Y-11880000D02*
X16330000Y-11920000D01*
X16330000Y-11980000D02*
X16370000Y-12020000D01*
X16370000Y-11980000D02*
X16330000Y-12020000D01*
X16330000Y-12080000D02*
X16370000Y-12120000D01*
X16370000Y-12080000D02*
X16330000Y-12120000D01*
X16330000Y-12180000D02*
X16370000Y-12220000D01*
X16370000Y-12180000D02*
X16330000Y-12220000D01*
X16355000Y-8930000D02*
X16395000Y-8970000D01*
X16395000Y-8930000D02*
X16355000Y-8970000D01*
X16355000Y-9030000D02*
X16395000Y-9070000D01*
X16395000Y-9030000D02*
X16355000Y-9070000D01*
X16355000Y-9130000D02*
X16395000Y-9170000D01*
X16395000Y-9130000D02*
X16355000Y-9170000D01*
X16355000Y-9230000D02*
X16395000Y-9270000D01*
X16395000Y-9230000D02*
X16355000Y-9270000D01*
X16455000Y-8930000D02*
X16495000Y-8970000D01*
X16495000Y-8930000D02*
X16455000Y-8970000D01*
X16455000Y-9030000D02*
X16495000Y-9070000D01*
X16495000Y-9030000D02*
X16455000Y-9070000D01*
X16455000Y-9130000D02*
X16495000Y-9170000D01*
X16495000Y-9130000D02*
X16455000Y-9170000D01*
X16455000Y-9230000D02*
X16495000Y-9270000D01*
X16495000Y-9230000D02*
X16455000Y-9270000D01*
X16555000Y-8930000D02*
X16595000Y-8970000D01*
X16595000Y-8930000D02*
X16555000Y-8970000D01*
X16555000Y-9030000D02*
X16595000Y-9070000D01*
X16595000Y-9030000D02*
X16555000Y-9070000D01*
X16555000Y-9130000D02*
X16595000Y-9170000D01*
X16595000Y-9130000D02*
X16555000Y-9170000D01*
X16555000Y-9230000D02*
X16595000Y-9270000D01*
X16595000Y-9230000D02*
X16555000Y-9270000D01*
X16655000Y-8930000D02*
X16695000Y-8970000D01*
X16695000Y-8930000D02*
X16655000Y-8970000D01*
X16655000Y-9030000D02*
X16695000Y-9070000D01*
X16695000Y-9030000D02*
X16655000Y-9070000D01*
X16655000Y-9130000D02*
X16695000Y-9170000D01*
X16695000Y-9130000D02*
X16655000Y-9170000D01*
X16655000Y-9230000D02*
X16695000Y-9270000D01*
X16695000Y-9230000D02*
X16655000Y-9270000D01*
X16680000Y-7955000D02*
X16720000Y-7995000D01*
X16720000Y-7955000D02*
X16680000Y-7995000D01*
X16680000Y-8055000D02*
X16720000Y-8095000D01*
X16720000Y-8055000D02*
X16680000Y-8095000D01*
X16680000Y-8155000D02*
X16720000Y-8195000D01*
X16720000Y-8155000D02*
X16680000Y-8195000D01*
X16680000Y-8255000D02*
X16720000Y-8295000D01*
X16720000Y-8255000D02*
X16680000Y-8295000D01*
X16780000Y-7955000D02*
X16820000Y-7995000D01*
X16820000Y-7955000D02*
X16780000Y-7995000D01*
X16780000Y-8055000D02*
X16820000Y-8095000D01*
X16820000Y-8055000D02*
X16780000Y-8095000D01*
X16780000Y-8155000D02*
X16820000Y-8195000D01*
X16820000Y-8155000D02*
X16780000Y-8195000D01*
X16780000Y-8255000D02*
X16820000Y-8295000D01*
X16820000Y-8255000D02*
X16780000Y-8295000D01*
X16880000Y-7955000D02*
X16920000Y-7995000D01*
X16920000Y-7955000D02*
X16880000Y-7995000D01*
X16880000Y-8055000D02*
X16920000Y-8095000D01*
X16920000Y-8055000D02*
X16880000Y-8095000D01*
X16880000Y-8155000D02*
X16920000Y-8195000D01*
X16920000Y-8155000D02*
X16880000Y-8195000D01*
X16880000Y-8255000D02*
X16920000Y-8295000D01*
X16920000Y-8255000D02*
X16880000Y-8295000D01*
X16980000Y-7955000D02*
X17020000Y-7995000D01*
X17020000Y-7955000D02*
X16980000Y-7995000D01*
X16980000Y-8055000D02*
X17020000Y-8095000D01*
X17020000Y-8055000D02*
X16980000Y-8095000D01*
X16980000Y-8155000D02*
X17020000Y-8195000D01*
X17020000Y-8155000D02*
X16980000Y-8195000D01*
X16980000Y-8255000D02*
X17020000Y-8295000D01*
X17020000Y-8255000D02*
X16980000Y-8295000D01*
X17039000Y-10987000D02*
X17079000Y-11027000D01*
X17079000Y-10987000D02*
X17039000Y-11027000D01*
X17051550Y-10812000D02*
X17091550Y-10852000D01*
X17091550Y-10812000D02*
X17051550Y-10852000D01*
X17080000Y-7955000D02*
X17120000Y-7995000D01*
X17120000Y-7955000D02*
X17080000Y-7995000D01*
X17080000Y-8055000D02*
X17120000Y-8095000D01*
X17120000Y-8055000D02*
X17080000Y-8095000D01*
X17080000Y-8155000D02*
X17120000Y-8195000D01*
X17120000Y-8155000D02*
X17080000Y-8195000D01*
X17080000Y-8255000D02*
X17120000Y-8295000D01*
X17120000Y-8255000D02*
X17080000Y-8295000D01*
X17095000Y-9701250D02*
X17135000Y-9741250D01*
X17135000Y-9701250D02*
X17095000Y-9741250D01*
X17152550Y-9510000D02*
X17192550Y-9550000D01*
X17192550Y-9510000D02*
X17152550Y-9550000D01*
X17332500Y-9872500D02*
X17372500Y-9912500D01*
X17372500Y-9872500D02*
X17332500Y-9912500D01*
X17332500Y-10022500D02*
X17372500Y-10062500D01*
X17372500Y-10022500D02*
X17332500Y-10062500D01*
X17382500Y-9797500D02*
X17422500Y-9837500D01*
X17422500Y-9797500D02*
X17382500Y-9837500D01*
X17382500Y-9947500D02*
X17422500Y-9987500D01*
X17422500Y-9947500D02*
X17382500Y-9987500D01*
X17382500Y-10097500D02*
X17422500Y-10137500D01*
X17422500Y-10097500D02*
X17382500Y-10137500D01*
X17430000Y-10855000D02*
X17470000Y-10895000D01*
X17470000Y-10855000D02*
X17430000Y-10895000D01*
X17430000Y-10955000D02*
X17470000Y-10995000D01*
X17470000Y-10955000D02*
X17430000Y-10995000D01*
X17430000Y-11055000D02*
X17470000Y-11095000D01*
X17470000Y-11055000D02*
X17430000Y-11095000D01*
X17430000Y-11155000D02*
X17470000Y-11195000D01*
X17470000Y-11155000D02*
X17430000Y-11195000D01*
X17432500Y-9872500D02*
X17472500Y-9912500D01*
X17472500Y-9872500D02*
X17432500Y-9912500D01*
X17432500Y-10022500D02*
X17472500Y-10062500D01*
X17472500Y-10022500D02*
X17432500Y-10062500D01*
X17482500Y-9797500D02*
X17522500Y-9837500D01*
X17522500Y-9797500D02*
X17482500Y-9837500D01*
X17482500Y-9947500D02*
X17522500Y-9987500D01*
X17522500Y-9947500D02*
X17482500Y-9987500D01*
X17482500Y-10097500D02*
X17522500Y-10137500D01*
X17522500Y-10097500D02*
X17482500Y-10137500D01*
X17530000Y-10855000D02*
X17570000Y-10895000D01*
X17570000Y-10855000D02*
X17530000Y-10895000D01*
X17530000Y-10955000D02*
X17570000Y-10995000D01*
X17570000Y-10955000D02*
X17530000Y-10995000D01*
X17530000Y-11055000D02*
X17570000Y-11095000D01*
X17570000Y-11055000D02*
X17530000Y-11095000D01*
X17530000Y-11155000D02*
X17570000Y-11195000D01*
X17570000Y-11155000D02*
X17530000Y-11195000D01*
X17532500Y-9872500D02*
X17572500Y-9912500D01*
X17572500Y-9872500D02*
X17532500Y-9912500D01*
X17532500Y-10022500D02*
X17572500Y-10062500D01*
X17572500Y-10022500D02*
X17532500Y-10062500D01*
X17582500Y-9797500D02*
X17622500Y-9837500D01*
X17622500Y-9797500D02*
X17582500Y-9837500D01*
X17582500Y-9947500D02*
X17622500Y-9987500D01*
X17622500Y-9947500D02*
X17582500Y-9987500D01*
X17582500Y-10097500D02*
X17622500Y-10137500D01*
X17622500Y-10097500D02*
X17582500Y-10137500D01*
X17630000Y-10855000D02*
X17670000Y-10895000D01*
X17670000Y-10855000D02*
X17630000Y-10895000D01*
X17630000Y-10955000D02*
X17670000Y-10995000D01*
X17670000Y-10955000D02*
X17630000Y-10995000D01*
X17630000Y-11055000D02*
X17670000Y-11095000D01*
X17670000Y-11055000D02*
X17630000Y-11095000D01*
X17630000Y-11155000D02*
X17670000Y-11195000D01*
X17670000Y-11155000D02*
X17630000Y-11195000D01*
X17632500Y-9872500D02*
X17672500Y-9912500D01*
X17672500Y-9872500D02*
X17632500Y-9912500D01*
X17632500Y-10022500D02*
X17672500Y-10062500D01*
X17672500Y-10022500D02*
X17632500Y-10062500D01*
X17730000Y-10855000D02*
X17770000Y-10895000D01*
X17770000Y-10855000D02*
X17730000Y-10895000D01*
X17730000Y-10955000D02*
X17770000Y-10995000D01*
X17770000Y-10955000D02*
X17730000Y-10995000D01*
X17730000Y-11055000D02*
X17770000Y-11095000D01*
X17770000Y-11055000D02*
X17730000Y-11095000D01*
X17730000Y-11155000D02*
X17770000Y-11195000D01*
X17770000Y-11155000D02*
X17730000Y-11195000D01*
X17830000Y-10855000D02*
X17870000Y-10895000D01*
X17870000Y-10855000D02*
X17830000Y-10895000D01*
X17830000Y-10955000D02*
X17870000Y-10995000D01*
X17870000Y-10955000D02*
X17830000Y-10995000D01*
X17830000Y-11055000D02*
X17870000Y-11095000D01*
X17870000Y-11055000D02*
X17830000Y-11095000D01*
X17830000Y-11155000D02*
X17870000Y-11195000D01*
X17870000Y-11155000D02*
X17830000Y-11195000D01*
X18030000Y-8380000D02*
X18070000Y-8420000D01*
X18070000Y-8380000D02*
X18030000Y-8420000D01*
X18030000Y-8480000D02*
X18070000Y-8520000D01*
X18070000Y-8480000D02*
X18030000Y-8520000D01*
X18030000Y-8580000D02*
X18070000Y-8620000D01*
X18070000Y-8580000D02*
X18030000Y-8620000D01*
X18030000Y-8680000D02*
X18070000Y-8720000D01*
X18070000Y-8680000D02*
X18030000Y-8720000D01*
X18130000Y-8380000D02*
X18170000Y-8420000D01*
X18170000Y-8380000D02*
X18130000Y-8420000D01*
X18130000Y-8480000D02*
X18170000Y-8520000D01*
X18170000Y-8480000D02*
X18130000Y-8520000D01*
X18130000Y-8580000D02*
X18170000Y-8620000D01*
X18170000Y-8580000D02*
X18130000Y-8620000D01*
X18130000Y-8680000D02*
X18170000Y-8720000D01*
X18170000Y-8680000D02*
X18130000Y-8720000D01*
X18180000Y-12230000D02*
X18220000Y-12270000D01*
X18220000Y-12230000D02*
X18180000Y-12270000D01*
X18180000Y-12330000D02*
X18220000Y-12370000D01*
X18220000Y-12330000D02*
X18180000Y-12370000D01*
X18180000Y-12430000D02*
X18220000Y-12470000D01*
X18220000Y-12430000D02*
X18180000Y-12470000D01*
X18180000Y-12530000D02*
X18220000Y-12570000D01*
X18220000Y-12530000D02*
X18180000Y-12570000D01*
X18230000Y-8380000D02*
X18270000Y-8420000D01*
X18270000Y-8380000D02*
X18230000Y-8420000D01*
X18230000Y-8480000D02*
X18270000Y-8520000D01*
X18270000Y-8480000D02*
X18230000Y-8520000D01*
X18230000Y-8580000D02*
X18270000Y-8620000D01*
X18270000Y-8580000D02*
X18230000Y-8620000D01*
X18230000Y-8680000D02*
X18270000Y-8720000D01*
X18270000Y-8680000D02*
X18230000Y-8720000D01*
X18280000Y-12230000D02*
X18320000Y-12270000D01*
X18320000Y-12230000D02*
X18280000Y-12270000D01*
X18280000Y-12330000D02*
X18320000Y-12370000D01*
X18320000Y-12330000D02*
X18280000Y-12370000D01*
X18280000Y-12430000D02*
X18320000Y-12470000D01*
X18320000Y-12430000D02*
X18280000Y-12470000D01*
X18280000Y-12530000D02*
X18320000Y-12570000D01*
X18320000Y-12530000D02*
X18280000Y-12570000D01*
X18330000Y-8380000D02*
X18370000Y-8420000D01*
X18370000Y-8380000D02*
X18330000Y-8420000D01*
X18330000Y-8480000D02*
X18370000Y-8520000D01*
X18370000Y-8480000D02*
X18330000Y-8520000D01*
X18330000Y-8580000D02*
X18370000Y-8620000D01*
X18370000Y-8580000D02*
X18330000Y-8620000D01*
X18330000Y-8680000D02*
X18370000Y-8720000D01*
X18370000Y-8680000D02*
X18330000Y-8720000D01*
X18380000Y-12230000D02*
X18420000Y-12270000D01*
X18420000Y-12230000D02*
X18380000Y-12270000D01*
X18380000Y-12330000D02*
X18420000Y-12370000D01*
X18420000Y-12330000D02*
X18380000Y-12370000D01*
X18380000Y-12430000D02*
X18420000Y-12470000D01*
X18420000Y-12430000D02*
X18380000Y-12470000D01*
X18380000Y-12530000D02*
X18420000Y-12570000D01*
X18420000Y-12530000D02*
X18380000Y-12570000D01*
X18430000Y-8380000D02*
X18470000Y-8420000D01*
X18470000Y-8380000D02*
X18430000Y-8420000D01*
X18430000Y-8480000D02*
X18470000Y-8520000D01*
X18470000Y-8480000D02*
X18430000Y-8520000D01*
X18430000Y-8580000D02*
X18470000Y-8620000D01*
X18470000Y-8580000D02*
X18430000Y-8620000D01*
X18430000Y-8680000D02*
X18470000Y-8720000D01*
X18470000Y-8680000D02*
X18430000Y-8720000D01*
X18480000Y-12230000D02*
X18520000Y-12270000D01*
X18520000Y-12230000D02*
X18480000Y-12270000D01*
X18480000Y-12330000D02*
X18520000Y-12370000D01*
X18520000Y-12330000D02*
X18480000Y-12370000D01*
X18480000Y-12430000D02*
X18520000Y-12470000D01*
X18520000Y-12430000D02*
X18480000Y-12470000D01*
X18480000Y-12530000D02*
X18520000Y-12570000D01*
X18520000Y-12530000D02*
X18480000Y-12570000D01*
X18580000Y-12230000D02*
X18620000Y-12270000D01*
X18620000Y-12230000D02*
X18580000Y-12270000D01*
X18580000Y-12330000D02*
X18620000Y-12370000D01*
X18620000Y-12330000D02*
X18580000Y-12370000D01*
X18580000Y-12430000D02*
X18620000Y-12470000D01*
X18620000Y-12430000D02*
X18580000Y-12470000D01*
X18580000Y-12530000D02*
X18620000Y-12570000D01*
X18620000Y-12530000D02*
X18580000Y-12570000D01*
D13*
X10545000Y-9904000D02*
G75*
G03*
X10545000Y-9904000I-30000J0D01*
G01*
D11*
X10545000Y-9874000D02*
X10485000Y-9874000D01*
X10485000Y-9874000D02*
G75*
G03*
X10485000Y-9934000I0J-30000D01*
G01*
X10485000Y-9934000D02*
X10545000Y-9934000D01*
X10545000Y-9934000D02*
G75*
G03*
X10545000Y-9874000I0J30000D01*
G01*
D13*
X10545000Y-10768000D02*
G75*
G03*
X10545000Y-10768000I-30000J0D01*
G01*
D11*
X10545000Y-10738000D02*
X10485000Y-10738000D01*
X10485000Y-10738000D02*
G75*
G03*
X10485000Y-10798000I0J-30000D01*
G01*
X10485000Y-10798000D02*
X10545000Y-10798000D01*
X10545000Y-10798000D02*
G75*
G03*
X10545000Y-10738000I0J30000D01*
G01*
D13*
X10963000Y-9904000D02*
G75*
G03*
X10963000Y-9904000I-30000J0D01*
G01*
D11*
X10988000Y-9874000D02*
X10878000Y-9874000D01*
X10878000Y-9874000D02*
G75*
G03*
X10878000Y-9934000I0J-30000D01*
G01*
X10878000Y-9934000D02*
X10988000Y-9934000D01*
X10988000Y-9934000D02*
G75*
G03*
X10988000Y-9874000I0J30000D01*
G01*
D13*
X10963000Y-10768000D02*
G75*
G03*
X10963000Y-10768000I-30000J0D01*
G01*
D11*
X10988000Y-10738000D02*
X10878000Y-10738000D01*
X10878000Y-10738000D02*
G75*
G03*
X10878000Y-10798000I0J-30000D01*
G01*
X10878000Y-10798000D02*
X10988000Y-10798000D01*
X10988000Y-10798000D02*
G75*
G03*
X10988000Y-10738000I0J30000D01*
G01*
D14*
X10896000Y-11273500D02*
X10896000Y-11348500D01*
X10858500Y-11311000D02*
X10933500Y-11311000D01*
X10896000Y-11473500D02*
X10896000Y-11548500D01*
X10858500Y-11511000D02*
X10933500Y-11511000D01*
X18165000Y-9808000D02*
X18165000Y-9883000D01*
X18127500Y-9845500D02*
X18202500Y-9845500D01*
X18165000Y-10008000D02*
X18165000Y-10083000D01*
X18127500Y-10045500D02*
X18202500Y-10045500D01*
X18165000Y-10208000D02*
X18165000Y-10283000D01*
X18127500Y-10245500D02*
X18202500Y-10245500D01*
X18165000Y-10408000D02*
X18165000Y-10483000D01*
X18127500Y-10445500D02*
X18202500Y-10445500D01*
X18165000Y-11052500D02*
X18165000Y-11127500D01*
X18127500Y-11090000D02*
X18202500Y-11090000D01*
X18165000Y-11252500D02*
X18165000Y-11327500D01*
X18127500Y-11290000D02*
X18202500Y-11290000D01*
X18165000Y-11452500D02*
X18165000Y-11527500D01*
X18127500Y-11490000D02*
X18202500Y-11490000D01*
X18165000Y-11652500D02*
X18165000Y-11727500D01*
X18127500Y-11690000D02*
X18202500Y-11690000D01*
D11*
X10268295Y-13475667D02*
X10268295Y-13275667D01*
X10268295Y-13275667D02*
X10315914Y-13275667D01*
X10315914Y-13275667D02*
X10344485Y-13285191D01*
X10344485Y-13285191D02*
X10363533Y-13304238D01*
X10363533Y-13304238D02*
X10373056Y-13323286D01*
X10373056Y-13323286D02*
X10382580Y-13361381D01*
X10382580Y-13361381D02*
X10382580Y-13389953D01*
X10382580Y-13389953D02*
X10373056Y-13428048D01*
X10373056Y-13428048D02*
X10363533Y-13447095D01*
X10363533Y-13447095D02*
X10344485Y-13466143D01*
X10344485Y-13466143D02*
X10315914Y-13475667D01*
X10315914Y-13475667D02*
X10268295Y-13475667D01*
X10468295Y-13475667D02*
X10468295Y-13342334D01*
X10468295Y-13380429D02*
X10477818Y-13361381D01*
X10477818Y-13361381D02*
X10487342Y-13351857D01*
X10487342Y-13351857D02*
X10506390Y-13342334D01*
X10506390Y-13342334D02*
X10525437Y-13342334D01*
X10592104Y-13475667D02*
X10592104Y-13342334D01*
X10592104Y-13275667D02*
X10582580Y-13285191D01*
X10582580Y-13285191D02*
X10592104Y-13294715D01*
X10592104Y-13294715D02*
X10601628Y-13285191D01*
X10601628Y-13285191D02*
X10592104Y-13275667D01*
X10592104Y-13275667D02*
X10592104Y-13294715D01*
X10715914Y-13475667D02*
X10696866Y-13466143D01*
X10696866Y-13466143D02*
X10687342Y-13447095D01*
X10687342Y-13447095D02*
X10687342Y-13275667D01*
X10820675Y-13475667D02*
X10801628Y-13466143D01*
X10801628Y-13466143D02*
X10792104Y-13447095D01*
X10792104Y-13447095D02*
X10792104Y-13275667D01*
X11016866Y-13475667D02*
X11016866Y-13275667D01*
X11016866Y-13275667D02*
X11083533Y-13418524D01*
X11083533Y-13418524D02*
X11150199Y-13275667D01*
X11150199Y-13275667D02*
X11150199Y-13475667D01*
X11331152Y-13475667D02*
X11331152Y-13370905D01*
X11331152Y-13370905D02*
X11321628Y-13351857D01*
X11321628Y-13351857D02*
X11302580Y-13342334D01*
X11302580Y-13342334D02*
X11264485Y-13342334D01*
X11264485Y-13342334D02*
X11245437Y-13351857D01*
X11331152Y-13466143D02*
X11312104Y-13475667D01*
X11312104Y-13475667D02*
X11264485Y-13475667D01*
X11264485Y-13475667D02*
X11245437Y-13466143D01*
X11245437Y-13466143D02*
X11235913Y-13447095D01*
X11235913Y-13447095D02*
X11235913Y-13428048D01*
X11235913Y-13428048D02*
X11245437Y-13409000D01*
X11245437Y-13409000D02*
X11264485Y-13399476D01*
X11264485Y-13399476D02*
X11312104Y-13399476D01*
X11312104Y-13399476D02*
X11331152Y-13389953D01*
X11426390Y-13342334D02*
X11426390Y-13542334D01*
X11426390Y-13351857D02*
X11445437Y-13342334D01*
X11445437Y-13342334D02*
X11483533Y-13342334D01*
X11483533Y-13342334D02*
X11502580Y-13351857D01*
X11502580Y-13351857D02*
X11512104Y-13361381D01*
X11512104Y-13361381D02*
X11521628Y-13380429D01*
X11521628Y-13380429D02*
X11521628Y-13437572D01*
X11521628Y-13437572D02*
X11512104Y-13456619D01*
X11512104Y-13456619D02*
X11502580Y-13466143D01*
X11502580Y-13466143D02*
X11483533Y-13475667D01*
X11483533Y-13475667D02*
X11445437Y-13475667D01*
X11445437Y-13475667D02*
X11426390Y-13466143D01*
X11607342Y-13456619D02*
X11616866Y-13466143D01*
X11616866Y-13466143D02*
X11607342Y-13475667D01*
X11607342Y-13475667D02*
X11597818Y-13466143D01*
X11597818Y-13466143D02*
X11607342Y-13456619D01*
X11607342Y-13456619D02*
X11607342Y-13475667D01*
X11607342Y-13351857D02*
X11616866Y-13361381D01*
X11616866Y-13361381D02*
X11607342Y-13370905D01*
X11607342Y-13370905D02*
X11597818Y-13361381D01*
X11597818Y-13361381D02*
X11607342Y-13351857D01*
X11607342Y-13351857D02*
X11607342Y-13370905D01*
D12*
X9980676Y-13802191D02*
X10020676Y-13842191D01*
X10020676Y-13802191D02*
X9980676Y-13842191D01*
D11*
X10306390Y-13695667D02*
X10325437Y-13695667D01*
X10325437Y-13695667D02*
X10344485Y-13705191D01*
X10344485Y-13705191D02*
X10354009Y-13714715D01*
X10354009Y-13714715D02*
X10363533Y-13733762D01*
X10363533Y-13733762D02*
X10373056Y-13771857D01*
X10373056Y-13771857D02*
X10373056Y-13819476D01*
X10373056Y-13819476D02*
X10363533Y-13857572D01*
X10363533Y-13857572D02*
X10354009Y-13876619D01*
X10354009Y-13876619D02*
X10344485Y-13886143D01*
X10344485Y-13886143D02*
X10325437Y-13895667D01*
X10325437Y-13895667D02*
X10306390Y-13895667D01*
X10306390Y-13895667D02*
X10287342Y-13886143D01*
X10287342Y-13886143D02*
X10277818Y-13876619D01*
X10277818Y-13876619D02*
X10268295Y-13857572D01*
X10268295Y-13857572D02*
X10258771Y-13819476D01*
X10258771Y-13819476D02*
X10258771Y-13771857D01*
X10258771Y-13771857D02*
X10268295Y-13733762D01*
X10268295Y-13733762D02*
X10277818Y-13714715D01*
X10277818Y-13714715D02*
X10287342Y-13705191D01*
X10287342Y-13705191D02*
X10306390Y-13695667D01*
X10458771Y-13876619D02*
X10468295Y-13886143D01*
X10468295Y-13886143D02*
X10458771Y-13895667D01*
X10458771Y-13895667D02*
X10449247Y-13886143D01*
X10449247Y-13886143D02*
X10458771Y-13876619D01*
X10458771Y-13876619D02*
X10458771Y-13895667D01*
X10639723Y-13762334D02*
X10639723Y-13895667D01*
X10592104Y-13686143D02*
X10544485Y-13829000D01*
X10544485Y-13829000D02*
X10668295Y-13829000D01*
X10782580Y-13695667D02*
X10801628Y-13695667D01*
X10801628Y-13695667D02*
X10820676Y-13705191D01*
X10820676Y-13705191D02*
X10830199Y-13714715D01*
X10830199Y-13714715D02*
X10839723Y-13733762D01*
X10839723Y-13733762D02*
X10849247Y-13771857D01*
X10849247Y-13771857D02*
X10849247Y-13819476D01*
X10849247Y-13819476D02*
X10839723Y-13857572D01*
X10839723Y-13857572D02*
X10830199Y-13876619D01*
X10830199Y-13876619D02*
X10820676Y-13886143D01*
X10820676Y-13886143D02*
X10801628Y-13895667D01*
X10801628Y-13895667D02*
X10782580Y-13895667D01*
X10782580Y-13895667D02*
X10763533Y-13886143D01*
X10763533Y-13886143D02*
X10754009Y-13876619D01*
X10754009Y-13876619D02*
X10744485Y-13857572D01*
X10744485Y-13857572D02*
X10734961Y-13819476D01*
X10734961Y-13819476D02*
X10734961Y-13771857D01*
X10734961Y-13771857D02*
X10744485Y-13733762D01*
X10744485Y-13733762D02*
X10754009Y-13714715D01*
X10754009Y-13714715D02*
X10763533Y-13705191D01*
X10763533Y-13705191D02*
X10782580Y-13695667D01*
X10973056Y-13695667D02*
X10992104Y-13695667D01*
X10992104Y-13695667D02*
X11011152Y-13705191D01*
X11011152Y-13705191D02*
X11020676Y-13714715D01*
X11020676Y-13714715D02*
X11030199Y-13733762D01*
X11030199Y-13733762D02*
X11039723Y-13771857D01*
X11039723Y-13771857D02*
X11039723Y-13819476D01*
X11039723Y-13819476D02*
X11030199Y-13857572D01*
X11030199Y-13857572D02*
X11020676Y-13876619D01*
X11020676Y-13876619D02*
X11011152Y-13886143D01*
X11011152Y-13886143D02*
X10992104Y-13895667D01*
X10992104Y-13895667D02*
X10973056Y-13895667D01*
X10973056Y-13895667D02*
X10954009Y-13886143D01*
X10954009Y-13886143D02*
X10944485Y-13876619D01*
X10944485Y-13876619D02*
X10934961Y-13857572D01*
X10934961Y-13857572D02*
X10925437Y-13819476D01*
X10925437Y-13819476D02*
X10925437Y-13771857D01*
X10925437Y-13771857D02*
X10934961Y-13733762D01*
X10934961Y-13733762D02*
X10944485Y-13714715D01*
X10944485Y-13714715D02*
X10954009Y-13705191D01*
X10954009Y-13705191D02*
X10973056Y-13695667D01*
X11125437Y-13895667D02*
X11125437Y-13762334D01*
X11125437Y-13781381D02*
X11134961Y-13771857D01*
X11134961Y-13771857D02*
X11154009Y-13762334D01*
X11154009Y-13762334D02*
X11182580Y-13762334D01*
X11182580Y-13762334D02*
X11201628Y-13771857D01*
X11201628Y-13771857D02*
X11211152Y-13790905D01*
X11211152Y-13790905D02*
X11211152Y-13895667D01*
X11211152Y-13790905D02*
X11220675Y-13771857D01*
X11220675Y-13771857D02*
X11239723Y-13762334D01*
X11239723Y-13762334D02*
X11268294Y-13762334D01*
X11268294Y-13762334D02*
X11287342Y-13771857D01*
X11287342Y-13771857D02*
X11296866Y-13790905D01*
X11296866Y-13790905D02*
X11296866Y-13895667D01*
X11392104Y-13895667D02*
X11392104Y-13762334D01*
X11392104Y-13781381D02*
X11401628Y-13771857D01*
X11401628Y-13771857D02*
X11420675Y-13762334D01*
X11420675Y-13762334D02*
X11449247Y-13762334D01*
X11449247Y-13762334D02*
X11468295Y-13771857D01*
X11468295Y-13771857D02*
X11477818Y-13790905D01*
X11477818Y-13790905D02*
X11477818Y-13895667D01*
X11477818Y-13790905D02*
X11487342Y-13771857D01*
X11487342Y-13771857D02*
X11506390Y-13762334D01*
X11506390Y-13762334D02*
X11534961Y-13762334D01*
X11534961Y-13762334D02*
X11554009Y-13771857D01*
X11554009Y-13771857D02*
X11563533Y-13790905D01*
X11563533Y-13790905D02*
X11563533Y-13895667D01*
X11921628Y-13686143D02*
X11750199Y-13943286D01*
X12146390Y-13695667D02*
X12165437Y-13695667D01*
X12165437Y-13695667D02*
X12184485Y-13705191D01*
X12184485Y-13705191D02*
X12194009Y-13714715D01*
X12194009Y-13714715D02*
X12203533Y-13733762D01*
X12203533Y-13733762D02*
X12213056Y-13771857D01*
X12213056Y-13771857D02*
X12213056Y-13819476D01*
X12213056Y-13819476D02*
X12203533Y-13857572D01*
X12203533Y-13857572D02*
X12194009Y-13876619D01*
X12194009Y-13876619D02*
X12184485Y-13886143D01*
X12184485Y-13886143D02*
X12165437Y-13895667D01*
X12165437Y-13895667D02*
X12146390Y-13895667D01*
X12146390Y-13895667D02*
X12127342Y-13886143D01*
X12127342Y-13886143D02*
X12117818Y-13876619D01*
X12117818Y-13876619D02*
X12108295Y-13857572D01*
X12108295Y-13857572D02*
X12098771Y-13819476D01*
X12098771Y-13819476D02*
X12098771Y-13771857D01*
X12098771Y-13771857D02*
X12108295Y-13733762D01*
X12108295Y-13733762D02*
X12117818Y-13714715D01*
X12117818Y-13714715D02*
X12127342Y-13705191D01*
X12127342Y-13705191D02*
X12146390Y-13695667D01*
X12298771Y-13876619D02*
X12308295Y-13886143D01*
X12308295Y-13886143D02*
X12298771Y-13895667D01*
X12298771Y-13895667D02*
X12289247Y-13886143D01*
X12289247Y-13886143D02*
X12298771Y-13876619D01*
X12298771Y-13876619D02*
X12298771Y-13895667D01*
X12432104Y-13695667D02*
X12451152Y-13695667D01*
X12451152Y-13695667D02*
X12470199Y-13705191D01*
X12470199Y-13705191D02*
X12479723Y-13714715D01*
X12479723Y-13714715D02*
X12489247Y-13733762D01*
X12489247Y-13733762D02*
X12498771Y-13771857D01*
X12498771Y-13771857D02*
X12498771Y-13819476D01*
X12498771Y-13819476D02*
X12489247Y-13857572D01*
X12489247Y-13857572D02*
X12479723Y-13876619D01*
X12479723Y-13876619D02*
X12470199Y-13886143D01*
X12470199Y-13886143D02*
X12451152Y-13895667D01*
X12451152Y-13895667D02*
X12432104Y-13895667D01*
X12432104Y-13895667D02*
X12413056Y-13886143D01*
X12413056Y-13886143D02*
X12403533Y-13876619D01*
X12403533Y-13876619D02*
X12394009Y-13857572D01*
X12394009Y-13857572D02*
X12384485Y-13819476D01*
X12384485Y-13819476D02*
X12384485Y-13771857D01*
X12384485Y-13771857D02*
X12394009Y-13733762D01*
X12394009Y-13733762D02*
X12403533Y-13714715D01*
X12403533Y-13714715D02*
X12413056Y-13705191D01*
X12413056Y-13705191D02*
X12432104Y-13695667D01*
X12689247Y-13895667D02*
X12574961Y-13895667D01*
X12632104Y-13895667D02*
X12632104Y-13695667D01*
X12632104Y-13695667D02*
X12613056Y-13724238D01*
X12613056Y-13724238D02*
X12594009Y-13743286D01*
X12594009Y-13743286D02*
X12574961Y-13752810D01*
X12870199Y-13695667D02*
X12774961Y-13695667D01*
X12774961Y-13695667D02*
X12765437Y-13790905D01*
X12765437Y-13790905D02*
X12774961Y-13781381D01*
X12774961Y-13781381D02*
X12794009Y-13771857D01*
X12794009Y-13771857D02*
X12841628Y-13771857D01*
X12841628Y-13771857D02*
X12860676Y-13781381D01*
X12860676Y-13781381D02*
X12870199Y-13790905D01*
X12870199Y-13790905D02*
X12879723Y-13809953D01*
X12879723Y-13809953D02*
X12879723Y-13857572D01*
X12879723Y-13857572D02*
X12870199Y-13876619D01*
X12870199Y-13876619D02*
X12860676Y-13886143D01*
X12860676Y-13886143D02*
X12841628Y-13895667D01*
X12841628Y-13895667D02*
X12794009Y-13895667D01*
X12794009Y-13895667D02*
X12774961Y-13886143D01*
X12774961Y-13886143D02*
X12765437Y-13876619D01*
X12946390Y-13695667D02*
X13079723Y-13695667D01*
X13079723Y-13695667D02*
X12994009Y-13895667D01*
X13146390Y-13695667D02*
X13146390Y-13733762D01*
X13222580Y-13695667D02*
X13222580Y-13733762D01*
X13485438Y-13971857D02*
X13475914Y-13962334D01*
X13475914Y-13962334D02*
X13456866Y-13933762D01*
X13456866Y-13933762D02*
X13447342Y-13914715D01*
X13447342Y-13914715D02*
X13437818Y-13886143D01*
X13437818Y-13886143D02*
X13428295Y-13838524D01*
X13428295Y-13838524D02*
X13428295Y-13800429D01*
X13428295Y-13800429D02*
X13437818Y-13752810D01*
X13437818Y-13752810D02*
X13447342Y-13724238D01*
X13447342Y-13724238D02*
X13456866Y-13705191D01*
X13456866Y-13705191D02*
X13475914Y-13676619D01*
X13475914Y-13676619D02*
X13485438Y-13667095D01*
X13542580Y-13695667D02*
X13666390Y-13695667D01*
X13666390Y-13695667D02*
X13599723Y-13771857D01*
X13599723Y-13771857D02*
X13628295Y-13771857D01*
X13628295Y-13771857D02*
X13647342Y-13781381D01*
X13647342Y-13781381D02*
X13656866Y-13790905D01*
X13656866Y-13790905D02*
X13666390Y-13809953D01*
X13666390Y-13809953D02*
X13666390Y-13857572D01*
X13666390Y-13857572D02*
X13656866Y-13876619D01*
X13656866Y-13876619D02*
X13647342Y-13886143D01*
X13647342Y-13886143D02*
X13628295Y-13895667D01*
X13628295Y-13895667D02*
X13571152Y-13895667D01*
X13571152Y-13895667D02*
X13552104Y-13886143D01*
X13552104Y-13886143D02*
X13542580Y-13876619D01*
X13847342Y-13695667D02*
X13752104Y-13695667D01*
X13752104Y-13695667D02*
X13742580Y-13790905D01*
X13742580Y-13790905D02*
X13752104Y-13781381D01*
X13752104Y-13781381D02*
X13771152Y-13771857D01*
X13771152Y-13771857D02*
X13818771Y-13771857D01*
X13818771Y-13771857D02*
X13837818Y-13781381D01*
X13837818Y-13781381D02*
X13847342Y-13790905D01*
X13847342Y-13790905D02*
X13856866Y-13809953D01*
X13856866Y-13809953D02*
X13856866Y-13857572D01*
X13856866Y-13857572D02*
X13847342Y-13876619D01*
X13847342Y-13876619D02*
X13837818Y-13886143D01*
X13837818Y-13886143D02*
X13818771Y-13895667D01*
X13818771Y-13895667D02*
X13771152Y-13895667D01*
X13771152Y-13895667D02*
X13752104Y-13886143D01*
X13752104Y-13886143D02*
X13742580Y-13876619D01*
X14047342Y-13895667D02*
X13933057Y-13895667D01*
X13990199Y-13895667D02*
X13990199Y-13695667D01*
X13990199Y-13695667D02*
X13971152Y-13724238D01*
X13971152Y-13724238D02*
X13952104Y-13743286D01*
X13952104Y-13743286D02*
X13933057Y-13752810D01*
X14253057Y-13895667D02*
X14253057Y-13695667D01*
X14338771Y-13895667D02*
X14338771Y-13790905D01*
X14338771Y-13790905D02*
X14329247Y-13771857D01*
X14329247Y-13771857D02*
X14310199Y-13762334D01*
X14310199Y-13762334D02*
X14281628Y-13762334D01*
X14281628Y-13762334D02*
X14262580Y-13771857D01*
X14262580Y-13771857D02*
X14253057Y-13781381D01*
X14462580Y-13895667D02*
X14443533Y-13886143D01*
X14443533Y-13886143D02*
X14434009Y-13876619D01*
X14434009Y-13876619D02*
X14424485Y-13857572D01*
X14424485Y-13857572D02*
X14424485Y-13800429D01*
X14424485Y-13800429D02*
X14434009Y-13781381D01*
X14434009Y-13781381D02*
X14443533Y-13771857D01*
X14443533Y-13771857D02*
X14462580Y-13762334D01*
X14462580Y-13762334D02*
X14491152Y-13762334D01*
X14491152Y-13762334D02*
X14510199Y-13771857D01*
X14510199Y-13771857D02*
X14519723Y-13781381D01*
X14519723Y-13781381D02*
X14529247Y-13800429D01*
X14529247Y-13800429D02*
X14529247Y-13857572D01*
X14529247Y-13857572D02*
X14519723Y-13876619D01*
X14519723Y-13876619D02*
X14510199Y-13886143D01*
X14510199Y-13886143D02*
X14491152Y-13895667D01*
X14491152Y-13895667D02*
X14462580Y-13895667D01*
X14643533Y-13895667D02*
X14624485Y-13886143D01*
X14624485Y-13886143D02*
X14614961Y-13867095D01*
X14614961Y-13867095D02*
X14614961Y-13695667D01*
X14795914Y-13886143D02*
X14776866Y-13895667D01*
X14776866Y-13895667D02*
X14738771Y-13895667D01*
X14738771Y-13895667D02*
X14719723Y-13886143D01*
X14719723Y-13886143D02*
X14710199Y-13867095D01*
X14710199Y-13867095D02*
X14710199Y-13790905D01*
X14710199Y-13790905D02*
X14719723Y-13771857D01*
X14719723Y-13771857D02*
X14738771Y-13762334D01*
X14738771Y-13762334D02*
X14776866Y-13762334D01*
X14776866Y-13762334D02*
X14795914Y-13771857D01*
X14795914Y-13771857D02*
X14805438Y-13790905D01*
X14805438Y-13790905D02*
X14805438Y-13809953D01*
X14805438Y-13809953D02*
X14710199Y-13829000D01*
X14881628Y-13886143D02*
X14900676Y-13895667D01*
X14900676Y-13895667D02*
X14938771Y-13895667D01*
X14938771Y-13895667D02*
X14957819Y-13886143D01*
X14957819Y-13886143D02*
X14967342Y-13867095D01*
X14967342Y-13867095D02*
X14967342Y-13857572D01*
X14967342Y-13857572D02*
X14957819Y-13838524D01*
X14957819Y-13838524D02*
X14938771Y-13829000D01*
X14938771Y-13829000D02*
X14910199Y-13829000D01*
X14910199Y-13829000D02*
X14891152Y-13819476D01*
X14891152Y-13819476D02*
X14881628Y-13800429D01*
X14881628Y-13800429D02*
X14881628Y-13790905D01*
X14881628Y-13790905D02*
X14891152Y-13771857D01*
X14891152Y-13771857D02*
X14910199Y-13762334D01*
X14910199Y-13762334D02*
X14938771Y-13762334D01*
X14938771Y-13762334D02*
X14957819Y-13771857D01*
X15034009Y-13971857D02*
X15043533Y-13962334D01*
X15043533Y-13962334D02*
X15062580Y-13933762D01*
X15062580Y-13933762D02*
X15072104Y-13914715D01*
X15072104Y-13914715D02*
X15081628Y-13886143D01*
X15081628Y-13886143D02*
X15091152Y-13838524D01*
X15091152Y-13838524D02*
X15091152Y-13800429D01*
X15091152Y-13800429D02*
X15081628Y-13752810D01*
X15081628Y-13752810D02*
X15072104Y-13724238D01*
X15072104Y-13724238D02*
X15062580Y-13705191D01*
X15062580Y-13705191D02*
X15043533Y-13676619D01*
X15043533Y-13676619D02*
X15034009Y-13667095D01*
D13*
X10020676Y-14086191D02*
G75*
G03*
X10020676Y-14086191I-30000J0D01*
G01*
D11*
X10306390Y-13959667D02*
X10325437Y-13959667D01*
X10325437Y-13959667D02*
X10344485Y-13969191D01*
X10344485Y-13969191D02*
X10354009Y-13978715D01*
X10354009Y-13978715D02*
X10363533Y-13997762D01*
X10363533Y-13997762D02*
X10373056Y-14035857D01*
X10373056Y-14035857D02*
X10373056Y-14083476D01*
X10373056Y-14083476D02*
X10363533Y-14121572D01*
X10363533Y-14121572D02*
X10354009Y-14140619D01*
X10354009Y-14140619D02*
X10344485Y-14150143D01*
X10344485Y-14150143D02*
X10325437Y-14159667D01*
X10325437Y-14159667D02*
X10306390Y-14159667D01*
X10306390Y-14159667D02*
X10287342Y-14150143D01*
X10287342Y-14150143D02*
X10277818Y-14140619D01*
X10277818Y-14140619D02*
X10268295Y-14121572D01*
X10268295Y-14121572D02*
X10258771Y-14083476D01*
X10258771Y-14083476D02*
X10258771Y-14035857D01*
X10258771Y-14035857D02*
X10268295Y-13997762D01*
X10268295Y-13997762D02*
X10277818Y-13978715D01*
X10277818Y-13978715D02*
X10287342Y-13969191D01*
X10287342Y-13969191D02*
X10306390Y-13959667D01*
X10458771Y-14140619D02*
X10468295Y-14150143D01*
X10468295Y-14150143D02*
X10458771Y-14159667D01*
X10458771Y-14159667D02*
X10449247Y-14150143D01*
X10449247Y-14150143D02*
X10458771Y-14140619D01*
X10458771Y-14140619D02*
X10458771Y-14159667D01*
X10639723Y-13959667D02*
X10601628Y-13959667D01*
X10601628Y-13959667D02*
X10582580Y-13969191D01*
X10582580Y-13969191D02*
X10573056Y-13978715D01*
X10573056Y-13978715D02*
X10554009Y-14007286D01*
X10554009Y-14007286D02*
X10544485Y-14045381D01*
X10544485Y-14045381D02*
X10544485Y-14121572D01*
X10544485Y-14121572D02*
X10554009Y-14140619D01*
X10554009Y-14140619D02*
X10563533Y-14150143D01*
X10563533Y-14150143D02*
X10582580Y-14159667D01*
X10582580Y-14159667D02*
X10620676Y-14159667D01*
X10620676Y-14159667D02*
X10639723Y-14150143D01*
X10639723Y-14150143D02*
X10649247Y-14140619D01*
X10649247Y-14140619D02*
X10658771Y-14121572D01*
X10658771Y-14121572D02*
X10658771Y-14073953D01*
X10658771Y-14073953D02*
X10649247Y-14054905D01*
X10649247Y-14054905D02*
X10639723Y-14045381D01*
X10639723Y-14045381D02*
X10620676Y-14035857D01*
X10620676Y-14035857D02*
X10582580Y-14035857D01*
X10582580Y-14035857D02*
X10563533Y-14045381D01*
X10563533Y-14045381D02*
X10554009Y-14054905D01*
X10554009Y-14054905D02*
X10544485Y-14073953D01*
X10782580Y-13959667D02*
X10801628Y-13959667D01*
X10801628Y-13959667D02*
X10820676Y-13969191D01*
X10820676Y-13969191D02*
X10830199Y-13978715D01*
X10830199Y-13978715D02*
X10839723Y-13997762D01*
X10839723Y-13997762D02*
X10849247Y-14035857D01*
X10849247Y-14035857D02*
X10849247Y-14083476D01*
X10849247Y-14083476D02*
X10839723Y-14121572D01*
X10839723Y-14121572D02*
X10830199Y-14140619D01*
X10830199Y-14140619D02*
X10820676Y-14150143D01*
X10820676Y-14150143D02*
X10801628Y-14159667D01*
X10801628Y-14159667D02*
X10782580Y-14159667D01*
X10782580Y-14159667D02*
X10763533Y-14150143D01*
X10763533Y-14150143D02*
X10754009Y-14140619D01*
X10754009Y-14140619D02*
X10744485Y-14121572D01*
X10744485Y-14121572D02*
X10734961Y-14083476D01*
X10734961Y-14083476D02*
X10734961Y-14035857D01*
X10734961Y-14035857D02*
X10744485Y-13997762D01*
X10744485Y-13997762D02*
X10754009Y-13978715D01*
X10754009Y-13978715D02*
X10763533Y-13969191D01*
X10763533Y-13969191D02*
X10782580Y-13959667D01*
X10973056Y-13959667D02*
X10992104Y-13959667D01*
X10992104Y-13959667D02*
X11011152Y-13969191D01*
X11011152Y-13969191D02*
X11020676Y-13978715D01*
X11020676Y-13978715D02*
X11030199Y-13997762D01*
X11030199Y-13997762D02*
X11039723Y-14035857D01*
X11039723Y-14035857D02*
X11039723Y-14083476D01*
X11039723Y-14083476D02*
X11030199Y-14121572D01*
X11030199Y-14121572D02*
X11020676Y-14140619D01*
X11020676Y-14140619D02*
X11011152Y-14150143D01*
X11011152Y-14150143D02*
X10992104Y-14159667D01*
X10992104Y-14159667D02*
X10973056Y-14159667D01*
X10973056Y-14159667D02*
X10954009Y-14150143D01*
X10954009Y-14150143D02*
X10944485Y-14140619D01*
X10944485Y-14140619D02*
X10934961Y-14121572D01*
X10934961Y-14121572D02*
X10925437Y-14083476D01*
X10925437Y-14083476D02*
X10925437Y-14035857D01*
X10925437Y-14035857D02*
X10934961Y-13997762D01*
X10934961Y-13997762D02*
X10944485Y-13978715D01*
X10944485Y-13978715D02*
X10954009Y-13969191D01*
X10954009Y-13969191D02*
X10973056Y-13959667D01*
X11125437Y-14159667D02*
X11125437Y-14026334D01*
X11125437Y-14045381D02*
X11134961Y-14035857D01*
X11134961Y-14035857D02*
X11154009Y-14026334D01*
X11154009Y-14026334D02*
X11182580Y-14026334D01*
X11182580Y-14026334D02*
X11201628Y-14035857D01*
X11201628Y-14035857D02*
X11211152Y-14054905D01*
X11211152Y-14054905D02*
X11211152Y-14159667D01*
X11211152Y-14054905D02*
X11220675Y-14035857D01*
X11220675Y-14035857D02*
X11239723Y-14026334D01*
X11239723Y-14026334D02*
X11268294Y-14026334D01*
X11268294Y-14026334D02*
X11287342Y-14035857D01*
X11287342Y-14035857D02*
X11296866Y-14054905D01*
X11296866Y-14054905D02*
X11296866Y-14159667D01*
X11392104Y-14159667D02*
X11392104Y-14026334D01*
X11392104Y-14045381D02*
X11401628Y-14035857D01*
X11401628Y-14035857D02*
X11420675Y-14026334D01*
X11420675Y-14026334D02*
X11449247Y-14026334D01*
X11449247Y-14026334D02*
X11468295Y-14035857D01*
X11468295Y-14035857D02*
X11477818Y-14054905D01*
X11477818Y-14054905D02*
X11477818Y-14159667D01*
X11477818Y-14054905D02*
X11487342Y-14035857D01*
X11487342Y-14035857D02*
X11506390Y-14026334D01*
X11506390Y-14026334D02*
X11534961Y-14026334D01*
X11534961Y-14026334D02*
X11554009Y-14035857D01*
X11554009Y-14035857D02*
X11563533Y-14054905D01*
X11563533Y-14054905D02*
X11563533Y-14159667D01*
X11921628Y-13950143D02*
X11750199Y-14207286D01*
X12146390Y-13959667D02*
X12165437Y-13959667D01*
X12165437Y-13959667D02*
X12184485Y-13969191D01*
X12184485Y-13969191D02*
X12194009Y-13978715D01*
X12194009Y-13978715D02*
X12203533Y-13997762D01*
X12203533Y-13997762D02*
X12213056Y-14035857D01*
X12213056Y-14035857D02*
X12213056Y-14083476D01*
X12213056Y-14083476D02*
X12203533Y-14121572D01*
X12203533Y-14121572D02*
X12194009Y-14140619D01*
X12194009Y-14140619D02*
X12184485Y-14150143D01*
X12184485Y-14150143D02*
X12165437Y-14159667D01*
X12165437Y-14159667D02*
X12146390Y-14159667D01*
X12146390Y-14159667D02*
X12127342Y-14150143D01*
X12127342Y-14150143D02*
X12117818Y-14140619D01*
X12117818Y-14140619D02*
X12108295Y-14121572D01*
X12108295Y-14121572D02*
X12098771Y-14083476D01*
X12098771Y-14083476D02*
X12098771Y-14035857D01*
X12098771Y-14035857D02*
X12108295Y-13997762D01*
X12108295Y-13997762D02*
X12117818Y-13978715D01*
X12117818Y-13978715D02*
X12127342Y-13969191D01*
X12127342Y-13969191D02*
X12146390Y-13959667D01*
X12298771Y-14140619D02*
X12308295Y-14150143D01*
X12308295Y-14150143D02*
X12298771Y-14159667D01*
X12298771Y-14159667D02*
X12289247Y-14150143D01*
X12289247Y-14150143D02*
X12298771Y-14140619D01*
X12298771Y-14140619D02*
X12298771Y-14159667D01*
X12432104Y-13959667D02*
X12451152Y-13959667D01*
X12451152Y-13959667D02*
X12470199Y-13969191D01*
X12470199Y-13969191D02*
X12479723Y-13978715D01*
X12479723Y-13978715D02*
X12489247Y-13997762D01*
X12489247Y-13997762D02*
X12498771Y-14035857D01*
X12498771Y-14035857D02*
X12498771Y-14083476D01*
X12498771Y-14083476D02*
X12489247Y-14121572D01*
X12489247Y-14121572D02*
X12479723Y-14140619D01*
X12479723Y-14140619D02*
X12470199Y-14150143D01*
X12470199Y-14150143D02*
X12451152Y-14159667D01*
X12451152Y-14159667D02*
X12432104Y-14159667D01*
X12432104Y-14159667D02*
X12413056Y-14150143D01*
X12413056Y-14150143D02*
X12403533Y-14140619D01*
X12403533Y-14140619D02*
X12394009Y-14121572D01*
X12394009Y-14121572D02*
X12384485Y-14083476D01*
X12384485Y-14083476D02*
X12384485Y-14035857D01*
X12384485Y-14035857D02*
X12394009Y-13997762D01*
X12394009Y-13997762D02*
X12403533Y-13978715D01*
X12403533Y-13978715D02*
X12413056Y-13969191D01*
X12413056Y-13969191D02*
X12432104Y-13959667D01*
X12574961Y-13978715D02*
X12584485Y-13969191D01*
X12584485Y-13969191D02*
X12603533Y-13959667D01*
X12603533Y-13959667D02*
X12651152Y-13959667D01*
X12651152Y-13959667D02*
X12670199Y-13969191D01*
X12670199Y-13969191D02*
X12679723Y-13978715D01*
X12679723Y-13978715D02*
X12689247Y-13997762D01*
X12689247Y-13997762D02*
X12689247Y-14016810D01*
X12689247Y-14016810D02*
X12679723Y-14045381D01*
X12679723Y-14045381D02*
X12565437Y-14159667D01*
X12565437Y-14159667D02*
X12689247Y-14159667D01*
X12755914Y-13959667D02*
X12879723Y-13959667D01*
X12879723Y-13959667D02*
X12813056Y-14035857D01*
X12813056Y-14035857D02*
X12841628Y-14035857D01*
X12841628Y-14035857D02*
X12860676Y-14045381D01*
X12860676Y-14045381D02*
X12870199Y-14054905D01*
X12870199Y-14054905D02*
X12879723Y-14073953D01*
X12879723Y-14073953D02*
X12879723Y-14121572D01*
X12879723Y-14121572D02*
X12870199Y-14140619D01*
X12870199Y-14140619D02*
X12860676Y-14150143D01*
X12860676Y-14150143D02*
X12841628Y-14159667D01*
X12841628Y-14159667D02*
X12784485Y-14159667D01*
X12784485Y-14159667D02*
X12765437Y-14150143D01*
X12765437Y-14150143D02*
X12755914Y-14140619D01*
X13051152Y-13959667D02*
X13013056Y-13959667D01*
X13013056Y-13959667D02*
X12994009Y-13969191D01*
X12994009Y-13969191D02*
X12984485Y-13978715D01*
X12984485Y-13978715D02*
X12965437Y-14007286D01*
X12965437Y-14007286D02*
X12955914Y-14045381D01*
X12955914Y-14045381D02*
X12955914Y-14121572D01*
X12955914Y-14121572D02*
X12965437Y-14140619D01*
X12965437Y-14140619D02*
X12974961Y-14150143D01*
X12974961Y-14150143D02*
X12994009Y-14159667D01*
X12994009Y-14159667D02*
X13032104Y-14159667D01*
X13032104Y-14159667D02*
X13051152Y-14150143D01*
X13051152Y-14150143D02*
X13060676Y-14140619D01*
X13060676Y-14140619D02*
X13070199Y-14121572D01*
X13070199Y-14121572D02*
X13070199Y-14073953D01*
X13070199Y-14073953D02*
X13060676Y-14054905D01*
X13060676Y-14054905D02*
X13051152Y-14045381D01*
X13051152Y-14045381D02*
X13032104Y-14035857D01*
X13032104Y-14035857D02*
X12994009Y-14035857D01*
X12994009Y-14035857D02*
X12974961Y-14045381D01*
X12974961Y-14045381D02*
X12965437Y-14054905D01*
X12965437Y-14054905D02*
X12955914Y-14073953D01*
X13146390Y-13959667D02*
X13146390Y-13997762D01*
X13222580Y-13959667D02*
X13222580Y-13997762D01*
X13485438Y-14235857D02*
X13475914Y-14226334D01*
X13475914Y-14226334D02*
X13456866Y-14197762D01*
X13456866Y-14197762D02*
X13447342Y-14178715D01*
X13447342Y-14178715D02*
X13437818Y-14150143D01*
X13437818Y-14150143D02*
X13428295Y-14102524D01*
X13428295Y-14102524D02*
X13428295Y-14064429D01*
X13428295Y-14064429D02*
X13437818Y-14016810D01*
X13437818Y-14016810D02*
X13447342Y-13988238D01*
X13447342Y-13988238D02*
X13456866Y-13969191D01*
X13456866Y-13969191D02*
X13475914Y-13940619D01*
X13475914Y-13940619D02*
X13485438Y-13931095D01*
X13599723Y-13959667D02*
X13618771Y-13959667D01*
X13618771Y-13959667D02*
X13637818Y-13969191D01*
X13637818Y-13969191D02*
X13647342Y-13978715D01*
X13647342Y-13978715D02*
X13656866Y-13997762D01*
X13656866Y-13997762D02*
X13666390Y-14035857D01*
X13666390Y-14035857D02*
X13666390Y-14083476D01*
X13666390Y-14083476D02*
X13656866Y-14121572D01*
X13656866Y-14121572D02*
X13647342Y-14140619D01*
X13647342Y-14140619D02*
X13637818Y-14150143D01*
X13637818Y-14150143D02*
X13618771Y-14159667D01*
X13618771Y-14159667D02*
X13599723Y-14159667D01*
X13599723Y-14159667D02*
X13580676Y-14150143D01*
X13580676Y-14150143D02*
X13571152Y-14140619D01*
X13571152Y-14140619D02*
X13561628Y-14121572D01*
X13561628Y-14121572D02*
X13552104Y-14083476D01*
X13552104Y-14083476D02*
X13552104Y-14035857D01*
X13552104Y-14035857D02*
X13561628Y-13997762D01*
X13561628Y-13997762D02*
X13571152Y-13978715D01*
X13571152Y-13978715D02*
X13580676Y-13969191D01*
X13580676Y-13969191D02*
X13599723Y-13959667D01*
X13872104Y-14159667D02*
X13872104Y-13959667D01*
X13957818Y-14159667D02*
X13957818Y-14054905D01*
X13957818Y-14054905D02*
X13948295Y-14035857D01*
X13948295Y-14035857D02*
X13929247Y-14026334D01*
X13929247Y-14026334D02*
X13900676Y-14026334D01*
X13900676Y-14026334D02*
X13881628Y-14035857D01*
X13881628Y-14035857D02*
X13872104Y-14045381D01*
X14081628Y-14159667D02*
X14062580Y-14150143D01*
X14062580Y-14150143D02*
X14053057Y-14140619D01*
X14053057Y-14140619D02*
X14043533Y-14121572D01*
X14043533Y-14121572D02*
X14043533Y-14064429D01*
X14043533Y-14064429D02*
X14053057Y-14045381D01*
X14053057Y-14045381D02*
X14062580Y-14035857D01*
X14062580Y-14035857D02*
X14081628Y-14026334D01*
X14081628Y-14026334D02*
X14110199Y-14026334D01*
X14110199Y-14026334D02*
X14129247Y-14035857D01*
X14129247Y-14035857D02*
X14138771Y-14045381D01*
X14138771Y-14045381D02*
X14148295Y-14064429D01*
X14148295Y-14064429D02*
X14148295Y-14121572D01*
X14148295Y-14121572D02*
X14138771Y-14140619D01*
X14138771Y-14140619D02*
X14129247Y-14150143D01*
X14129247Y-14150143D02*
X14110199Y-14159667D01*
X14110199Y-14159667D02*
X14081628Y-14159667D01*
X14262580Y-14159667D02*
X14243533Y-14150143D01*
X14243533Y-14150143D02*
X14234009Y-14131095D01*
X14234009Y-14131095D02*
X14234009Y-13959667D01*
X14414961Y-14150143D02*
X14395914Y-14159667D01*
X14395914Y-14159667D02*
X14357818Y-14159667D01*
X14357818Y-14159667D02*
X14338771Y-14150143D01*
X14338771Y-14150143D02*
X14329247Y-14131095D01*
X14329247Y-14131095D02*
X14329247Y-14054905D01*
X14329247Y-14054905D02*
X14338771Y-14035857D01*
X14338771Y-14035857D02*
X14357818Y-14026334D01*
X14357818Y-14026334D02*
X14395914Y-14026334D01*
X14395914Y-14026334D02*
X14414961Y-14035857D01*
X14414961Y-14035857D02*
X14424485Y-14054905D01*
X14424485Y-14054905D02*
X14424485Y-14073953D01*
X14424485Y-14073953D02*
X14329247Y-14093000D01*
X14500676Y-14150143D02*
X14519723Y-14159667D01*
X14519723Y-14159667D02*
X14557818Y-14159667D01*
X14557818Y-14159667D02*
X14576866Y-14150143D01*
X14576866Y-14150143D02*
X14586390Y-14131095D01*
X14586390Y-14131095D02*
X14586390Y-14121572D01*
X14586390Y-14121572D02*
X14576866Y-14102524D01*
X14576866Y-14102524D02*
X14557818Y-14093000D01*
X14557818Y-14093000D02*
X14529247Y-14093000D01*
X14529247Y-14093000D02*
X14510199Y-14083476D01*
X14510199Y-14083476D02*
X14500676Y-14064429D01*
X14500676Y-14064429D02*
X14500676Y-14054905D01*
X14500676Y-14054905D02*
X14510199Y-14035857D01*
X14510199Y-14035857D02*
X14529247Y-14026334D01*
X14529247Y-14026334D02*
X14557818Y-14026334D01*
X14557818Y-14026334D02*
X14576866Y-14035857D01*
X14792104Y-14083476D02*
X14944485Y-14083476D01*
X14868295Y-14159667D02*
X14868295Y-14007286D01*
X15245438Y-14026334D02*
X15245438Y-14159667D01*
X15197818Y-13950143D02*
X15150199Y-14093000D01*
X15150199Y-14093000D02*
X15274009Y-14093000D01*
X15460676Y-14150143D02*
X15479723Y-14159667D01*
X15479723Y-14159667D02*
X15517818Y-14159667D01*
X15517818Y-14159667D02*
X15536866Y-14150143D01*
X15536866Y-14150143D02*
X15546390Y-14131095D01*
X15546390Y-14131095D02*
X15546390Y-14121572D01*
X15546390Y-14121572D02*
X15536866Y-14102524D01*
X15536866Y-14102524D02*
X15517818Y-14093000D01*
X15517818Y-14093000D02*
X15489247Y-14093000D01*
X15489247Y-14093000D02*
X15470199Y-14083476D01*
X15470199Y-14083476D02*
X15460676Y-14064429D01*
X15460676Y-14064429D02*
X15460676Y-14054905D01*
X15460676Y-14054905D02*
X15470199Y-14035857D01*
X15470199Y-14035857D02*
X15489247Y-14026334D01*
X15489247Y-14026334D02*
X15517818Y-14026334D01*
X15517818Y-14026334D02*
X15536866Y-14035857D01*
X15660676Y-14159667D02*
X15641628Y-14150143D01*
X15641628Y-14150143D02*
X15632104Y-14131095D01*
X15632104Y-14131095D02*
X15632104Y-13959667D01*
X15765438Y-14159667D02*
X15746390Y-14150143D01*
X15746390Y-14150143D02*
X15736866Y-14140619D01*
X15736866Y-14140619D02*
X15727342Y-14121572D01*
X15727342Y-14121572D02*
X15727342Y-14064429D01*
X15727342Y-14064429D02*
X15736866Y-14045381D01*
X15736866Y-14045381D02*
X15746390Y-14035857D01*
X15746390Y-14035857D02*
X15765438Y-14026334D01*
X15765438Y-14026334D02*
X15794009Y-14026334D01*
X15794009Y-14026334D02*
X15813057Y-14035857D01*
X15813057Y-14035857D02*
X15822580Y-14045381D01*
X15822580Y-14045381D02*
X15832104Y-14064429D01*
X15832104Y-14064429D02*
X15832104Y-14121572D01*
X15832104Y-14121572D02*
X15822580Y-14140619D01*
X15822580Y-14140619D02*
X15813057Y-14150143D01*
X15813057Y-14150143D02*
X15794009Y-14159667D01*
X15794009Y-14159667D02*
X15765438Y-14159667D01*
X15889247Y-14026334D02*
X15965438Y-14026334D01*
X15917819Y-13959667D02*
X15917819Y-14131095D01*
X15917819Y-14131095D02*
X15927342Y-14150143D01*
X15927342Y-14150143D02*
X15946390Y-14159667D01*
X15946390Y-14159667D02*
X15965438Y-14159667D01*
X16022580Y-14150143D02*
X16041628Y-14159667D01*
X16041628Y-14159667D02*
X16079723Y-14159667D01*
X16079723Y-14159667D02*
X16098771Y-14150143D01*
X16098771Y-14150143D02*
X16108295Y-14131095D01*
X16108295Y-14131095D02*
X16108295Y-14121572D01*
X16108295Y-14121572D02*
X16098771Y-14102524D01*
X16098771Y-14102524D02*
X16079723Y-14093000D01*
X16079723Y-14093000D02*
X16051152Y-14093000D01*
X16051152Y-14093000D02*
X16032104Y-14083476D01*
X16032104Y-14083476D02*
X16022580Y-14064429D01*
X16022580Y-14064429D02*
X16022580Y-14054905D01*
X16022580Y-14054905D02*
X16032104Y-14035857D01*
X16032104Y-14035857D02*
X16051152Y-14026334D01*
X16051152Y-14026334D02*
X16079723Y-14026334D01*
X16079723Y-14026334D02*
X16098771Y-14035857D01*
X16174961Y-14235857D02*
X16184485Y-14226334D01*
X16184485Y-14226334D02*
X16203533Y-14197762D01*
X16203533Y-14197762D02*
X16213057Y-14178715D01*
X16213057Y-14178715D02*
X16222580Y-14150143D01*
X16222580Y-14150143D02*
X16232104Y-14102524D01*
X16232104Y-14102524D02*
X16232104Y-14064429D01*
X16232104Y-14064429D02*
X16222580Y-14016810D01*
X16222580Y-14016810D02*
X16213057Y-13988238D01*
X16213057Y-13988238D02*
X16203533Y-13969191D01*
X16203533Y-13969191D02*
X16184485Y-13940619D01*
X16184485Y-13940619D02*
X16174961Y-13931095D01*
D14*
X9983176Y-14312691D02*
X9983176Y-14387691D01*
X9945676Y-14350191D02*
X10020676Y-14350191D01*
D11*
X10306390Y-14223667D02*
X10325437Y-14223667D01*
X10325437Y-14223667D02*
X10344485Y-14233191D01*
X10344485Y-14233191D02*
X10354009Y-14242715D01*
X10354009Y-14242715D02*
X10363533Y-14261762D01*
X10363533Y-14261762D02*
X10373056Y-14299857D01*
X10373056Y-14299857D02*
X10373056Y-14347476D01*
X10373056Y-14347476D02*
X10363533Y-14385572D01*
X10363533Y-14385572D02*
X10354009Y-14404619D01*
X10354009Y-14404619D02*
X10344485Y-14414143D01*
X10344485Y-14414143D02*
X10325437Y-14423667D01*
X10325437Y-14423667D02*
X10306390Y-14423667D01*
X10306390Y-14423667D02*
X10287342Y-14414143D01*
X10287342Y-14414143D02*
X10277818Y-14404619D01*
X10277818Y-14404619D02*
X10268295Y-14385572D01*
X10268295Y-14385572D02*
X10258771Y-14347476D01*
X10258771Y-14347476D02*
X10258771Y-14299857D01*
X10258771Y-14299857D02*
X10268295Y-14261762D01*
X10268295Y-14261762D02*
X10277818Y-14242715D01*
X10277818Y-14242715D02*
X10287342Y-14233191D01*
X10287342Y-14233191D02*
X10306390Y-14223667D01*
X10458771Y-14404619D02*
X10468295Y-14414143D01*
X10468295Y-14414143D02*
X10458771Y-14423667D01*
X10458771Y-14423667D02*
X10449247Y-14414143D01*
X10449247Y-14414143D02*
X10458771Y-14404619D01*
X10458771Y-14404619D02*
X10458771Y-14423667D01*
X10534961Y-14223667D02*
X10668295Y-14223667D01*
X10668295Y-14223667D02*
X10582580Y-14423667D01*
X10839723Y-14223667D02*
X10744485Y-14223667D01*
X10744485Y-14223667D02*
X10734961Y-14318905D01*
X10734961Y-14318905D02*
X10744485Y-14309381D01*
X10744485Y-14309381D02*
X10763533Y-14299857D01*
X10763533Y-14299857D02*
X10811152Y-14299857D01*
X10811152Y-14299857D02*
X10830199Y-14309381D01*
X10830199Y-14309381D02*
X10839723Y-14318905D01*
X10839723Y-14318905D02*
X10849247Y-14337953D01*
X10849247Y-14337953D02*
X10849247Y-14385572D01*
X10849247Y-14385572D02*
X10839723Y-14404619D01*
X10839723Y-14404619D02*
X10830199Y-14414143D01*
X10830199Y-14414143D02*
X10811152Y-14423667D01*
X10811152Y-14423667D02*
X10763533Y-14423667D01*
X10763533Y-14423667D02*
X10744485Y-14414143D01*
X10744485Y-14414143D02*
X10734961Y-14404619D01*
X10973056Y-14223667D02*
X10992104Y-14223667D01*
X10992104Y-14223667D02*
X11011152Y-14233191D01*
X11011152Y-14233191D02*
X11020676Y-14242715D01*
X11020676Y-14242715D02*
X11030199Y-14261762D01*
X11030199Y-14261762D02*
X11039723Y-14299857D01*
X11039723Y-14299857D02*
X11039723Y-14347476D01*
X11039723Y-14347476D02*
X11030199Y-14385572D01*
X11030199Y-14385572D02*
X11020676Y-14404619D01*
X11020676Y-14404619D02*
X11011152Y-14414143D01*
X11011152Y-14414143D02*
X10992104Y-14423667D01*
X10992104Y-14423667D02*
X10973056Y-14423667D01*
X10973056Y-14423667D02*
X10954009Y-14414143D01*
X10954009Y-14414143D02*
X10944485Y-14404619D01*
X10944485Y-14404619D02*
X10934961Y-14385572D01*
X10934961Y-14385572D02*
X10925437Y-14347476D01*
X10925437Y-14347476D02*
X10925437Y-14299857D01*
X10925437Y-14299857D02*
X10934961Y-14261762D01*
X10934961Y-14261762D02*
X10944485Y-14242715D01*
X10944485Y-14242715D02*
X10954009Y-14233191D01*
X10954009Y-14233191D02*
X10973056Y-14223667D01*
X11125437Y-14423667D02*
X11125437Y-14290334D01*
X11125437Y-14309381D02*
X11134961Y-14299857D01*
X11134961Y-14299857D02*
X11154009Y-14290334D01*
X11154009Y-14290334D02*
X11182580Y-14290334D01*
X11182580Y-14290334D02*
X11201628Y-14299857D01*
X11201628Y-14299857D02*
X11211152Y-14318905D01*
X11211152Y-14318905D02*
X11211152Y-14423667D01*
X11211152Y-14318905D02*
X11220675Y-14299857D01*
X11220675Y-14299857D02*
X11239723Y-14290334D01*
X11239723Y-14290334D02*
X11268294Y-14290334D01*
X11268294Y-14290334D02*
X11287342Y-14299857D01*
X11287342Y-14299857D02*
X11296866Y-14318905D01*
X11296866Y-14318905D02*
X11296866Y-14423667D01*
X11392104Y-14423667D02*
X11392104Y-14290334D01*
X11392104Y-14309381D02*
X11401628Y-14299857D01*
X11401628Y-14299857D02*
X11420675Y-14290334D01*
X11420675Y-14290334D02*
X11449247Y-14290334D01*
X11449247Y-14290334D02*
X11468295Y-14299857D01*
X11468295Y-14299857D02*
X11477818Y-14318905D01*
X11477818Y-14318905D02*
X11477818Y-14423667D01*
X11477818Y-14318905D02*
X11487342Y-14299857D01*
X11487342Y-14299857D02*
X11506390Y-14290334D01*
X11506390Y-14290334D02*
X11534961Y-14290334D01*
X11534961Y-14290334D02*
X11554009Y-14299857D01*
X11554009Y-14299857D02*
X11563533Y-14318905D01*
X11563533Y-14318905D02*
X11563533Y-14423667D01*
X11921628Y-14214143D02*
X11750199Y-14471286D01*
X12146390Y-14223667D02*
X12165437Y-14223667D01*
X12165437Y-14223667D02*
X12184485Y-14233191D01*
X12184485Y-14233191D02*
X12194009Y-14242715D01*
X12194009Y-14242715D02*
X12203533Y-14261762D01*
X12203533Y-14261762D02*
X12213056Y-14299857D01*
X12213056Y-14299857D02*
X12213056Y-14347476D01*
X12213056Y-14347476D02*
X12203533Y-14385572D01*
X12203533Y-14385572D02*
X12194009Y-14404619D01*
X12194009Y-14404619D02*
X12184485Y-14414143D01*
X12184485Y-14414143D02*
X12165437Y-14423667D01*
X12165437Y-14423667D02*
X12146390Y-14423667D01*
X12146390Y-14423667D02*
X12127342Y-14414143D01*
X12127342Y-14414143D02*
X12117818Y-14404619D01*
X12117818Y-14404619D02*
X12108295Y-14385572D01*
X12108295Y-14385572D02*
X12098771Y-14347476D01*
X12098771Y-14347476D02*
X12098771Y-14299857D01*
X12098771Y-14299857D02*
X12108295Y-14261762D01*
X12108295Y-14261762D02*
X12117818Y-14242715D01*
X12117818Y-14242715D02*
X12127342Y-14233191D01*
X12127342Y-14233191D02*
X12146390Y-14223667D01*
X12298771Y-14404619D02*
X12308295Y-14414143D01*
X12308295Y-14414143D02*
X12298771Y-14423667D01*
X12298771Y-14423667D02*
X12289247Y-14414143D01*
X12289247Y-14414143D02*
X12298771Y-14404619D01*
X12298771Y-14404619D02*
X12298771Y-14423667D01*
X12432104Y-14223667D02*
X12451152Y-14223667D01*
X12451152Y-14223667D02*
X12470199Y-14233191D01*
X12470199Y-14233191D02*
X12479723Y-14242715D01*
X12479723Y-14242715D02*
X12489247Y-14261762D01*
X12489247Y-14261762D02*
X12498771Y-14299857D01*
X12498771Y-14299857D02*
X12498771Y-14347476D01*
X12498771Y-14347476D02*
X12489247Y-14385572D01*
X12489247Y-14385572D02*
X12479723Y-14404619D01*
X12479723Y-14404619D02*
X12470199Y-14414143D01*
X12470199Y-14414143D02*
X12451152Y-14423667D01*
X12451152Y-14423667D02*
X12432104Y-14423667D01*
X12432104Y-14423667D02*
X12413056Y-14414143D01*
X12413056Y-14414143D02*
X12403533Y-14404619D01*
X12403533Y-14404619D02*
X12394009Y-14385572D01*
X12394009Y-14385572D02*
X12384485Y-14347476D01*
X12384485Y-14347476D02*
X12384485Y-14299857D01*
X12384485Y-14299857D02*
X12394009Y-14261762D01*
X12394009Y-14261762D02*
X12403533Y-14242715D01*
X12403533Y-14242715D02*
X12413056Y-14233191D01*
X12413056Y-14233191D02*
X12432104Y-14223667D01*
X12574961Y-14242715D02*
X12584485Y-14233191D01*
X12584485Y-14233191D02*
X12603533Y-14223667D01*
X12603533Y-14223667D02*
X12651152Y-14223667D01*
X12651152Y-14223667D02*
X12670199Y-14233191D01*
X12670199Y-14233191D02*
X12679723Y-14242715D01*
X12679723Y-14242715D02*
X12689247Y-14261762D01*
X12689247Y-14261762D02*
X12689247Y-14280810D01*
X12689247Y-14280810D02*
X12679723Y-14309381D01*
X12679723Y-14309381D02*
X12565437Y-14423667D01*
X12565437Y-14423667D02*
X12689247Y-14423667D01*
X12784485Y-14423667D02*
X12822580Y-14423667D01*
X12822580Y-14423667D02*
X12841628Y-14414143D01*
X12841628Y-14414143D02*
X12851152Y-14404619D01*
X12851152Y-14404619D02*
X12870199Y-14376048D01*
X12870199Y-14376048D02*
X12879723Y-14337953D01*
X12879723Y-14337953D02*
X12879723Y-14261762D01*
X12879723Y-14261762D02*
X12870199Y-14242715D01*
X12870199Y-14242715D02*
X12860676Y-14233191D01*
X12860676Y-14233191D02*
X12841628Y-14223667D01*
X12841628Y-14223667D02*
X12803533Y-14223667D01*
X12803533Y-14223667D02*
X12784485Y-14233191D01*
X12784485Y-14233191D02*
X12774961Y-14242715D01*
X12774961Y-14242715D02*
X12765437Y-14261762D01*
X12765437Y-14261762D02*
X12765437Y-14309381D01*
X12765437Y-14309381D02*
X12774961Y-14328429D01*
X12774961Y-14328429D02*
X12784485Y-14337953D01*
X12784485Y-14337953D02*
X12803533Y-14347476D01*
X12803533Y-14347476D02*
X12841628Y-14347476D01*
X12841628Y-14347476D02*
X12860676Y-14337953D01*
X12860676Y-14337953D02*
X12870199Y-14328429D01*
X12870199Y-14328429D02*
X12879723Y-14309381D01*
X13060676Y-14223667D02*
X12965437Y-14223667D01*
X12965437Y-14223667D02*
X12955914Y-14318905D01*
X12955914Y-14318905D02*
X12965437Y-14309381D01*
X12965437Y-14309381D02*
X12984485Y-14299857D01*
X12984485Y-14299857D02*
X13032104Y-14299857D01*
X13032104Y-14299857D02*
X13051152Y-14309381D01*
X13051152Y-14309381D02*
X13060676Y-14318905D01*
X13060676Y-14318905D02*
X13070199Y-14337953D01*
X13070199Y-14337953D02*
X13070199Y-14385572D01*
X13070199Y-14385572D02*
X13060676Y-14404619D01*
X13060676Y-14404619D02*
X13051152Y-14414143D01*
X13051152Y-14414143D02*
X13032104Y-14423667D01*
X13032104Y-14423667D02*
X12984485Y-14423667D01*
X12984485Y-14423667D02*
X12965437Y-14414143D01*
X12965437Y-14414143D02*
X12955914Y-14404619D01*
X13146390Y-14223667D02*
X13146390Y-14261762D01*
X13222580Y-14223667D02*
X13222580Y-14261762D01*
X13485438Y-14499857D02*
X13475914Y-14490334D01*
X13475914Y-14490334D02*
X13456866Y-14461762D01*
X13456866Y-14461762D02*
X13447342Y-14442715D01*
X13447342Y-14442715D02*
X13437818Y-14414143D01*
X13437818Y-14414143D02*
X13428295Y-14366524D01*
X13428295Y-14366524D02*
X13428295Y-14328429D01*
X13428295Y-14328429D02*
X13437818Y-14280810D01*
X13437818Y-14280810D02*
X13447342Y-14252238D01*
X13447342Y-14252238D02*
X13456866Y-14233191D01*
X13456866Y-14233191D02*
X13475914Y-14204619D01*
X13475914Y-14204619D02*
X13485438Y-14195095D01*
X13666390Y-14423667D02*
X13552104Y-14423667D01*
X13609247Y-14423667D02*
X13609247Y-14223667D01*
X13609247Y-14223667D02*
X13590199Y-14252238D01*
X13590199Y-14252238D02*
X13571152Y-14271286D01*
X13571152Y-14271286D02*
X13552104Y-14280810D01*
X13790199Y-14223667D02*
X13809247Y-14223667D01*
X13809247Y-14223667D02*
X13828295Y-14233191D01*
X13828295Y-14233191D02*
X13837818Y-14242715D01*
X13837818Y-14242715D02*
X13847342Y-14261762D01*
X13847342Y-14261762D02*
X13856866Y-14299857D01*
X13856866Y-14299857D02*
X13856866Y-14347476D01*
X13856866Y-14347476D02*
X13847342Y-14385572D01*
X13847342Y-14385572D02*
X13837818Y-14404619D01*
X13837818Y-14404619D02*
X13828295Y-14414143D01*
X13828295Y-14414143D02*
X13809247Y-14423667D01*
X13809247Y-14423667D02*
X13790199Y-14423667D01*
X13790199Y-14423667D02*
X13771152Y-14414143D01*
X13771152Y-14414143D02*
X13761628Y-14404619D01*
X13761628Y-14404619D02*
X13752104Y-14385572D01*
X13752104Y-14385572D02*
X13742580Y-14347476D01*
X13742580Y-14347476D02*
X13742580Y-14299857D01*
X13742580Y-14299857D02*
X13752104Y-14261762D01*
X13752104Y-14261762D02*
X13761628Y-14242715D01*
X13761628Y-14242715D02*
X13771152Y-14233191D01*
X13771152Y-14233191D02*
X13790199Y-14223667D01*
X14062580Y-14423667D02*
X14062580Y-14223667D01*
X14148295Y-14423667D02*
X14148295Y-14318905D01*
X14148295Y-14318905D02*
X14138771Y-14299857D01*
X14138771Y-14299857D02*
X14119723Y-14290334D01*
X14119723Y-14290334D02*
X14091152Y-14290334D01*
X14091152Y-14290334D02*
X14072104Y-14299857D01*
X14072104Y-14299857D02*
X14062580Y-14309381D01*
X14272104Y-14423667D02*
X14253057Y-14414143D01*
X14253057Y-14414143D02*
X14243533Y-14404619D01*
X14243533Y-14404619D02*
X14234009Y-14385572D01*
X14234009Y-14385572D02*
X14234009Y-14328429D01*
X14234009Y-14328429D02*
X14243533Y-14309381D01*
X14243533Y-14309381D02*
X14253057Y-14299857D01*
X14253057Y-14299857D02*
X14272104Y-14290334D01*
X14272104Y-14290334D02*
X14300676Y-14290334D01*
X14300676Y-14290334D02*
X14319723Y-14299857D01*
X14319723Y-14299857D02*
X14329247Y-14309381D01*
X14329247Y-14309381D02*
X14338771Y-14328429D01*
X14338771Y-14328429D02*
X14338771Y-14385572D01*
X14338771Y-14385572D02*
X14329247Y-14404619D01*
X14329247Y-14404619D02*
X14319723Y-14414143D01*
X14319723Y-14414143D02*
X14300676Y-14423667D01*
X14300676Y-14423667D02*
X14272104Y-14423667D01*
X14453057Y-14423667D02*
X14434009Y-14414143D01*
X14434009Y-14414143D02*
X14424485Y-14395095D01*
X14424485Y-14395095D02*
X14424485Y-14223667D01*
X14605438Y-14414143D02*
X14586390Y-14423667D01*
X14586390Y-14423667D02*
X14548295Y-14423667D01*
X14548295Y-14423667D02*
X14529247Y-14414143D01*
X14529247Y-14414143D02*
X14519723Y-14395095D01*
X14519723Y-14395095D02*
X14519723Y-14318905D01*
X14519723Y-14318905D02*
X14529247Y-14299857D01*
X14529247Y-14299857D02*
X14548295Y-14290334D01*
X14548295Y-14290334D02*
X14586390Y-14290334D01*
X14586390Y-14290334D02*
X14605438Y-14299857D01*
X14605438Y-14299857D02*
X14614961Y-14318905D01*
X14614961Y-14318905D02*
X14614961Y-14337953D01*
X14614961Y-14337953D02*
X14519723Y-14357000D01*
X14691152Y-14414143D02*
X14710199Y-14423667D01*
X14710199Y-14423667D02*
X14748295Y-14423667D01*
X14748295Y-14423667D02*
X14767342Y-14414143D01*
X14767342Y-14414143D02*
X14776866Y-14395095D01*
X14776866Y-14395095D02*
X14776866Y-14385572D01*
X14776866Y-14385572D02*
X14767342Y-14366524D01*
X14767342Y-14366524D02*
X14748295Y-14357000D01*
X14748295Y-14357000D02*
X14719723Y-14357000D01*
X14719723Y-14357000D02*
X14700676Y-14347476D01*
X14700676Y-14347476D02*
X14691152Y-14328429D01*
X14691152Y-14328429D02*
X14691152Y-14318905D01*
X14691152Y-14318905D02*
X14700676Y-14299857D01*
X14700676Y-14299857D02*
X14719723Y-14290334D01*
X14719723Y-14290334D02*
X14748295Y-14290334D01*
X14748295Y-14290334D02*
X14767342Y-14299857D01*
X14843533Y-14499857D02*
X14853057Y-14490334D01*
X14853057Y-14490334D02*
X14872104Y-14461762D01*
X14872104Y-14461762D02*
X14881628Y-14442715D01*
X14881628Y-14442715D02*
X14891152Y-14414143D01*
X14891152Y-14414143D02*
X14900676Y-14366524D01*
X14900676Y-14366524D02*
X14900676Y-14328429D01*
X14900676Y-14328429D02*
X14891152Y-14280810D01*
X14891152Y-14280810D02*
X14881628Y-14252238D01*
X14881628Y-14252238D02*
X14872104Y-14233191D01*
X14872104Y-14233191D02*
X14853057Y-14204619D01*
X14853057Y-14204619D02*
X14843533Y-14195095D01*
M02*
