%TF.GenerationSoftware,KiCad,Pcbnew,(7.0.0)*%
%TF.CreationDate,2023-04-13T18:09:36+05:30*%
%TF.ProjectId,smart_toilet,736d6172-745f-4746-9f69-6c65742e6b69,rev?*%
%TF.SameCoordinates,Original*%
%TF.FileFunction,Drillmap*%
%TF.FilePolarity,Positive*%
%FSLAX45Y45*%
G04 Gerber Fmt 4.5, Leading zero omitted, Abs format (unit mm)*
G04 Created by KiCad (PCBNEW (7.0.0)) date 2023-04-13 18:09:36*
%MOMM*%
%LPD*%
G01*
G04 APERTURE LIST*
%ADD10C,0.250000*%
%ADD11C,0.200000*%
%ADD12C,0.065000*%
%ADD13C,0.350000*%
G04 APERTURE END LIST*
D10*
X18764243Y-13093796D02*
X18798098Y-13104333D01*
X18833483Y-13107139D01*
X18869334Y-13102907D01*
X18904589Y-13092328D01*
X18938184Y-13076093D01*
X18969055Y-13054895D01*
X18996139Y-13029424D01*
X19018373Y-13000373D01*
X19034692Y-12968432D01*
X19044033Y-12934294D01*
X19045859Y-12910656D01*
X10033392Y-8395193D02*
X10033783Y-8537076D01*
X10034173Y-8678958D01*
X10034564Y-8820841D01*
X10034955Y-8962724D01*
X10035345Y-9104606D01*
X10035736Y-9246489D01*
X10036127Y-9388371D01*
X10036517Y-9530254D01*
X10036908Y-9672137D01*
X10037299Y-9814019D01*
X10037689Y-9955902D01*
X10038080Y-10097785D01*
X10038471Y-10239667D01*
X10038861Y-10381550D01*
X10039252Y-10523433D01*
X10039643Y-10665315D01*
X10040033Y-10807198D01*
X10040424Y-10949081D01*
X10040815Y-11090963D01*
X10041205Y-11232846D01*
X10041596Y-11374729D01*
X10041987Y-11516611D01*
X10042377Y-11658494D01*
X10042768Y-11800377D01*
X10043159Y-11942259D01*
X10043549Y-12084142D01*
X10043940Y-12226024D01*
X10044331Y-12367907D01*
X10044722Y-12509790D01*
X10045112Y-12651672D01*
X10045503Y-12793555D01*
X10045894Y-12935438D01*
X10171845Y-8204347D02*
X10144417Y-8216268D01*
X10118634Y-8233318D01*
X10095119Y-8254638D01*
X10074495Y-8279367D01*
X10057387Y-8306647D01*
X10044418Y-8335618D01*
X10036212Y-8365420D01*
X10033392Y-8395193D01*
X10045894Y-12935438D02*
X10050187Y-12970633D01*
X10062156Y-13004050D01*
X10080736Y-13035003D01*
X10104858Y-13062805D01*
X10133455Y-13086772D01*
X10165459Y-13106216D01*
X10199805Y-13120454D01*
X10235423Y-13128798D01*
X10271248Y-13130563D01*
X10306211Y-13125064D01*
X10328514Y-13117024D01*
X18893856Y-8180331D02*
X18632874Y-8100487D01*
X18369623Y-8025846D01*
X18104253Y-7956409D01*
X17836918Y-7892175D01*
X17567770Y-7833144D01*
X17296961Y-7779315D01*
X17024643Y-7730687D01*
X16750968Y-7687261D01*
X16476090Y-7649036D01*
X16200159Y-7616011D01*
X15923329Y-7588187D01*
X15645752Y-7565562D01*
X15367580Y-7548136D01*
X15088966Y-7535910D01*
X14810061Y-7528881D01*
X14531018Y-7527051D01*
X14251990Y-7530418D01*
X13973128Y-7538982D01*
X13694585Y-7552743D01*
X13416513Y-7571700D01*
X13139065Y-7595853D01*
X12862393Y-7625202D01*
X12586648Y-7659746D01*
X12311985Y-7699484D01*
X12038553Y-7744417D01*
X11766507Y-7794543D01*
X11495999Y-7849863D01*
X11227179Y-7910375D01*
X10960202Y-7976081D01*
X10695219Y-8046978D01*
X10432383Y-8123067D01*
X10171845Y-8204347D01*
X10328514Y-13117024D02*
X10570729Y-13011498D01*
X10817049Y-12912726D01*
X11067202Y-12820709D01*
X11320915Y-12735447D01*
X11577915Y-12656941D01*
X11837931Y-12585192D01*
X12100689Y-12520200D01*
X12365918Y-12461967D01*
X12633345Y-12410492D01*
X12902698Y-12365778D01*
X13173703Y-12327824D01*
X13446090Y-12296631D01*
X13719584Y-12272200D01*
X13993915Y-12254532D01*
X14268809Y-12243627D01*
X14543994Y-12239487D01*
X14819198Y-12242112D01*
X15094148Y-12251502D01*
X15368572Y-12267660D01*
X15642197Y-12290584D01*
X15914751Y-12320276D01*
X16185961Y-12356737D01*
X16455556Y-12399968D01*
X16723262Y-12449969D01*
X16988808Y-12506741D01*
X17251920Y-12570284D01*
X17512327Y-12640601D01*
X17769756Y-12717690D01*
X18023935Y-12801554D01*
X18274590Y-12892192D01*
X18521450Y-12989606D01*
X18764243Y-13093796D01*
X19033358Y-8370411D02*
X19030374Y-8340654D01*
X19022004Y-8310898D01*
X19008875Y-8281999D01*
X18991617Y-8254814D01*
X18970858Y-8230198D01*
X18947225Y-8209008D01*
X18921349Y-8192100D01*
X18893856Y-8180331D01*
X19045859Y-12910656D02*
X19045469Y-12768773D01*
X19045078Y-12626891D01*
X19044687Y-12485008D01*
X19044297Y-12343126D01*
X19043906Y-12201243D01*
X19043515Y-12059360D01*
X19043125Y-11917478D01*
X19042734Y-11775595D01*
X19042343Y-11633712D01*
X19041953Y-11491830D01*
X19041562Y-11349947D01*
X19041171Y-11208064D01*
X19040781Y-11066182D01*
X19040390Y-10924299D01*
X19039999Y-10782416D01*
X19039609Y-10640534D01*
X19039218Y-10498651D01*
X19038827Y-10356768D01*
X19038437Y-10214886D01*
X19038046Y-10073003D01*
X19037655Y-9931120D01*
X19037265Y-9789238D01*
X19036874Y-9647355D01*
X19036483Y-9505472D01*
X19036093Y-9363590D01*
X19035702Y-9221707D01*
X19035311Y-9079824D01*
X19034921Y-8937942D01*
X19034530Y-8796059D01*
X19034139Y-8654177D01*
X19033748Y-8512294D01*
X19033358Y-8370411D01*
D11*
D12*
X10847500Y-10014500D02*
X10912500Y-10079500D01*
X10912500Y-10014500D02*
X10847500Y-10079500D01*
X10847500Y-10592500D02*
X10912500Y-10657500D01*
X10912500Y-10592500D02*
X10847500Y-10657500D01*
D13*
X11445000Y-8325000D02*
G75*
G03*
X11445000Y-8325000I-175000J0D01*
G01*
X11605000Y-12195000D02*
G75*
G03*
X11605000Y-12195000I-175000J0D01*
G01*
X17715000Y-8295000D02*
G75*
G03*
X17715000Y-8295000I-175000J0D01*
G01*
X17750000Y-12250000D02*
G75*
G03*
X17750000Y-12250000I-175000J0D01*
G01*
D11*
X10268295Y-13475667D02*
X10268295Y-13275667D01*
X10268295Y-13275667D02*
X10315914Y-13275667D01*
X10315914Y-13275667D02*
X10344485Y-13285191D01*
X10344485Y-13285191D02*
X10363533Y-13304238D01*
X10363533Y-13304238D02*
X10373056Y-13323286D01*
X10373056Y-13323286D02*
X10382580Y-13361381D01*
X10382580Y-13361381D02*
X10382580Y-13389953D01*
X10382580Y-13389953D02*
X10373056Y-13428048D01*
X10373056Y-13428048D02*
X10363533Y-13447095D01*
X10363533Y-13447095D02*
X10344485Y-13466143D01*
X10344485Y-13466143D02*
X10315914Y-13475667D01*
X10315914Y-13475667D02*
X10268295Y-13475667D01*
X10468295Y-13475667D02*
X10468295Y-13342334D01*
X10468295Y-13380429D02*
X10477818Y-13361381D01*
X10477818Y-13361381D02*
X10487342Y-13351857D01*
X10487342Y-13351857D02*
X10506390Y-13342334D01*
X10506390Y-13342334D02*
X10525437Y-13342334D01*
X10592104Y-13475667D02*
X10592104Y-13342334D01*
X10592104Y-13275667D02*
X10582580Y-13285191D01*
X10582580Y-13285191D02*
X10592104Y-13294715D01*
X10592104Y-13294715D02*
X10601628Y-13285191D01*
X10601628Y-13285191D02*
X10592104Y-13275667D01*
X10592104Y-13275667D02*
X10592104Y-13294715D01*
X10715914Y-13475667D02*
X10696866Y-13466143D01*
X10696866Y-13466143D02*
X10687342Y-13447095D01*
X10687342Y-13447095D02*
X10687342Y-13275667D01*
X10820675Y-13475667D02*
X10801628Y-13466143D01*
X10801628Y-13466143D02*
X10792104Y-13447095D01*
X10792104Y-13447095D02*
X10792104Y-13275667D01*
X11016866Y-13475667D02*
X11016866Y-13275667D01*
X11016866Y-13275667D02*
X11083533Y-13418524D01*
X11083533Y-13418524D02*
X11150199Y-13275667D01*
X11150199Y-13275667D02*
X11150199Y-13475667D01*
X11331152Y-13475667D02*
X11331152Y-13370905D01*
X11331152Y-13370905D02*
X11321628Y-13351857D01*
X11321628Y-13351857D02*
X11302580Y-13342334D01*
X11302580Y-13342334D02*
X11264485Y-13342334D01*
X11264485Y-13342334D02*
X11245437Y-13351857D01*
X11331152Y-13466143D02*
X11312104Y-13475667D01*
X11312104Y-13475667D02*
X11264485Y-13475667D01*
X11264485Y-13475667D02*
X11245437Y-13466143D01*
X11245437Y-13466143D02*
X11235913Y-13447095D01*
X11235913Y-13447095D02*
X11235913Y-13428048D01*
X11235913Y-13428048D02*
X11245437Y-13409000D01*
X11245437Y-13409000D02*
X11264485Y-13399476D01*
X11264485Y-13399476D02*
X11312104Y-13399476D01*
X11312104Y-13399476D02*
X11331152Y-13389953D01*
X11426390Y-13342334D02*
X11426390Y-13542334D01*
X11426390Y-13351857D02*
X11445437Y-13342334D01*
X11445437Y-13342334D02*
X11483533Y-13342334D01*
X11483533Y-13342334D02*
X11502580Y-13351857D01*
X11502580Y-13351857D02*
X11512104Y-13361381D01*
X11512104Y-13361381D02*
X11521628Y-13380429D01*
X11521628Y-13380429D02*
X11521628Y-13437572D01*
X11521628Y-13437572D02*
X11512104Y-13456619D01*
X11512104Y-13456619D02*
X11502580Y-13466143D01*
X11502580Y-13466143D02*
X11483533Y-13475667D01*
X11483533Y-13475667D02*
X11445437Y-13475667D01*
X11445437Y-13475667D02*
X11426390Y-13466143D01*
X11607342Y-13456619D02*
X11616866Y-13466143D01*
X11616866Y-13466143D02*
X11607342Y-13475667D01*
X11607342Y-13475667D02*
X11597818Y-13466143D01*
X11597818Y-13466143D02*
X11607342Y-13456619D01*
X11607342Y-13456619D02*
X11607342Y-13475667D01*
X11607342Y-13351857D02*
X11616866Y-13361381D01*
X11616866Y-13361381D02*
X11607342Y-13370905D01*
X11607342Y-13370905D02*
X11597818Y-13361381D01*
X11597818Y-13361381D02*
X11607342Y-13351857D01*
X11607342Y-13351857D02*
X11607342Y-13370905D01*
D12*
X9955676Y-13789691D02*
X10020676Y-13854691D01*
X10020676Y-13789691D02*
X9955676Y-13854691D01*
D11*
X10306390Y-13695667D02*
X10325437Y-13695667D01*
X10325437Y-13695667D02*
X10344485Y-13705191D01*
X10344485Y-13705191D02*
X10354009Y-13714715D01*
X10354009Y-13714715D02*
X10363533Y-13733762D01*
X10363533Y-13733762D02*
X10373056Y-13771857D01*
X10373056Y-13771857D02*
X10373056Y-13819476D01*
X10373056Y-13819476D02*
X10363533Y-13857572D01*
X10363533Y-13857572D02*
X10354009Y-13876619D01*
X10354009Y-13876619D02*
X10344485Y-13886143D01*
X10344485Y-13886143D02*
X10325437Y-13895667D01*
X10325437Y-13895667D02*
X10306390Y-13895667D01*
X10306390Y-13895667D02*
X10287342Y-13886143D01*
X10287342Y-13886143D02*
X10277818Y-13876619D01*
X10277818Y-13876619D02*
X10268295Y-13857572D01*
X10268295Y-13857572D02*
X10258771Y-13819476D01*
X10258771Y-13819476D02*
X10258771Y-13771857D01*
X10258771Y-13771857D02*
X10268295Y-13733762D01*
X10268295Y-13733762D02*
X10277818Y-13714715D01*
X10277818Y-13714715D02*
X10287342Y-13705191D01*
X10287342Y-13705191D02*
X10306390Y-13695667D01*
X10458771Y-13876619D02*
X10468295Y-13886143D01*
X10468295Y-13886143D02*
X10458771Y-13895667D01*
X10458771Y-13895667D02*
X10449247Y-13886143D01*
X10449247Y-13886143D02*
X10458771Y-13876619D01*
X10458771Y-13876619D02*
X10458771Y-13895667D01*
X10639723Y-13695667D02*
X10601628Y-13695667D01*
X10601628Y-13695667D02*
X10582580Y-13705191D01*
X10582580Y-13705191D02*
X10573056Y-13714715D01*
X10573056Y-13714715D02*
X10554009Y-13743286D01*
X10554009Y-13743286D02*
X10544485Y-13781381D01*
X10544485Y-13781381D02*
X10544485Y-13857572D01*
X10544485Y-13857572D02*
X10554009Y-13876619D01*
X10554009Y-13876619D02*
X10563533Y-13886143D01*
X10563533Y-13886143D02*
X10582580Y-13895667D01*
X10582580Y-13895667D02*
X10620676Y-13895667D01*
X10620676Y-13895667D02*
X10639723Y-13886143D01*
X10639723Y-13886143D02*
X10649247Y-13876619D01*
X10649247Y-13876619D02*
X10658771Y-13857572D01*
X10658771Y-13857572D02*
X10658771Y-13809953D01*
X10658771Y-13809953D02*
X10649247Y-13790905D01*
X10649247Y-13790905D02*
X10639723Y-13781381D01*
X10639723Y-13781381D02*
X10620676Y-13771857D01*
X10620676Y-13771857D02*
X10582580Y-13771857D01*
X10582580Y-13771857D02*
X10563533Y-13781381D01*
X10563533Y-13781381D02*
X10554009Y-13790905D01*
X10554009Y-13790905D02*
X10544485Y-13809953D01*
X10839723Y-13695667D02*
X10744485Y-13695667D01*
X10744485Y-13695667D02*
X10734961Y-13790905D01*
X10734961Y-13790905D02*
X10744485Y-13781381D01*
X10744485Y-13781381D02*
X10763533Y-13771857D01*
X10763533Y-13771857D02*
X10811152Y-13771857D01*
X10811152Y-13771857D02*
X10830199Y-13781381D01*
X10830199Y-13781381D02*
X10839723Y-13790905D01*
X10839723Y-13790905D02*
X10849247Y-13809953D01*
X10849247Y-13809953D02*
X10849247Y-13857572D01*
X10849247Y-13857572D02*
X10839723Y-13876619D01*
X10839723Y-13876619D02*
X10830199Y-13886143D01*
X10830199Y-13886143D02*
X10811152Y-13895667D01*
X10811152Y-13895667D02*
X10763533Y-13895667D01*
X10763533Y-13895667D02*
X10744485Y-13886143D01*
X10744485Y-13886143D02*
X10734961Y-13876619D01*
X10973056Y-13695667D02*
X10992104Y-13695667D01*
X10992104Y-13695667D02*
X11011152Y-13705191D01*
X11011152Y-13705191D02*
X11020676Y-13714715D01*
X11020676Y-13714715D02*
X11030199Y-13733762D01*
X11030199Y-13733762D02*
X11039723Y-13771857D01*
X11039723Y-13771857D02*
X11039723Y-13819476D01*
X11039723Y-13819476D02*
X11030199Y-13857572D01*
X11030199Y-13857572D02*
X11020676Y-13876619D01*
X11020676Y-13876619D02*
X11011152Y-13886143D01*
X11011152Y-13886143D02*
X10992104Y-13895667D01*
X10992104Y-13895667D02*
X10973056Y-13895667D01*
X10973056Y-13895667D02*
X10954009Y-13886143D01*
X10954009Y-13886143D02*
X10944485Y-13876619D01*
X10944485Y-13876619D02*
X10934961Y-13857572D01*
X10934961Y-13857572D02*
X10925437Y-13819476D01*
X10925437Y-13819476D02*
X10925437Y-13771857D01*
X10925437Y-13771857D02*
X10934961Y-13733762D01*
X10934961Y-13733762D02*
X10944485Y-13714715D01*
X10944485Y-13714715D02*
X10954009Y-13705191D01*
X10954009Y-13705191D02*
X10973056Y-13695667D01*
X11125437Y-13895667D02*
X11125437Y-13762334D01*
X11125437Y-13781381D02*
X11134961Y-13771857D01*
X11134961Y-13771857D02*
X11154009Y-13762334D01*
X11154009Y-13762334D02*
X11182580Y-13762334D01*
X11182580Y-13762334D02*
X11201628Y-13771857D01*
X11201628Y-13771857D02*
X11211152Y-13790905D01*
X11211152Y-13790905D02*
X11211152Y-13895667D01*
X11211152Y-13790905D02*
X11220675Y-13771857D01*
X11220675Y-13771857D02*
X11239723Y-13762334D01*
X11239723Y-13762334D02*
X11268294Y-13762334D01*
X11268294Y-13762334D02*
X11287342Y-13771857D01*
X11287342Y-13771857D02*
X11296866Y-13790905D01*
X11296866Y-13790905D02*
X11296866Y-13895667D01*
X11392104Y-13895667D02*
X11392104Y-13762334D01*
X11392104Y-13781381D02*
X11401628Y-13771857D01*
X11401628Y-13771857D02*
X11420675Y-13762334D01*
X11420675Y-13762334D02*
X11449247Y-13762334D01*
X11449247Y-13762334D02*
X11468295Y-13771857D01*
X11468295Y-13771857D02*
X11477818Y-13790905D01*
X11477818Y-13790905D02*
X11477818Y-13895667D01*
X11477818Y-13790905D02*
X11487342Y-13771857D01*
X11487342Y-13771857D02*
X11506390Y-13762334D01*
X11506390Y-13762334D02*
X11534961Y-13762334D01*
X11534961Y-13762334D02*
X11554009Y-13771857D01*
X11554009Y-13771857D02*
X11563533Y-13790905D01*
X11563533Y-13790905D02*
X11563533Y-13895667D01*
X11921628Y-13686143D02*
X11750199Y-13943286D01*
X12146390Y-13695667D02*
X12165437Y-13695667D01*
X12165437Y-13695667D02*
X12184485Y-13705191D01*
X12184485Y-13705191D02*
X12194009Y-13714715D01*
X12194009Y-13714715D02*
X12203533Y-13733762D01*
X12203533Y-13733762D02*
X12213056Y-13771857D01*
X12213056Y-13771857D02*
X12213056Y-13819476D01*
X12213056Y-13819476D02*
X12203533Y-13857572D01*
X12203533Y-13857572D02*
X12194009Y-13876619D01*
X12194009Y-13876619D02*
X12184485Y-13886143D01*
X12184485Y-13886143D02*
X12165437Y-13895667D01*
X12165437Y-13895667D02*
X12146390Y-13895667D01*
X12146390Y-13895667D02*
X12127342Y-13886143D01*
X12127342Y-13886143D02*
X12117818Y-13876619D01*
X12117818Y-13876619D02*
X12108295Y-13857572D01*
X12108295Y-13857572D02*
X12098771Y-13819476D01*
X12098771Y-13819476D02*
X12098771Y-13771857D01*
X12098771Y-13771857D02*
X12108295Y-13733762D01*
X12108295Y-13733762D02*
X12117818Y-13714715D01*
X12117818Y-13714715D02*
X12127342Y-13705191D01*
X12127342Y-13705191D02*
X12146390Y-13695667D01*
X12298771Y-13876619D02*
X12308295Y-13886143D01*
X12308295Y-13886143D02*
X12298771Y-13895667D01*
X12298771Y-13895667D02*
X12289247Y-13886143D01*
X12289247Y-13886143D02*
X12298771Y-13876619D01*
X12298771Y-13876619D02*
X12298771Y-13895667D01*
X12432104Y-13695667D02*
X12451152Y-13695667D01*
X12451152Y-13695667D02*
X12470199Y-13705191D01*
X12470199Y-13705191D02*
X12479723Y-13714715D01*
X12479723Y-13714715D02*
X12489247Y-13733762D01*
X12489247Y-13733762D02*
X12498771Y-13771857D01*
X12498771Y-13771857D02*
X12498771Y-13819476D01*
X12498771Y-13819476D02*
X12489247Y-13857572D01*
X12489247Y-13857572D02*
X12479723Y-13876619D01*
X12479723Y-13876619D02*
X12470199Y-13886143D01*
X12470199Y-13886143D02*
X12451152Y-13895667D01*
X12451152Y-13895667D02*
X12432104Y-13895667D01*
X12432104Y-13895667D02*
X12413056Y-13886143D01*
X12413056Y-13886143D02*
X12403533Y-13876619D01*
X12403533Y-13876619D02*
X12394009Y-13857572D01*
X12394009Y-13857572D02*
X12384485Y-13819476D01*
X12384485Y-13819476D02*
X12384485Y-13771857D01*
X12384485Y-13771857D02*
X12394009Y-13733762D01*
X12394009Y-13733762D02*
X12403533Y-13714715D01*
X12403533Y-13714715D02*
X12413056Y-13705191D01*
X12413056Y-13705191D02*
X12432104Y-13695667D01*
X12574961Y-13714715D02*
X12584485Y-13705191D01*
X12584485Y-13705191D02*
X12603533Y-13695667D01*
X12603533Y-13695667D02*
X12651152Y-13695667D01*
X12651152Y-13695667D02*
X12670199Y-13705191D01*
X12670199Y-13705191D02*
X12679723Y-13714715D01*
X12679723Y-13714715D02*
X12689247Y-13733762D01*
X12689247Y-13733762D02*
X12689247Y-13752810D01*
X12689247Y-13752810D02*
X12679723Y-13781381D01*
X12679723Y-13781381D02*
X12565437Y-13895667D01*
X12565437Y-13895667D02*
X12689247Y-13895667D01*
X12870199Y-13695667D02*
X12774961Y-13695667D01*
X12774961Y-13695667D02*
X12765437Y-13790905D01*
X12765437Y-13790905D02*
X12774961Y-13781381D01*
X12774961Y-13781381D02*
X12794009Y-13771857D01*
X12794009Y-13771857D02*
X12841628Y-13771857D01*
X12841628Y-13771857D02*
X12860676Y-13781381D01*
X12860676Y-13781381D02*
X12870199Y-13790905D01*
X12870199Y-13790905D02*
X12879723Y-13809953D01*
X12879723Y-13809953D02*
X12879723Y-13857572D01*
X12879723Y-13857572D02*
X12870199Y-13876619D01*
X12870199Y-13876619D02*
X12860676Y-13886143D01*
X12860676Y-13886143D02*
X12841628Y-13895667D01*
X12841628Y-13895667D02*
X12794009Y-13895667D01*
X12794009Y-13895667D02*
X12774961Y-13886143D01*
X12774961Y-13886143D02*
X12765437Y-13876619D01*
X13051152Y-13695667D02*
X13013056Y-13695667D01*
X13013056Y-13695667D02*
X12994009Y-13705191D01*
X12994009Y-13705191D02*
X12984485Y-13714715D01*
X12984485Y-13714715D02*
X12965437Y-13743286D01*
X12965437Y-13743286D02*
X12955914Y-13781381D01*
X12955914Y-13781381D02*
X12955914Y-13857572D01*
X12955914Y-13857572D02*
X12965437Y-13876619D01*
X12965437Y-13876619D02*
X12974961Y-13886143D01*
X12974961Y-13886143D02*
X12994009Y-13895667D01*
X12994009Y-13895667D02*
X13032104Y-13895667D01*
X13032104Y-13895667D02*
X13051152Y-13886143D01*
X13051152Y-13886143D02*
X13060676Y-13876619D01*
X13060676Y-13876619D02*
X13070199Y-13857572D01*
X13070199Y-13857572D02*
X13070199Y-13809953D01*
X13070199Y-13809953D02*
X13060676Y-13790905D01*
X13060676Y-13790905D02*
X13051152Y-13781381D01*
X13051152Y-13781381D02*
X13032104Y-13771857D01*
X13032104Y-13771857D02*
X12994009Y-13771857D01*
X12994009Y-13771857D02*
X12974961Y-13781381D01*
X12974961Y-13781381D02*
X12965437Y-13790905D01*
X12965437Y-13790905D02*
X12955914Y-13809953D01*
X13146390Y-13695667D02*
X13146390Y-13733762D01*
X13222580Y-13695667D02*
X13222580Y-13733762D01*
X13485438Y-13971857D02*
X13475914Y-13962334D01*
X13475914Y-13962334D02*
X13456866Y-13933762D01*
X13456866Y-13933762D02*
X13447342Y-13914715D01*
X13447342Y-13914715D02*
X13437818Y-13886143D01*
X13437818Y-13886143D02*
X13428295Y-13838524D01*
X13428295Y-13838524D02*
X13428295Y-13800429D01*
X13428295Y-13800429D02*
X13437818Y-13752810D01*
X13437818Y-13752810D02*
X13447342Y-13724238D01*
X13447342Y-13724238D02*
X13456866Y-13705191D01*
X13456866Y-13705191D02*
X13475914Y-13676619D01*
X13475914Y-13676619D02*
X13485438Y-13667095D01*
X13552104Y-13714715D02*
X13561628Y-13705191D01*
X13561628Y-13705191D02*
X13580676Y-13695667D01*
X13580676Y-13695667D02*
X13628295Y-13695667D01*
X13628295Y-13695667D02*
X13647342Y-13705191D01*
X13647342Y-13705191D02*
X13656866Y-13714715D01*
X13656866Y-13714715D02*
X13666390Y-13733762D01*
X13666390Y-13733762D02*
X13666390Y-13752810D01*
X13666390Y-13752810D02*
X13656866Y-13781381D01*
X13656866Y-13781381D02*
X13542580Y-13895667D01*
X13542580Y-13895667D02*
X13666390Y-13895667D01*
X13872104Y-13895667D02*
X13872104Y-13695667D01*
X13957818Y-13895667D02*
X13957818Y-13790905D01*
X13957818Y-13790905D02*
X13948295Y-13771857D01*
X13948295Y-13771857D02*
X13929247Y-13762334D01*
X13929247Y-13762334D02*
X13900676Y-13762334D01*
X13900676Y-13762334D02*
X13881628Y-13771857D01*
X13881628Y-13771857D02*
X13872104Y-13781381D01*
X14081628Y-13895667D02*
X14062580Y-13886143D01*
X14062580Y-13886143D02*
X14053057Y-13876619D01*
X14053057Y-13876619D02*
X14043533Y-13857572D01*
X14043533Y-13857572D02*
X14043533Y-13800429D01*
X14043533Y-13800429D02*
X14053057Y-13781381D01*
X14053057Y-13781381D02*
X14062580Y-13771857D01*
X14062580Y-13771857D02*
X14081628Y-13762334D01*
X14081628Y-13762334D02*
X14110199Y-13762334D01*
X14110199Y-13762334D02*
X14129247Y-13771857D01*
X14129247Y-13771857D02*
X14138771Y-13781381D01*
X14138771Y-13781381D02*
X14148295Y-13800429D01*
X14148295Y-13800429D02*
X14148295Y-13857572D01*
X14148295Y-13857572D02*
X14138771Y-13876619D01*
X14138771Y-13876619D02*
X14129247Y-13886143D01*
X14129247Y-13886143D02*
X14110199Y-13895667D01*
X14110199Y-13895667D02*
X14081628Y-13895667D01*
X14262580Y-13895667D02*
X14243533Y-13886143D01*
X14243533Y-13886143D02*
X14234009Y-13867095D01*
X14234009Y-13867095D02*
X14234009Y-13695667D01*
X14414961Y-13886143D02*
X14395914Y-13895667D01*
X14395914Y-13895667D02*
X14357818Y-13895667D01*
X14357818Y-13895667D02*
X14338771Y-13886143D01*
X14338771Y-13886143D02*
X14329247Y-13867095D01*
X14329247Y-13867095D02*
X14329247Y-13790905D01*
X14329247Y-13790905D02*
X14338771Y-13771857D01*
X14338771Y-13771857D02*
X14357818Y-13762334D01*
X14357818Y-13762334D02*
X14395914Y-13762334D01*
X14395914Y-13762334D02*
X14414961Y-13771857D01*
X14414961Y-13771857D02*
X14424485Y-13790905D01*
X14424485Y-13790905D02*
X14424485Y-13809953D01*
X14424485Y-13809953D02*
X14329247Y-13829000D01*
X14500676Y-13886143D02*
X14519723Y-13895667D01*
X14519723Y-13895667D02*
X14557818Y-13895667D01*
X14557818Y-13895667D02*
X14576866Y-13886143D01*
X14576866Y-13886143D02*
X14586390Y-13867095D01*
X14586390Y-13867095D02*
X14586390Y-13857572D01*
X14586390Y-13857572D02*
X14576866Y-13838524D01*
X14576866Y-13838524D02*
X14557818Y-13829000D01*
X14557818Y-13829000D02*
X14529247Y-13829000D01*
X14529247Y-13829000D02*
X14510199Y-13819476D01*
X14510199Y-13819476D02*
X14500676Y-13800429D01*
X14500676Y-13800429D02*
X14500676Y-13790905D01*
X14500676Y-13790905D02*
X14510199Y-13771857D01*
X14510199Y-13771857D02*
X14529247Y-13762334D01*
X14529247Y-13762334D02*
X14557818Y-13762334D01*
X14557818Y-13762334D02*
X14576866Y-13771857D01*
X14653057Y-13971857D02*
X14662580Y-13962334D01*
X14662580Y-13962334D02*
X14681628Y-13933762D01*
X14681628Y-13933762D02*
X14691152Y-13914715D01*
X14691152Y-13914715D02*
X14700676Y-13886143D01*
X14700676Y-13886143D02*
X14710199Y-13838524D01*
X14710199Y-13838524D02*
X14710199Y-13800429D01*
X14710199Y-13800429D02*
X14700676Y-13752810D01*
X14700676Y-13752810D02*
X14691152Y-13724238D01*
X14691152Y-13724238D02*
X14681628Y-13705191D01*
X14681628Y-13705191D02*
X14662580Y-13676619D01*
X14662580Y-13676619D02*
X14653057Y-13667095D01*
X14982580Y-13971857D02*
X14973057Y-13962334D01*
X14973057Y-13962334D02*
X14954009Y-13933762D01*
X14954009Y-13933762D02*
X14944485Y-13914715D01*
X14944485Y-13914715D02*
X14934961Y-13886143D01*
X14934961Y-13886143D02*
X14925438Y-13838524D01*
X14925438Y-13838524D02*
X14925438Y-13800429D01*
X14925438Y-13800429D02*
X14934961Y-13752810D01*
X14934961Y-13752810D02*
X14944485Y-13724238D01*
X14944485Y-13724238D02*
X14954009Y-13705191D01*
X14954009Y-13705191D02*
X14973057Y-13676619D01*
X14973057Y-13676619D02*
X14982580Y-13667095D01*
X15058771Y-13762334D02*
X15058771Y-13895667D01*
X15058771Y-13781381D02*
X15068295Y-13771857D01*
X15068295Y-13771857D02*
X15087342Y-13762334D01*
X15087342Y-13762334D02*
X15115914Y-13762334D01*
X15115914Y-13762334D02*
X15134961Y-13771857D01*
X15134961Y-13771857D02*
X15144485Y-13790905D01*
X15144485Y-13790905D02*
X15144485Y-13895667D01*
X15268295Y-13895667D02*
X15249247Y-13886143D01*
X15249247Y-13886143D02*
X15239723Y-13876619D01*
X15239723Y-13876619D02*
X15230199Y-13857572D01*
X15230199Y-13857572D02*
X15230199Y-13800429D01*
X15230199Y-13800429D02*
X15239723Y-13781381D01*
X15239723Y-13781381D02*
X15249247Y-13771857D01*
X15249247Y-13771857D02*
X15268295Y-13762334D01*
X15268295Y-13762334D02*
X15296866Y-13762334D01*
X15296866Y-13762334D02*
X15315914Y-13771857D01*
X15315914Y-13771857D02*
X15325438Y-13781381D01*
X15325438Y-13781381D02*
X15334961Y-13800429D01*
X15334961Y-13800429D02*
X15334961Y-13857572D01*
X15334961Y-13857572D02*
X15325438Y-13876619D01*
X15325438Y-13876619D02*
X15315914Y-13886143D01*
X15315914Y-13886143D02*
X15296866Y-13895667D01*
X15296866Y-13895667D02*
X15268295Y-13895667D01*
X15392104Y-13762334D02*
X15468295Y-13762334D01*
X15420676Y-13695667D02*
X15420676Y-13867095D01*
X15420676Y-13867095D02*
X15430199Y-13886143D01*
X15430199Y-13886143D02*
X15449247Y-13895667D01*
X15449247Y-13895667D02*
X15468295Y-13895667D01*
X15654961Y-13762334D02*
X15654961Y-13962334D01*
X15654961Y-13771857D02*
X15674009Y-13762334D01*
X15674009Y-13762334D02*
X15712104Y-13762334D01*
X15712104Y-13762334D02*
X15731152Y-13771857D01*
X15731152Y-13771857D02*
X15740676Y-13781381D01*
X15740676Y-13781381D02*
X15750199Y-13800429D01*
X15750199Y-13800429D02*
X15750199Y-13857572D01*
X15750199Y-13857572D02*
X15740676Y-13876619D01*
X15740676Y-13876619D02*
X15731152Y-13886143D01*
X15731152Y-13886143D02*
X15712104Y-13895667D01*
X15712104Y-13895667D02*
X15674009Y-13895667D01*
X15674009Y-13895667D02*
X15654961Y-13886143D01*
X15864485Y-13895667D02*
X15845438Y-13886143D01*
X15845438Y-13886143D02*
X15835914Y-13867095D01*
X15835914Y-13867095D02*
X15835914Y-13695667D01*
X16026390Y-13895667D02*
X16026390Y-13790905D01*
X16026390Y-13790905D02*
X16016866Y-13771857D01*
X16016866Y-13771857D02*
X15997819Y-13762334D01*
X15997819Y-13762334D02*
X15959723Y-13762334D01*
X15959723Y-13762334D02*
X15940676Y-13771857D01*
X16026390Y-13886143D02*
X16007342Y-13895667D01*
X16007342Y-13895667D02*
X15959723Y-13895667D01*
X15959723Y-13895667D02*
X15940676Y-13886143D01*
X15940676Y-13886143D02*
X15931152Y-13867095D01*
X15931152Y-13867095D02*
X15931152Y-13848048D01*
X15931152Y-13848048D02*
X15940676Y-13829000D01*
X15940676Y-13829000D02*
X15959723Y-13819476D01*
X15959723Y-13819476D02*
X16007342Y-13819476D01*
X16007342Y-13819476D02*
X16026390Y-13809953D01*
X16093057Y-13762334D02*
X16169247Y-13762334D01*
X16121628Y-13695667D02*
X16121628Y-13867095D01*
X16121628Y-13867095D02*
X16131152Y-13886143D01*
X16131152Y-13886143D02*
X16150199Y-13895667D01*
X16150199Y-13895667D02*
X16169247Y-13895667D01*
X16312104Y-13886143D02*
X16293057Y-13895667D01*
X16293057Y-13895667D02*
X16254961Y-13895667D01*
X16254961Y-13895667D02*
X16235914Y-13886143D01*
X16235914Y-13886143D02*
X16226390Y-13867095D01*
X16226390Y-13867095D02*
X16226390Y-13790905D01*
X16226390Y-13790905D02*
X16235914Y-13771857D01*
X16235914Y-13771857D02*
X16254961Y-13762334D01*
X16254961Y-13762334D02*
X16293057Y-13762334D01*
X16293057Y-13762334D02*
X16312104Y-13771857D01*
X16312104Y-13771857D02*
X16321628Y-13790905D01*
X16321628Y-13790905D02*
X16321628Y-13809953D01*
X16321628Y-13809953D02*
X16226390Y-13829000D01*
X16493057Y-13895667D02*
X16493057Y-13695667D01*
X16493057Y-13886143D02*
X16474009Y-13895667D01*
X16474009Y-13895667D02*
X16435914Y-13895667D01*
X16435914Y-13895667D02*
X16416866Y-13886143D01*
X16416866Y-13886143D02*
X16407342Y-13876619D01*
X16407342Y-13876619D02*
X16397819Y-13857572D01*
X16397819Y-13857572D02*
X16397819Y-13800429D01*
X16397819Y-13800429D02*
X16407342Y-13781381D01*
X16407342Y-13781381D02*
X16416866Y-13771857D01*
X16416866Y-13771857D02*
X16435914Y-13762334D01*
X16435914Y-13762334D02*
X16474009Y-13762334D01*
X16474009Y-13762334D02*
X16493057Y-13771857D01*
X16569247Y-13971857D02*
X16578771Y-13962334D01*
X16578771Y-13962334D02*
X16597819Y-13933762D01*
X16597819Y-13933762D02*
X16607342Y-13914715D01*
X16607342Y-13914715D02*
X16616866Y-13886143D01*
X16616866Y-13886143D02*
X16626390Y-13838524D01*
X16626390Y-13838524D02*
X16626390Y-13800429D01*
X16626390Y-13800429D02*
X16616866Y-13752810D01*
X16616866Y-13752810D02*
X16607342Y-13724238D01*
X16607342Y-13724238D02*
X16597819Y-13705191D01*
X16597819Y-13705191D02*
X16578771Y-13676619D01*
X16578771Y-13676619D02*
X16569247Y-13667095D01*
X10020676Y-14086191D02*
G75*
G03*
X10020676Y-14086191I-100000J0D01*
G01*
X10249247Y-13959667D02*
X10373056Y-13959667D01*
X10373056Y-13959667D02*
X10306390Y-14035857D01*
X10306390Y-14035857D02*
X10334961Y-14035857D01*
X10334961Y-14035857D02*
X10354009Y-14045381D01*
X10354009Y-14045381D02*
X10363533Y-14054905D01*
X10363533Y-14054905D02*
X10373056Y-14073953D01*
X10373056Y-14073953D02*
X10373056Y-14121572D01*
X10373056Y-14121572D02*
X10363533Y-14140619D01*
X10363533Y-14140619D02*
X10354009Y-14150143D01*
X10354009Y-14150143D02*
X10334961Y-14159667D01*
X10334961Y-14159667D02*
X10277818Y-14159667D01*
X10277818Y-14159667D02*
X10258771Y-14150143D01*
X10258771Y-14150143D02*
X10249247Y-14140619D01*
X10458771Y-14140619D02*
X10468295Y-14150143D01*
X10468295Y-14150143D02*
X10458771Y-14159667D01*
X10458771Y-14159667D02*
X10449247Y-14150143D01*
X10449247Y-14150143D02*
X10458771Y-14140619D01*
X10458771Y-14140619D02*
X10458771Y-14159667D01*
X10649247Y-13959667D02*
X10554009Y-13959667D01*
X10554009Y-13959667D02*
X10544485Y-14054905D01*
X10544485Y-14054905D02*
X10554009Y-14045381D01*
X10554009Y-14045381D02*
X10573056Y-14035857D01*
X10573056Y-14035857D02*
X10620676Y-14035857D01*
X10620676Y-14035857D02*
X10639723Y-14045381D01*
X10639723Y-14045381D02*
X10649247Y-14054905D01*
X10649247Y-14054905D02*
X10658771Y-14073953D01*
X10658771Y-14073953D02*
X10658771Y-14121572D01*
X10658771Y-14121572D02*
X10649247Y-14140619D01*
X10649247Y-14140619D02*
X10639723Y-14150143D01*
X10639723Y-14150143D02*
X10620676Y-14159667D01*
X10620676Y-14159667D02*
X10573056Y-14159667D01*
X10573056Y-14159667D02*
X10554009Y-14150143D01*
X10554009Y-14150143D02*
X10544485Y-14140619D01*
X10782580Y-13959667D02*
X10801628Y-13959667D01*
X10801628Y-13959667D02*
X10820676Y-13969191D01*
X10820676Y-13969191D02*
X10830199Y-13978715D01*
X10830199Y-13978715D02*
X10839723Y-13997762D01*
X10839723Y-13997762D02*
X10849247Y-14035857D01*
X10849247Y-14035857D02*
X10849247Y-14083476D01*
X10849247Y-14083476D02*
X10839723Y-14121572D01*
X10839723Y-14121572D02*
X10830199Y-14140619D01*
X10830199Y-14140619D02*
X10820676Y-14150143D01*
X10820676Y-14150143D02*
X10801628Y-14159667D01*
X10801628Y-14159667D02*
X10782580Y-14159667D01*
X10782580Y-14159667D02*
X10763533Y-14150143D01*
X10763533Y-14150143D02*
X10754009Y-14140619D01*
X10754009Y-14140619D02*
X10744485Y-14121572D01*
X10744485Y-14121572D02*
X10734961Y-14083476D01*
X10734961Y-14083476D02*
X10734961Y-14035857D01*
X10734961Y-14035857D02*
X10744485Y-13997762D01*
X10744485Y-13997762D02*
X10754009Y-13978715D01*
X10754009Y-13978715D02*
X10763533Y-13969191D01*
X10763533Y-13969191D02*
X10782580Y-13959667D01*
X10973056Y-13959667D02*
X10992104Y-13959667D01*
X10992104Y-13959667D02*
X11011152Y-13969191D01*
X11011152Y-13969191D02*
X11020676Y-13978715D01*
X11020676Y-13978715D02*
X11030199Y-13997762D01*
X11030199Y-13997762D02*
X11039723Y-14035857D01*
X11039723Y-14035857D02*
X11039723Y-14083476D01*
X11039723Y-14083476D02*
X11030199Y-14121572D01*
X11030199Y-14121572D02*
X11020676Y-14140619D01*
X11020676Y-14140619D02*
X11011152Y-14150143D01*
X11011152Y-14150143D02*
X10992104Y-14159667D01*
X10992104Y-14159667D02*
X10973056Y-14159667D01*
X10973056Y-14159667D02*
X10954009Y-14150143D01*
X10954009Y-14150143D02*
X10944485Y-14140619D01*
X10944485Y-14140619D02*
X10934961Y-14121572D01*
X10934961Y-14121572D02*
X10925437Y-14083476D01*
X10925437Y-14083476D02*
X10925437Y-14035857D01*
X10925437Y-14035857D02*
X10934961Y-13997762D01*
X10934961Y-13997762D02*
X10944485Y-13978715D01*
X10944485Y-13978715D02*
X10954009Y-13969191D01*
X10954009Y-13969191D02*
X10973056Y-13959667D01*
X11125437Y-14159667D02*
X11125437Y-14026334D01*
X11125437Y-14045381D02*
X11134961Y-14035857D01*
X11134961Y-14035857D02*
X11154009Y-14026334D01*
X11154009Y-14026334D02*
X11182580Y-14026334D01*
X11182580Y-14026334D02*
X11201628Y-14035857D01*
X11201628Y-14035857D02*
X11211152Y-14054905D01*
X11211152Y-14054905D02*
X11211152Y-14159667D01*
X11211152Y-14054905D02*
X11220675Y-14035857D01*
X11220675Y-14035857D02*
X11239723Y-14026334D01*
X11239723Y-14026334D02*
X11268294Y-14026334D01*
X11268294Y-14026334D02*
X11287342Y-14035857D01*
X11287342Y-14035857D02*
X11296866Y-14054905D01*
X11296866Y-14054905D02*
X11296866Y-14159667D01*
X11392104Y-14159667D02*
X11392104Y-14026334D01*
X11392104Y-14045381D02*
X11401628Y-14035857D01*
X11401628Y-14035857D02*
X11420675Y-14026334D01*
X11420675Y-14026334D02*
X11449247Y-14026334D01*
X11449247Y-14026334D02*
X11468295Y-14035857D01*
X11468295Y-14035857D02*
X11477818Y-14054905D01*
X11477818Y-14054905D02*
X11477818Y-14159667D01*
X11477818Y-14054905D02*
X11487342Y-14035857D01*
X11487342Y-14035857D02*
X11506390Y-14026334D01*
X11506390Y-14026334D02*
X11534961Y-14026334D01*
X11534961Y-14026334D02*
X11554009Y-14035857D01*
X11554009Y-14035857D02*
X11563533Y-14054905D01*
X11563533Y-14054905D02*
X11563533Y-14159667D01*
X11921628Y-13950143D02*
X11750199Y-14207286D01*
X12146390Y-13959667D02*
X12165437Y-13959667D01*
X12165437Y-13959667D02*
X12184485Y-13969191D01*
X12184485Y-13969191D02*
X12194009Y-13978715D01*
X12194009Y-13978715D02*
X12203533Y-13997762D01*
X12203533Y-13997762D02*
X12213056Y-14035857D01*
X12213056Y-14035857D02*
X12213056Y-14083476D01*
X12213056Y-14083476D02*
X12203533Y-14121572D01*
X12203533Y-14121572D02*
X12194009Y-14140619D01*
X12194009Y-14140619D02*
X12184485Y-14150143D01*
X12184485Y-14150143D02*
X12165437Y-14159667D01*
X12165437Y-14159667D02*
X12146390Y-14159667D01*
X12146390Y-14159667D02*
X12127342Y-14150143D01*
X12127342Y-14150143D02*
X12117818Y-14140619D01*
X12117818Y-14140619D02*
X12108295Y-14121572D01*
X12108295Y-14121572D02*
X12098771Y-14083476D01*
X12098771Y-14083476D02*
X12098771Y-14035857D01*
X12098771Y-14035857D02*
X12108295Y-13997762D01*
X12108295Y-13997762D02*
X12117818Y-13978715D01*
X12117818Y-13978715D02*
X12127342Y-13969191D01*
X12127342Y-13969191D02*
X12146390Y-13959667D01*
X12298771Y-14140619D02*
X12308295Y-14150143D01*
X12308295Y-14150143D02*
X12298771Y-14159667D01*
X12298771Y-14159667D02*
X12289247Y-14150143D01*
X12289247Y-14150143D02*
X12298771Y-14140619D01*
X12298771Y-14140619D02*
X12298771Y-14159667D01*
X12498771Y-14159667D02*
X12384485Y-14159667D01*
X12441628Y-14159667D02*
X12441628Y-13959667D01*
X12441628Y-13959667D02*
X12422580Y-13988238D01*
X12422580Y-13988238D02*
X12403533Y-14007286D01*
X12403533Y-14007286D02*
X12384485Y-14016810D01*
X12565437Y-13959667D02*
X12689247Y-13959667D01*
X12689247Y-13959667D02*
X12622580Y-14035857D01*
X12622580Y-14035857D02*
X12651152Y-14035857D01*
X12651152Y-14035857D02*
X12670199Y-14045381D01*
X12670199Y-14045381D02*
X12679723Y-14054905D01*
X12679723Y-14054905D02*
X12689247Y-14073953D01*
X12689247Y-14073953D02*
X12689247Y-14121572D01*
X12689247Y-14121572D02*
X12679723Y-14140619D01*
X12679723Y-14140619D02*
X12670199Y-14150143D01*
X12670199Y-14150143D02*
X12651152Y-14159667D01*
X12651152Y-14159667D02*
X12594009Y-14159667D01*
X12594009Y-14159667D02*
X12574961Y-14150143D01*
X12574961Y-14150143D02*
X12565437Y-14140619D01*
X12755914Y-13959667D02*
X12889247Y-13959667D01*
X12889247Y-13959667D02*
X12803533Y-14159667D01*
X12994009Y-14045381D02*
X12974961Y-14035857D01*
X12974961Y-14035857D02*
X12965437Y-14026334D01*
X12965437Y-14026334D02*
X12955914Y-14007286D01*
X12955914Y-14007286D02*
X12955914Y-13997762D01*
X12955914Y-13997762D02*
X12965437Y-13978715D01*
X12965437Y-13978715D02*
X12974961Y-13969191D01*
X12974961Y-13969191D02*
X12994009Y-13959667D01*
X12994009Y-13959667D02*
X13032104Y-13959667D01*
X13032104Y-13959667D02*
X13051152Y-13969191D01*
X13051152Y-13969191D02*
X13060676Y-13978715D01*
X13060676Y-13978715D02*
X13070199Y-13997762D01*
X13070199Y-13997762D02*
X13070199Y-14007286D01*
X13070199Y-14007286D02*
X13060676Y-14026334D01*
X13060676Y-14026334D02*
X13051152Y-14035857D01*
X13051152Y-14035857D02*
X13032104Y-14045381D01*
X13032104Y-14045381D02*
X12994009Y-14045381D01*
X12994009Y-14045381D02*
X12974961Y-14054905D01*
X12974961Y-14054905D02*
X12965437Y-14064429D01*
X12965437Y-14064429D02*
X12955914Y-14083476D01*
X12955914Y-14083476D02*
X12955914Y-14121572D01*
X12955914Y-14121572D02*
X12965437Y-14140619D01*
X12965437Y-14140619D02*
X12974961Y-14150143D01*
X12974961Y-14150143D02*
X12994009Y-14159667D01*
X12994009Y-14159667D02*
X13032104Y-14159667D01*
X13032104Y-14159667D02*
X13051152Y-14150143D01*
X13051152Y-14150143D02*
X13060676Y-14140619D01*
X13060676Y-14140619D02*
X13070199Y-14121572D01*
X13070199Y-14121572D02*
X13070199Y-14083476D01*
X13070199Y-14083476D02*
X13060676Y-14064429D01*
X13060676Y-14064429D02*
X13051152Y-14054905D01*
X13051152Y-14054905D02*
X13032104Y-14045381D01*
X13146390Y-13959667D02*
X13146390Y-13997762D01*
X13222580Y-13959667D02*
X13222580Y-13997762D01*
X13485438Y-14235857D02*
X13475914Y-14226334D01*
X13475914Y-14226334D02*
X13456866Y-14197762D01*
X13456866Y-14197762D02*
X13447342Y-14178715D01*
X13447342Y-14178715D02*
X13437818Y-14150143D01*
X13437818Y-14150143D02*
X13428295Y-14102524D01*
X13428295Y-14102524D02*
X13428295Y-14064429D01*
X13428295Y-14064429D02*
X13437818Y-14016810D01*
X13437818Y-14016810D02*
X13447342Y-13988238D01*
X13447342Y-13988238D02*
X13456866Y-13969191D01*
X13456866Y-13969191D02*
X13475914Y-13940619D01*
X13475914Y-13940619D02*
X13485438Y-13931095D01*
X13647342Y-14026334D02*
X13647342Y-14159667D01*
X13599723Y-13950143D02*
X13552104Y-14093000D01*
X13552104Y-14093000D02*
X13675914Y-14093000D01*
X13872104Y-14159667D02*
X13872104Y-13959667D01*
X13957818Y-14159667D02*
X13957818Y-14054905D01*
X13957818Y-14054905D02*
X13948295Y-14035857D01*
X13948295Y-14035857D02*
X13929247Y-14026334D01*
X13929247Y-14026334D02*
X13900676Y-14026334D01*
X13900676Y-14026334D02*
X13881628Y-14035857D01*
X13881628Y-14035857D02*
X13872104Y-14045381D01*
X14081628Y-14159667D02*
X14062580Y-14150143D01*
X14062580Y-14150143D02*
X14053057Y-14140619D01*
X14053057Y-14140619D02*
X14043533Y-14121572D01*
X14043533Y-14121572D02*
X14043533Y-14064429D01*
X14043533Y-14064429D02*
X14053057Y-14045381D01*
X14053057Y-14045381D02*
X14062580Y-14035857D01*
X14062580Y-14035857D02*
X14081628Y-14026334D01*
X14081628Y-14026334D02*
X14110199Y-14026334D01*
X14110199Y-14026334D02*
X14129247Y-14035857D01*
X14129247Y-14035857D02*
X14138771Y-14045381D01*
X14138771Y-14045381D02*
X14148295Y-14064429D01*
X14148295Y-14064429D02*
X14148295Y-14121572D01*
X14148295Y-14121572D02*
X14138771Y-14140619D01*
X14138771Y-14140619D02*
X14129247Y-14150143D01*
X14129247Y-14150143D02*
X14110199Y-14159667D01*
X14110199Y-14159667D02*
X14081628Y-14159667D01*
X14262580Y-14159667D02*
X14243533Y-14150143D01*
X14243533Y-14150143D02*
X14234009Y-14131095D01*
X14234009Y-14131095D02*
X14234009Y-13959667D01*
X14414961Y-14150143D02*
X14395914Y-14159667D01*
X14395914Y-14159667D02*
X14357818Y-14159667D01*
X14357818Y-14159667D02*
X14338771Y-14150143D01*
X14338771Y-14150143D02*
X14329247Y-14131095D01*
X14329247Y-14131095D02*
X14329247Y-14054905D01*
X14329247Y-14054905D02*
X14338771Y-14035857D01*
X14338771Y-14035857D02*
X14357818Y-14026334D01*
X14357818Y-14026334D02*
X14395914Y-14026334D01*
X14395914Y-14026334D02*
X14414961Y-14035857D01*
X14414961Y-14035857D02*
X14424485Y-14054905D01*
X14424485Y-14054905D02*
X14424485Y-14073953D01*
X14424485Y-14073953D02*
X14329247Y-14093000D01*
X14500676Y-14150143D02*
X14519723Y-14159667D01*
X14519723Y-14159667D02*
X14557818Y-14159667D01*
X14557818Y-14159667D02*
X14576866Y-14150143D01*
X14576866Y-14150143D02*
X14586390Y-14131095D01*
X14586390Y-14131095D02*
X14586390Y-14121572D01*
X14586390Y-14121572D02*
X14576866Y-14102524D01*
X14576866Y-14102524D02*
X14557818Y-14093000D01*
X14557818Y-14093000D02*
X14529247Y-14093000D01*
X14529247Y-14093000D02*
X14510199Y-14083476D01*
X14510199Y-14083476D02*
X14500676Y-14064429D01*
X14500676Y-14064429D02*
X14500676Y-14054905D01*
X14500676Y-14054905D02*
X14510199Y-14035857D01*
X14510199Y-14035857D02*
X14529247Y-14026334D01*
X14529247Y-14026334D02*
X14557818Y-14026334D01*
X14557818Y-14026334D02*
X14576866Y-14035857D01*
X14653057Y-14235857D02*
X14662580Y-14226334D01*
X14662580Y-14226334D02*
X14681628Y-14197762D01*
X14681628Y-14197762D02*
X14691152Y-14178715D01*
X14691152Y-14178715D02*
X14700676Y-14150143D01*
X14700676Y-14150143D02*
X14710199Y-14102524D01*
X14710199Y-14102524D02*
X14710199Y-14064429D01*
X14710199Y-14064429D02*
X14700676Y-14016810D01*
X14700676Y-14016810D02*
X14691152Y-13988238D01*
X14691152Y-13988238D02*
X14681628Y-13969191D01*
X14681628Y-13969191D02*
X14662580Y-13940619D01*
X14662580Y-13940619D02*
X14653057Y-13931095D01*
X14982580Y-14235857D02*
X14973057Y-14226334D01*
X14973057Y-14226334D02*
X14954009Y-14197762D01*
X14954009Y-14197762D02*
X14944485Y-14178715D01*
X14944485Y-14178715D02*
X14934961Y-14150143D01*
X14934961Y-14150143D02*
X14925438Y-14102524D01*
X14925438Y-14102524D02*
X14925438Y-14064429D01*
X14925438Y-14064429D02*
X14934961Y-14016810D01*
X14934961Y-14016810D02*
X14944485Y-13988238D01*
X14944485Y-13988238D02*
X14954009Y-13969191D01*
X14954009Y-13969191D02*
X14973057Y-13940619D01*
X14973057Y-13940619D02*
X14982580Y-13931095D01*
X15058771Y-14026334D02*
X15058771Y-14159667D01*
X15058771Y-14045381D02*
X15068295Y-14035857D01*
X15068295Y-14035857D02*
X15087342Y-14026334D01*
X15087342Y-14026334D02*
X15115914Y-14026334D01*
X15115914Y-14026334D02*
X15134961Y-14035857D01*
X15134961Y-14035857D02*
X15144485Y-14054905D01*
X15144485Y-14054905D02*
X15144485Y-14159667D01*
X15268295Y-14159667D02*
X15249247Y-14150143D01*
X15249247Y-14150143D02*
X15239723Y-14140619D01*
X15239723Y-14140619D02*
X15230199Y-14121572D01*
X15230199Y-14121572D02*
X15230199Y-14064429D01*
X15230199Y-14064429D02*
X15239723Y-14045381D01*
X15239723Y-14045381D02*
X15249247Y-14035857D01*
X15249247Y-14035857D02*
X15268295Y-14026334D01*
X15268295Y-14026334D02*
X15296866Y-14026334D01*
X15296866Y-14026334D02*
X15315914Y-14035857D01*
X15315914Y-14035857D02*
X15325438Y-14045381D01*
X15325438Y-14045381D02*
X15334961Y-14064429D01*
X15334961Y-14064429D02*
X15334961Y-14121572D01*
X15334961Y-14121572D02*
X15325438Y-14140619D01*
X15325438Y-14140619D02*
X15315914Y-14150143D01*
X15315914Y-14150143D02*
X15296866Y-14159667D01*
X15296866Y-14159667D02*
X15268295Y-14159667D01*
X15392104Y-14026334D02*
X15468295Y-14026334D01*
X15420676Y-13959667D02*
X15420676Y-14131095D01*
X15420676Y-14131095D02*
X15430199Y-14150143D01*
X15430199Y-14150143D02*
X15449247Y-14159667D01*
X15449247Y-14159667D02*
X15468295Y-14159667D01*
X15654961Y-14026334D02*
X15654961Y-14226334D01*
X15654961Y-14035857D02*
X15674009Y-14026334D01*
X15674009Y-14026334D02*
X15712104Y-14026334D01*
X15712104Y-14026334D02*
X15731152Y-14035857D01*
X15731152Y-14035857D02*
X15740676Y-14045381D01*
X15740676Y-14045381D02*
X15750199Y-14064429D01*
X15750199Y-14064429D02*
X15750199Y-14121572D01*
X15750199Y-14121572D02*
X15740676Y-14140619D01*
X15740676Y-14140619D02*
X15731152Y-14150143D01*
X15731152Y-14150143D02*
X15712104Y-14159667D01*
X15712104Y-14159667D02*
X15674009Y-14159667D01*
X15674009Y-14159667D02*
X15654961Y-14150143D01*
X15864485Y-14159667D02*
X15845438Y-14150143D01*
X15845438Y-14150143D02*
X15835914Y-14131095D01*
X15835914Y-14131095D02*
X15835914Y-13959667D01*
X16026390Y-14159667D02*
X16026390Y-14054905D01*
X16026390Y-14054905D02*
X16016866Y-14035857D01*
X16016866Y-14035857D02*
X15997819Y-14026334D01*
X15997819Y-14026334D02*
X15959723Y-14026334D01*
X15959723Y-14026334D02*
X15940676Y-14035857D01*
X16026390Y-14150143D02*
X16007342Y-14159667D01*
X16007342Y-14159667D02*
X15959723Y-14159667D01*
X15959723Y-14159667D02*
X15940676Y-14150143D01*
X15940676Y-14150143D02*
X15931152Y-14131095D01*
X15931152Y-14131095D02*
X15931152Y-14112048D01*
X15931152Y-14112048D02*
X15940676Y-14093000D01*
X15940676Y-14093000D02*
X15959723Y-14083476D01*
X15959723Y-14083476D02*
X16007342Y-14083476D01*
X16007342Y-14083476D02*
X16026390Y-14073953D01*
X16093057Y-14026334D02*
X16169247Y-14026334D01*
X16121628Y-13959667D02*
X16121628Y-14131095D01*
X16121628Y-14131095D02*
X16131152Y-14150143D01*
X16131152Y-14150143D02*
X16150199Y-14159667D01*
X16150199Y-14159667D02*
X16169247Y-14159667D01*
X16312104Y-14150143D02*
X16293057Y-14159667D01*
X16293057Y-14159667D02*
X16254961Y-14159667D01*
X16254961Y-14159667D02*
X16235914Y-14150143D01*
X16235914Y-14150143D02*
X16226390Y-14131095D01*
X16226390Y-14131095D02*
X16226390Y-14054905D01*
X16226390Y-14054905D02*
X16235914Y-14035857D01*
X16235914Y-14035857D02*
X16254961Y-14026334D01*
X16254961Y-14026334D02*
X16293057Y-14026334D01*
X16293057Y-14026334D02*
X16312104Y-14035857D01*
X16312104Y-14035857D02*
X16321628Y-14054905D01*
X16321628Y-14054905D02*
X16321628Y-14073953D01*
X16321628Y-14073953D02*
X16226390Y-14093000D01*
X16493057Y-14159667D02*
X16493057Y-13959667D01*
X16493057Y-14150143D02*
X16474009Y-14159667D01*
X16474009Y-14159667D02*
X16435914Y-14159667D01*
X16435914Y-14159667D02*
X16416866Y-14150143D01*
X16416866Y-14150143D02*
X16407342Y-14140619D01*
X16407342Y-14140619D02*
X16397819Y-14121572D01*
X16397819Y-14121572D02*
X16397819Y-14064429D01*
X16397819Y-14064429D02*
X16407342Y-14045381D01*
X16407342Y-14045381D02*
X16416866Y-14035857D01*
X16416866Y-14035857D02*
X16435914Y-14026334D01*
X16435914Y-14026334D02*
X16474009Y-14026334D01*
X16474009Y-14026334D02*
X16493057Y-14035857D01*
X16569247Y-14235857D02*
X16578771Y-14226334D01*
X16578771Y-14226334D02*
X16597819Y-14197762D01*
X16597819Y-14197762D02*
X16607342Y-14178715D01*
X16607342Y-14178715D02*
X16616866Y-14150143D01*
X16616866Y-14150143D02*
X16626390Y-14102524D01*
X16626390Y-14102524D02*
X16626390Y-14064429D01*
X16626390Y-14064429D02*
X16616866Y-14016810D01*
X16616866Y-14016810D02*
X16607342Y-13988238D01*
X16607342Y-13988238D02*
X16597819Y-13969191D01*
X16597819Y-13969191D02*
X16578771Y-13940619D01*
X16578771Y-13940619D02*
X16569247Y-13931095D01*
M02*
