%TF.GenerationSoftware,KiCad,Pcbnew,(7.0.0)*%
%TF.CreationDate,2023-04-13T18:09:42+05:30*%
%TF.ProjectId,smart_toilet,736d6172-745f-4746-9f69-6c65742e6b69,rev?*%
%TF.SameCoordinates,Original*%
%TF.FileFunction,Paste,Top*%
%TF.FilePolarity,Positive*%
%FSLAX46Y46*%
G04 Gerber Fmt 4.6, Leading zero omitted, Abs format (unit mm)*
G04 Created by KiCad (PCBNEW (7.0.0)) date 2023-04-13 18:09:42*
%MOMM*%
%LPD*%
G01*
G04 APERTURE LIST*
G04 Aperture macros list*
%AMRoundRect*
0 Rectangle with rounded corners*
0 $1 Rounding radius*
0 $2 $3 $4 $5 $6 $7 $8 $9 X,Y pos of 4 corners*
0 Add a 4 corners polygon primitive as box body*
4,1,4,$2,$3,$4,$5,$6,$7,$8,$9,$2,$3,0*
0 Add four circle primitives for the rounded corners*
1,1,$1+$1,$2,$3*
1,1,$1+$1,$4,$5*
1,1,$1+$1,$6,$7*
1,1,$1+$1,$8,$9*
0 Add four rect primitives between the rounded corners*
20,1,$1+$1,$2,$3,$4,$5,0*
20,1,$1+$1,$4,$5,$6,$7,0*
20,1,$1+$1,$6,$7,$8,$9,0*
20,1,$1+$1,$8,$9,$2,$3,0*%
%AMFreePoly0*
4,1,11,1.467500,1.700000,0.527500,0.844500,0.527500,-0.844500,1.467500,-1.700000,1.467500,-2.755000,0.527500,-2.755000,-0.527500,-1.700000,-0.527500,1.700000,0.527500,2.755000,1.467500,2.755000,1.467500,1.700000,1.467500,1.700000,$1*%
%AMFreePoly1*
4,1,11,0.527500,1.700000,0.527500,-1.700000,-0.527500,-2.755000,-1.467500,-2.755000,-1.467500,-1.700000,-0.527500,-0.844500,-0.527500,0.844500,-1.467500,1.700000,-1.467500,2.755000,-0.527500,2.755000,0.527500,1.700000,0.527500,1.700000,$1*%
%AMFreePoly2*
4,1,9,3.862500,-0.866500,0.737500,-0.866500,0.737500,-0.450000,-0.737500,-0.450000,-0.737500,0.450000,0.737500,0.450000,0.737500,0.866500,3.862500,0.866500,3.862500,-0.866500,3.862500,-0.866500,$1*%
G04 Aperture macros list end*
%ADD10RoundRect,0.250000X-0.450000X0.350000X-0.450000X-0.350000X0.450000X-0.350000X0.450000X0.350000X0*%
%ADD11RoundRect,0.250000X0.450000X-0.350000X0.450000X0.350000X-0.450000X0.350000X-0.450000X-0.350000X0*%
%ADD12RoundRect,0.250000X-0.350000X-0.450000X0.350000X-0.450000X0.350000X0.450000X-0.350000X0.450000X0*%
%ADD13RoundRect,0.150000X-0.587500X-0.150000X0.587500X-0.150000X0.587500X0.150000X-0.587500X0.150000X0*%
%ADD14RoundRect,0.237500X-0.237500X0.250000X-0.237500X-0.250000X0.237500X-0.250000X0.237500X0.250000X0*%
%ADD15RoundRect,0.237500X0.250000X0.237500X-0.250000X0.237500X-0.250000X-0.237500X0.250000X-0.237500X0*%
%ADD16RoundRect,0.237500X0.237500X-0.300000X0.237500X0.300000X-0.237500X0.300000X-0.237500X-0.300000X0*%
%ADD17R,1.450000X0.600000*%
%ADD18R,1.450000X0.300000*%
%ADD19RoundRect,0.250000X1.000000X0.650000X-1.000000X0.650000X-1.000000X-0.650000X1.000000X-0.650000X0*%
%ADD20RoundRect,0.200000X-0.800000X0.200000X-0.800000X-0.200000X0.800000X-0.200000X0.800000X0.200000X0*%
%ADD21R,0.650000X1.560000*%
%ADD22RoundRect,0.237500X-0.237500X0.300000X-0.237500X-0.300000X0.237500X-0.300000X0.237500X0.300000X0*%
%ADD23RoundRect,0.237500X0.237500X-0.287500X0.237500X0.287500X-0.237500X0.287500X-0.237500X-0.287500X0*%
%ADD24RoundRect,0.150000X-0.150000X0.587500X-0.150000X-0.587500X0.150000X-0.587500X0.150000X0.587500X0*%
%ADD25FreePoly0,270.000000*%
%ADD26FreePoly1,270.000000*%
%ADD27RoundRect,0.041300X0.748700X0.253700X-0.748700X0.253700X-0.748700X-0.253700X0.748700X-0.253700X0*%
%ADD28RoundRect,0.237500X-0.300000X-0.237500X0.300000X-0.237500X0.300000X0.237500X-0.300000X0.237500X0*%
%ADD29RoundRect,0.150000X-0.150000X0.825000X-0.150000X-0.825000X0.150000X-0.825000X0.150000X0.825000X0*%
%ADD30RoundRect,0.237500X-0.250000X-0.237500X0.250000X-0.237500X0.250000X0.237500X-0.250000X0.237500X0*%
%ADD31R,1.300000X0.900000*%
%ADD32FreePoly2,180.000000*%
%ADD33RoundRect,0.237500X0.237500X-0.250000X0.237500X0.250000X-0.237500X0.250000X-0.237500X-0.250000X0*%
%ADD34R,5.000000X5.000000*%
%ADD35R,2.000000X0.900000*%
%ADD36R,0.900000X2.000000*%
%ADD37RoundRect,0.237500X0.300000X0.237500X-0.300000X0.237500X-0.300000X-0.237500X0.300000X-0.237500X0*%
G04 APERTURE END LIST*
D10*
%TO.C,R4*%
X165850001Y-99412499D03*
X165850001Y-101412499D03*
%TD*%
%TO.C,R2*%
X165680001Y-112075001D03*
X165680001Y-114075001D03*
%TD*%
D11*
%TO.C,R8*%
X132750000Y-114750000D03*
X132750000Y-112750000D03*
%TD*%
D10*
%TO.C,R3*%
X168100001Y-99412500D03*
X168100001Y-101412500D03*
%TD*%
%TO.C,R1*%
X167930001Y-112074999D03*
X167930001Y-114074999D03*
%TD*%
D11*
%TO.C,R19*%
X121250000Y-106450000D03*
X121250000Y-104450000D03*
%TD*%
D12*
%TO.C,R16*%
X113750000Y-107000000D03*
X115750000Y-107000000D03*
%TD*%
D13*
%TO.C,Q2*%
X165812500Y-116300000D03*
X165812500Y-118200000D03*
X167687500Y-117250000D03*
%TD*%
D14*
%TO.C,R7*%
X134750000Y-112837500D03*
X134750000Y-114662500D03*
%TD*%
D15*
%TO.C,R11*%
X169505001Y-110074999D03*
X167680001Y-110074999D03*
%TD*%
D16*
%TO.C,C10*%
X169940001Y-118182500D03*
X169940001Y-116457500D03*
%TD*%
D17*
%TO.C,J5*%
X110244999Y-100109999D03*
X110244999Y-100909999D03*
D18*
X110244999Y-102109999D03*
X110244999Y-103109999D03*
X110244999Y-103609999D03*
X110244999Y-104609999D03*
D17*
X110244999Y-105809999D03*
X110244999Y-106609999D03*
X110244999Y-106609999D03*
X110244999Y-105809999D03*
D18*
X110244999Y-105109999D03*
X110244999Y-104109999D03*
X110244999Y-102609999D03*
X110244999Y-101609999D03*
D17*
X110244999Y-100909999D03*
X110244999Y-100109999D03*
%TD*%
D19*
%TO.C,D1*%
X127250000Y-118700000D03*
X123250000Y-118700000D03*
%TD*%
D20*
%TO.C,SW1*%
X130500000Y-94900000D03*
X130500000Y-99100000D03*
%TD*%
D16*
%TO.C,C2*%
X171790001Y-110024999D03*
X171790001Y-108299999D03*
%TD*%
D21*
%TO.C,U3*%
X128599999Y-114849999D03*
X129549999Y-114849999D03*
X130499999Y-114849999D03*
X130499999Y-112149999D03*
X129549999Y-112149999D03*
X128599999Y-112149999D03*
%TD*%
D16*
%TO.C,C11*%
X165680002Y-110187500D03*
X165680002Y-108462500D03*
%TD*%
D22*
%TO.C,C15*%
X134750000Y-117587500D03*
X134750000Y-119312500D03*
%TD*%
D23*
%TO.C,D2*%
X151500000Y-105875000D03*
X151500000Y-104125000D03*
%TD*%
D24*
%TO.C,Q3*%
X152012500Y-112237500D03*
X150112500Y-112237500D03*
X151062500Y-114112500D03*
%TD*%
D25*
%TO.C,L1*%
X124150000Y-111472500D03*
D26*
X124150000Y-115927500D03*
%TD*%
D24*
%TO.C,Q4*%
X145062500Y-112237500D03*
X143162500Y-112237500D03*
X144112500Y-114112500D03*
%TD*%
D27*
%TO.C,U2*%
X163350000Y-117270000D03*
X163350000Y-116000000D03*
X163350000Y-114730000D03*
X163350000Y-113460000D03*
X163350000Y-112190000D03*
X163350000Y-110920000D03*
X163350000Y-109650000D03*
X163350000Y-108380000D03*
X158010000Y-108380000D03*
X158010000Y-109650000D03*
X158010000Y-110920000D03*
X158010000Y-112190000D03*
X158010000Y-113460000D03*
X158010000Y-114730000D03*
X158010000Y-116000000D03*
X158010000Y-117270000D03*
%TD*%
D28*
%TO.C,C18*%
X123537500Y-109050000D03*
X125262500Y-109050000D03*
%TD*%
D22*
%TO.C,C7*%
X120000000Y-112087500D03*
X120000000Y-113812500D03*
%TD*%
D15*
%TO.C,R9*%
X146700000Y-114175000D03*
X148525000Y-114175000D03*
%TD*%
D16*
%TO.C,C13*%
X129700000Y-85825000D03*
X129700000Y-84100000D03*
%TD*%
D15*
%TO.C,R15*%
X115662500Y-109250000D03*
X113837500Y-109250000D03*
%TD*%
D29*
%TO.C,U5*%
X116560000Y-90230000D03*
X115290000Y-90230000D03*
X114020000Y-90230000D03*
X112750000Y-90230000D03*
X111480000Y-90230000D03*
X110210000Y-90230000D03*
X108940000Y-90230000D03*
X107670000Y-90230000D03*
X107670000Y-95180000D03*
X108940000Y-95180000D03*
X110210000Y-95180000D03*
X111480000Y-95180000D03*
X112750000Y-95180000D03*
X114020000Y-95180000D03*
X115290000Y-95180000D03*
X116560000Y-95180000D03*
%TD*%
D30*
%TO.C,R10*%
X167680000Y-108325000D03*
X169505000Y-108325000D03*
%TD*%
%TO.C,R12*%
X146700000Y-112175000D03*
X148525000Y-112175000D03*
%TD*%
D31*
%TO.C,U6*%
X140649999Y-118624999D03*
D32*
X140562500Y-117125000D03*
D31*
X140649999Y-115624999D03*
%TD*%
D13*
%TO.C,Q1*%
X166162501Y-103212500D03*
X166162501Y-105112500D03*
X168037501Y-104162500D03*
%TD*%
D22*
%TO.C,C12*%
X129700000Y-87612500D03*
X129700000Y-89337500D03*
%TD*%
D16*
%TO.C,C5*%
X172800000Y-97307500D03*
X172800000Y-95582500D03*
%TD*%
D33*
%TO.C,JP1*%
X129700000Y-93125000D03*
X129700000Y-91300000D03*
%TD*%
%TO.C,JP2*%
X132750000Y-119362500D03*
X132750000Y-117537500D03*
%TD*%
D16*
%TO.C,C6*%
X165850000Y-97275000D03*
X165850000Y-95550000D03*
%TD*%
D14*
%TO.C,R13*%
X131450000Y-87562500D03*
X131450000Y-89387500D03*
%TD*%
D34*
%TO.C,U4*%
X141999999Y-91494999D03*
D35*
X151499999Y-83994999D03*
X151499999Y-85264999D03*
X151499999Y-86534999D03*
X151499999Y-87804999D03*
X151499999Y-89074999D03*
X151499999Y-90344999D03*
X151499999Y-91614999D03*
X151499999Y-92884999D03*
X151499999Y-94154999D03*
X151499999Y-95424999D03*
X151499999Y-96694999D03*
X151499999Y-97964999D03*
X151499999Y-99234999D03*
X151499999Y-100504999D03*
D36*
X148714999Y-101504999D03*
X147444999Y-101504999D03*
X146174999Y-101504999D03*
X144904999Y-101504999D03*
X143634999Y-101504999D03*
X142364999Y-101504999D03*
X141094999Y-101504999D03*
X139824999Y-101504999D03*
X138554999Y-101504999D03*
X137284999Y-101504999D03*
D35*
X134499999Y-100504999D03*
X134499999Y-99234999D03*
X134499999Y-97964999D03*
X134499999Y-96694999D03*
X134499999Y-95424999D03*
X134499999Y-94154999D03*
X134499999Y-92884999D03*
X134499999Y-91614999D03*
X134499999Y-90344999D03*
X134499999Y-89074999D03*
X134499999Y-87804999D03*
X134499999Y-86534999D03*
X134499999Y-85264999D03*
X134499999Y-83994999D03*
%TD*%
D21*
%TO.C,U7*%
X123449999Y-106799999D03*
X124399999Y-106799999D03*
X125349999Y-106799999D03*
X125349999Y-104099999D03*
X124399999Y-104099999D03*
X123449999Y-104099999D03*
%TD*%
D15*
%TO.C,R17*%
X115700000Y-105150000D03*
X113875000Y-105150000D03*
%TD*%
D16*
%TO.C,C4*%
X170350000Y-101274999D03*
X170350000Y-99549999D03*
%TD*%
%TO.C,C14*%
X131450000Y-85825000D03*
X131450000Y-84100000D03*
%TD*%
D30*
%TO.C,R6*%
X168187501Y-95412500D03*
X170012501Y-95412500D03*
%TD*%
D16*
%TO.C,C1*%
X170180001Y-113937500D03*
X170180001Y-112212500D03*
%TD*%
D33*
%TO.C,R14*%
X153500000Y-105912500D03*
X153500000Y-104087500D03*
%TD*%
D16*
%TO.C,C3*%
X170350000Y-105025000D03*
X170350000Y-103300000D03*
%TD*%
D15*
%TO.C,R18*%
X115700000Y-103150000D03*
X113875000Y-103150000D03*
%TD*%
D28*
%TO.C,C17*%
X123537500Y-102050000D03*
X125262500Y-102050000D03*
%TD*%
D16*
%TO.C,C8*%
X130200000Y-119312500D03*
X130200000Y-117587500D03*
%TD*%
D37*
%TO.C,C16*%
X140762500Y-113375000D03*
X139037500Y-113375000D03*
%TD*%
D15*
%TO.C,R5*%
X170012499Y-97162500D03*
X168187499Y-97162500D03*
%TD*%
D22*
%TO.C,C9*%
X131500000Y-91337500D03*
X131500000Y-93062500D03*
%TD*%
D27*
%TO.C,U1*%
X163337500Y-104627501D03*
X163337500Y-103357501D03*
X163337500Y-102087501D03*
X163337500Y-100817501D03*
X163337500Y-99547501D03*
X163337500Y-98277501D03*
X163337500Y-97007501D03*
X163337500Y-95737501D03*
X157997500Y-95737501D03*
X157997500Y-97007501D03*
X157997500Y-98277501D03*
X157997500Y-99547501D03*
X157997500Y-100817501D03*
X157997500Y-102087501D03*
X157997500Y-103357501D03*
X157997500Y-104627501D03*
%TD*%
M02*
